<svg width="49" height="49" viewBox="0 0 49 49" fill="none" xmlns="http://www.w3.org/2000/svg">
<path d="M35.7361 0H13.2638C5.95003 0 0 5.95003 0 13.2638V35.7365C0 43.0499 5.95003 48.9999 13.2638 48.9999H35.7365C43.0499 48.9999 48.9999 43.0499 48.9999 35.7365V13.2638C48.9999 5.95003 43.0499 0 35.7361 0V0ZM46.1273 35.7365C46.1273 41.4659 41.4659 46.1273 35.7361 46.1273H13.2638C7.53399 46.1273 2.87258 41.4659 2.87258 35.7365V13.2638C2.87258 7.53399 7.53399 2.87258 13.2638 2.87258H35.7365C41.4659 2.87258 46.1273 7.53399 46.1273 13.2638V35.7365Z" fill="white"/>
<path d="M24.5001 11.1021C17.1123 11.1021 11.1021 17.1123 11.1021 24.5001C11.1021 31.8879 17.1123 37.8981 24.5001 37.8981C31.8879 37.8981 37.8981 31.8879 37.8981 24.5001C37.8981 17.1123 31.8879 11.1021 24.5001 11.1021ZM24.5001 35.0255C18.6966 35.0255 13.9746 30.3039 13.9746 24.5001C13.9746 18.6966 18.6966 13.9746 24.5001 13.9746C30.3039 13.9746 35.0255 18.6966 35.0255 24.5001C35.0255 30.3039 30.3039 35.0255 24.5001 35.0255Z" fill="white"/>
<path d="M38.2182 6.34375C36.035 6.34375 34.2593 8.11986 34.2593 10.3027C34.2593 12.4859 36.035 14.262 38.2182 14.262C40.4015 14.262 42.1776 12.4859 42.1776 10.3027C42.1776 8.11949 40.4015 6.34375 38.2182 6.34375ZM38.2182 11.3891C37.6193 11.3891 37.1319 10.9016 37.1319 10.3027C37.1319 9.70345 37.6193 9.21633 38.2182 9.21633C38.8175 9.21633 39.305 9.70345 39.305 10.3027C39.305 10.9016 38.8175 11.3891 38.2182 11.3891Z" fill="white"/>
</svg>
