<svg width="10041" height="3100" viewBox="0 0 10041 3100" fill="none" xmlns="http://www.w3.org/2000/svg">
<path fill-rule="evenodd" clip-rule="evenodd" d="M1133.47 39.8585L1137.11 78.9493L1115.85 82.8867C1086.56 88.322 1058.38 106.784 1054.25 123.26C1049.39 142.623 1056.32 174.282 1072.37 205.94C1079.91 220.828 1086.09 234.37 1086.09 236.038C1086.09 237.701 1067.25 239.062 1044.23 239.062C1014.78 239.062 1000.37 236.645 995.613 230.915C991.897 226.439 981.906 221.247 973.413 219.381C958.974 216.209 957.987 214.07 958.203 186.389L958.435 156.796L933.49 155.009L908.55 153.227L911.744 184.182C914.898 214.728 914.722 215.182 898.57 218.411C873.182 223.488 857.631 242.33 860.252 264.82C862.011 279.866 859.889 285.177 850.006 290.465C823.642 304.575 817.095 277.132 836.583 234.189C848.077 208.862 850.874 184.165 843.465 173.482C836.146 162.929 784.451 136.938 770.784 136.938C762.138 136.938 750.388 145.562 736.659 161.987C722.935 178.406 709.62 188.182 698.023 190.361C676.748 194.349 649.238 218.411 649.238 233.026C649.238 238.813 655.575 249.558 663.325 256.906C682.263 274.868 681.196 283.373 659.74 285.512C633.591 288.11 626.999 302.248 640.365 327.065C651.303 347.376 664.931 351.16 661.634 332.971C660.114 324.591 662.684 323.712 678.654 327.133C702.38 332.216 701.637 331.246 695.039 348.607C690.983 359.273 683.914 364.312 669.089 367.092C657.879 369.196 647.962 369.974 647.054 368.816C639.73 359.54 580.143 259.254 569.948 239.051C562.867 225.015 556.473 212.834 555.742 211.977C551.453 206.961 534.376 220.13 524.538 236.038C508.182 262.505 509.277 307.258 527.222 345.804L541.258 375.953L517.639 355.733C504.648 344.613 490.958 335.513 487.213 335.513C476.44 335.513 465.955 367.738 469.098 391.187C470.681 402.971 476.859 422.726 482.833 435.089L493.692 457.568L472.23 455.519C444.068 452.836 439.631 464.302 454.87 500.374C465.558 525.678 465.734 528.39 457.139 535.743C452.022 540.123 443.37 545.292 437.906 547.232C432.443 549.167 427.978 554.245 427.978 558.523C427.978 562.795 403.827 589.466 374.314 617.794C298.178 690.875 266.435 745.863 254.788 824.856C250.544 853.654 241.297 859.6 232.174 839.408C223.545 820.3 212.391 819.874 212.391 838.648C212.391 863.782 193.056 910.668 165.353 952.72C102.209 1048.57 90.4029 1097.61 108.359 1189.38C111.599 1205.93 111.383 1206.13 100.604 1196.47C82.0064 1179.82 76.2309 1184.22 76.2309 1215.06C76.2309 1230.75 70.4895 1264.58 63.4659 1290.23C47.1154 1350 45.7764 1474.74 61.0604 1514.82C72.0156 1543.55 68.5946 1583.69 55.1885 1583.69C48.8571 1583.69 50.0144 1588.64 60.164 1604.97C72.2369 1624.38 73.6779 1634.69 76.6621 1722.69C80.2477 1828.58 83.2942 1840.61 117.919 1885.81C136.147 1909.6 137.242 1912.76 127.251 1912.76C113.754 1912.76 113.096 1917.51 124.352 1933.58C130.95 1943 131.251 1946.82 125.771 1951.34C114.651 1960.51 52.8511 1981.66 28.0075 1984.81C15.5262 1986.38 3.23207 1989.62 0.684738 1992.01C-6.21404 1998.46 40.8066 2036.37 61.293 2040.87C71.0682 2043.02 87.9577 2050.81 98.8222 2058.19C109.687 2065.57 125.005 2071.7 132.862 2071.8C140.72 2071.89 152.106 2075.72 158.16 2080.31C164.219 2084.89 173.353 2088.64 178.459 2088.64C184.501 2088.64 196.875 2106.96 213.895 2141.12C239.606 2192.71 277.481 2239.64 310.256 2260.52C318.834 2265.98 325.858 2273.13 325.858 2276.4C325.858 2279.67 329.687 2286.18 334.368 2290.86C346.106 2302.6 345.017 2309.91 331.531 2309.91C313.36 2309.91 318.267 2317.61 346.061 2332.72C370.967 2346.26 405.285 2385.07 423.74 2420.57C437.617 2447.27 483.463 2498.36 503.246 2509.18C512.585 2514.28 512.329 2515.91 499.547 2532.84C491.996 2542.84 482.697 2561.6 478.885 2574.51C472.553 2595.93 473.251 2600.82 486.839 2630.51C495.031 2648.4 501.731 2664 501.731 2665.19C501.731 2666.37 484.501 2667.36 463.436 2667.37C408.513 2667.42 374.632 2678.7 291.818 2724.53C266.77 2738.39 204.409 2757.51 182.606 2758.02C172.298 2758.26 180.671 2768.46 211.795 2793.62C253.999 2827.73 284.936 2841.36 331.531 2846.38C368.164 2850.32 397.716 2859.69 374.677 2860.07C357.248 2860.35 315.538 2889.89 306.466 2908.39C301.854 2917.79 291.982 2939.53 284.528 2956.69C271.524 2986.63 268.858 2989.01 218.501 3015.49C189.641 3030.67 168.162 3045.02 170.771 3047.39C179.854 3055.62 315.856 3037.55 362.735 3021.88C413.579 3004.88 441.889 3003.29 565.296 3010.48C642.776 3015 643.151 3014.96 675.926 2999.33C719.644 2978.49 745.265 2961.34 799.582 2916.56C872.008 2856.84 894.446 2845.56 962.117 2834.85C1010.99 2827.11 1026.96 2790.63 995.312 2758.99C985.951 2749.63 978.292 2740.78 978.292 2739.34C978.292 2737.9 990.416 2735.01 1005.24 2732.94C1020.06 2730.87 1040.12 2727.81 1049.82 2726.15C1066.93 2723.21 1067.54 2723.84 1070.73 2747.65C1072.79 2762.96 1078.59 2775.88 1086.16 2782.02L1098.31 2791.85L1062.49 2843.63L1026.67 2895.41L1039.75 2906C1057.81 2920.62 1063.63 2915.84 1116.91 2842.54C1141.67 2808.49 1163.59 2782.58 1165.64 2784.97C1167.69 2787.36 1189.01 2816.58 1213.02 2849.91C1237.04 2883.23 1259.79 2911.6 1263.58 2912.96C1274.45 2916.87 1290.33 2906.23 1290.33 2895.05C1290.33 2889.46 1275 2862.91 1256.27 2836.07C1224.71 2790.83 1223.07 2786.99 1233.9 2783.55C1246.7 2779.49 1256.29 2759.73 1256.29 2737.44C1256.29 2724.91 1258.19 2723.55 1271.89 2726.26C1280.47 2727.97 1297.7 2731.06 1310.18 2733.14C1342.03 2738.43 1342.43 2739.18 1323.53 2758.08C1310.45 2771.16 1307.02 2779.15 1308.4 2793.32C1310.58 2815.71 1339.53 2837.55 1367.04 2837.55C1391.12 2837.55 1429.48 2851.35 1457.69 2870.17C1478.38 2883.97 1538.82 2931.91 1545.63 2939.92C1553.59 2949.29 1606.3 2981.73 1637.67 2996.57C1669.21 3011.49 1679.31 3013.42 1726.08 3013.42C1755.13 3013.43 1797.26 3010.58 1819.69 3007.09C1865.66 2999.96 1919.09 3006.68 1967.64 3025.7C1993.54 3035.85 2133.23 3054.52 2142.84 3049.12C2151.08 3044.49 2140.91 3036.69 2094.87 3012.33L2048.68 2987.89L2027.02 2941.2C2003.58 2890.66 1972.37 2860.4 1943.33 2860.07C1917.56 2859.76 1942.49 2850.7 1978.84 2847.16C1997.13 2845.37 2024.78 2839.34 2040.29 2833.77C2067.82 2823.87 2129.83 2778.87 2134.13 2765.67C2135.46 2761.6 2123.63 2756.46 2103.35 2752.3C2075.11 2746.51 2022.95 2724.84 1993.82 2706.8C1956.54 2683.72 1914.16 2670.85 1867.59 2668.48C1840.29 2667.09 1817.95 2665.2 1817.95 2664.28C1817.95 2663.36 1823.35 2650.27 1829.95 2635.19C1836.55 2620.11 1841.73 2599.49 1841.47 2589.38C1840.93 2568.97 1826.75 2537.93 1812.82 2526.72C1804.61 2520.11 1804.78 2518.78 1814.66 2512.54C1843.82 2494.1 1873.51 2461.36 1908.16 2409.45C1938.98 2363.27 1951.75 2349.23 1975.49 2335.44C2006.3 2317.54 2012.07 2309.91 1994.77 2309.91C1979.49 2309.91 1975.71 2303.56 1984.92 2293.36C2005.22 2270.87 2021.73 2254.37 2044.42 2233.88C2073.58 2207.55 2109.6 2153.51 2122.82 2116.29C2129.11 2098.58 2136.26 2088.6 2143.92 2086.81C2174.83 2079.62 2237.77 2054.05 2237.77 2048.69C2237.77 2046.39 2247.35 2042.72 2259.05 2040.54C2282.13 2036.23 2332.31 1999.17 2324.71 1992.05C2322.14 1989.65 2309.82 1986.38 2297.34 1984.81C2274.28 1981.9 2228.42 1966.28 2205.02 1953.37C2193.07 1946.78 2192.76 1945.36 2200.77 1933.92C2212.26 1917.51 2211.66 1912.76 2198.1 1912.76C2188.03 1912.76 2188.94 1909.94 2206.45 1887C2237.82 1845.91 2249.1 1799.81 2249.24 1712.17C2249.35 1650.16 2251.26 1633.42 2260.59 1612.86C2273.8 1583.75 2274.11 1581.59 2264.61 1585.24C2253.27 1589.6 2254.24 1547.15 2266.61 1497.64C2282.1 1435.7 2280.48 1384.46 2260.12 1291.79C2250.57 1248.32 2244.14 1207.24 2245.84 1200.49C2250.19 1183.16 2243.75 1179.37 2227.77 1189.84C2214.87 1198.29 2214.19 1198.2 2216.91 1188.44C2229.96 1141.5 2224.66 1079.34 2203.36 1029.66C2197.24 1015.36 2178.28 982.898 2161.23 957.52C2130.51 911.774 2113.14 869.087 2113.02 839.039C2112.94 819.216 2105.64 819.216 2091.2 839.028C2084.96 847.606 2078.52 853.291 2076.89 851.669C2075.27 850.041 2070.07 830.177 2065.35 807.529C2050.2 734.879 2027.89 697.893 1955.9 626.043C1920.59 590.805 1891.7 559.476 1891.7 556.418C1891.7 553.365 1885.46 548.021 1877.83 544.543C1858.41 535.692 1856.71 526.983 1869.53 501.952C1886.63 468.591 1882.59 457.494 1853.4 457.494C1840.13 457.494 1829.29 457.494 1829.31 457.494C1829.33 457.494 1835.71 444.933 1843.5 429.586C1851.29 414.233 1857.66 394.364 1857.66 385.428C1857.66 355.325 1835.56 316.886 1828.35 334.44C1827.31 336.971 1815.63 348.732 1802.41 360.578L1778.36 382.109L1792.46 356.868C1818.66 309.993 1818.24 252.253 1791.5 225.514C1783.36 217.361 1775.1 210.695 1773.15 210.695C1771.2 210.695 1759.66 229.202 1747.51 251.828C1714.84 312.648 1676.15 369.554 1667.46 369.554C1663.26 369.554 1653.28 367.063 1645.28 364.022C1628.59 357.679 1624.86 333.305 1639.7 327.609C1655.65 321.487 1666.16 323.712 1662.79 332.494C1656.99 347.603 1669.31 347.251 1681.33 331.967C1702.51 305.04 1691.81 284.451 1656.63 284.451C1638.44 284.451 1638.36 280.678 1656.26 264.094C1670.07 251.3 1674.06 232.419 1666.92 213.787C1662.85 203.2 1635.97 188 1621.31 188C1615.82 188 1600.78 176.512 1587.89 162.469C1573.54 146.845 1559.54 136.938 1551.79 136.938C1539.02 136.938 1489.88 162.549 1481.56 173.544C1475.26 181.867 1481.33 224.623 1491.63 244.554C1509.2 278.516 1498.42 304.336 1472.48 290.448C1463.27 285.517 1461.56 280.666 1464.29 267.073C1468.39 246.534 1451.05 224.6 1426.43 219.194C1411.67 215.948 1410.83 214.093 1411.54 186.276L1412.3 156.796H1389.61H1366.92L1367.7 186.582C1368.33 210.7 1366.71 216.374 1359.19 216.391C1354.08 216.402 1341.54 221.508 1331.32 227.738C1317.81 235.976 1302.74 239.062 1276.01 239.062C1255.8 239.062 1239.27 237.621 1239.27 235.862C1239.27 234.104 1245.91 218.144 1254.03 200.403C1274.15 156.444 1276.99 134.896 1265.08 116.718C1254.74 100.934 1215.95 80.5321 1195.89 80.3279C1184.75 80.2144 1184.14 78.4159 1188.67 58.9273C1191.38 47.2285 1193.67 29.3511 1193.74 19.2125L1193.88 0.773438H1161.86H1129.84L1133.47 39.8585ZM1583.92 218.269C1594.39 225.894 1592.57 243.72 1579.07 265.558C1571.26 278.193 1567.89 291.372 1569.32 303.633C1571.68 323.916 1566.5 331.7 1547.27 336.727C1539.29 338.815 1531.56 336.239 1525.41 329.436C1516.4 319.485 1516.84 318.112 1533.59 304.013C1553.94 286.896 1556.73 264.803 1542.79 231.426C1528.45 197.095 1530.67 192.227 1555.55 203.478C1567.26 208.771 1580.02 215.426 1583.92 218.269ZM783.163 217.786C771.595 278.266 771.879 281.58 790.334 302.6C807.002 321.584 807.383 323.053 797.834 331.694C788.893 339.785 786.011 339.875 771.816 332.505C763.034 327.955 753.543 325.652 750.723 327.394C747.903 329.135 748.527 324.137 752.107 316.279C757.44 304.575 756.379 296.025 746.213 268.843C731.933 230.654 734.441 218.887 759.165 208.045C785.075 196.681 787.044 197.481 783.163 217.786ZM9542.2 239.794C9426.76 247.856 9335.93 286.385 9270.85 354.899C9242.95 384.271 9204.63 437.455 9204.63 446.816C9204.63 449.664 9199.69 461.216 9193.65 472.495C9181.28 495.569 9168.14 539.232 9154.64 602.169C9146.74 638.99 9145.51 698.608 9145.47 1044.71C9145.43 1470.7 9144.6 1455.44 9173.2 1557.07C9197.57 1643.69 9266.03 1735.48 9336.2 1775.6C9414.07 1820.13 9494.2 1836.02 9619.74 1831.83C9738 1827.89 9803.69 1808.32 9871.17 1756.93C9980.45 1673.73 10029.5 1549.96 10037 1338.21L10040.4 1243.08L9896.23 1244.6L9752.11 1246.12L9748.51 1351.08C9744.75 1460.71 9740.57 1483.97 9716.75 1528.14C9698.03 1562.84 9668.93 1582.64 9626.62 1589.46C9590.76 1595.23 9538.39 1589.58 9515.51 1577.47C9477.51 1557.36 9450.56 1510.37 9442.81 1450.75C9436.17 1399.7 9435.96 674.58 9442.56 623.331C9447.33 586.34 9467.25 538.279 9487.52 514.825C9505.78 493.697 9544.69 481.334 9593.16 481.254C9675.83 481.124 9713.11 508.425 9738.9 587.985C9741.93 597.346 9746.15 642.026 9748.27 687.272L9752.11 769.538L9896.21 771.053L10040.3 772.574L10037 683.113C10034.5 613.868 10030.5 581.03 10019.3 537.763C9964.6 325.164 9799.15 221.843 9542.2 239.794ZM3087.28 265.138C3084.98 267.441 3083.1 613.561 3083.1 1034.31V1799.29H3227.77H3372.44V1490.69V1182.09L3521.37 1179.4C3660.49 1176.89 3673.09 1175.79 3712.84 1162.69C3777.47 1141.41 3818.6 1116.03 3862.44 1070.39C3938.09 991.641 3981.8 890.901 3990.24 775.836C3999.13 654.626 3986.15 572.167 3944.14 483.025C3896.14 381.173 3819.47 312.444 3715.68 278.227C3676.66 265.359 3670.88 265.098 3383.71 263.044C3222.98 261.893 3089.59 262.84 3087.28 265.138ZM4348.82 274.522C4346.16 281.546 4322.01 379.199 4295.15 491.535C4241.55 715.697 4168.64 1020.14 4150.44 1095.77C4144.07 1122.29 4114.38 1246.12 4084.47 1370.93C4054.58 1495.75 4021.43 1633.62 4010.83 1677.31C4000.22 1720.99 3989.82 1766.35 3987.7 1778.11L3983.86 1799.47L4135.7 1797.96L4287.55 1796.45L4297.34 1753.9C4308.78 1704.23 4341.98 1550.68 4360.2 1463.13L4372.9 1402.14H4525.1C4608.82 1402.14 4677.31 1404.31 4677.31 1406.97C4677.31 1409.63 4686.44 1465.16 4697.61 1530.37C4708.77 1595.58 4723.48 1682.13 4730.29 1722.69L4742.67 1796.45L4897.34 1797.96L5052.01 1799.47L5048.98 1786.61C5047.31 1779.54 5035.51 1723.97 5022.76 1663.12C5010.01 1602.27 4993.38 1523.13 4985.82 1487.24C4978.26 1451.36 4968.42 1402.85 4963.96 1379.44C4959.5 1356.04 4951.9 1320.3 4947.06 1300.01C4936.04 1253.82 4923.52 1193.96 4910.02 1123.09C4904.28 1092.86 4896.94 1059.67 4893.73 1049.33C4890.52 1038.99 4882.64 1003.71 4876.24 970.949C4857.1 873.092 4843.18 805.134 4836.73 778.049C4827.94 741.171 4814.62 676.22 4801.83 607.843C4795.71 575.078 4788.39 542.92 4785.59 536.384C4782.77 529.843 4777.43 504.312 4773.7 479.649C4769.98 454.98 4763.57 424.587 4759.46 412.105C4755.35 399.624 4749.17 370.671 4745.72 347.773C4742.28 324.869 4736.34 296.149 4732.53 283.946L4725.61 261.756H4539.63H4353.65L4348.82 274.522ZM5146.31 265.541C5144.23 267.617 5142.52 613.561 5142.52 1034.31V1799.29H5284.36H5426.19V1447.53V1095.77H5602.06H5777.94V1447.62V1799.48L5921.19 1797.96L6064.44 1796.45L6066 1041.87C6066.85 626.849 6066.17 281.546 6064.47 274.522L6061.39 261.756H5919.66H5777.94V556.781V851.805H5602.06H5426.19V556.781V261.756H5288.14C5212.21 261.756 5148.38 263.459 5146.31 265.541ZM6188.44 270.341C6186.63 275.061 6187.72 282.079 6190.85 285.943C6195.78 292.008 6296.97 513.764 6420.58 789.396C6440.87 834.642 6463.87 885.704 6471.7 902.867C6479.52 920.029 6493.66 951.251 6503.12 972.249L6520.32 1010.43L6412.74 1253.09C6353.57 1386.55 6300.13 1506.58 6294.01 1519.8C6287.88 1533.03 6282.86 1545 6282.86 1546.41C6282.86 1547.82 6271.38 1573.39 6257.33 1603.24C6243.29 1633.1 6231.8 1658.71 6231.8 1660.16C6231.8 1661.61 6220.45 1686.77 6206.58 1716.07C6192.71 1745.36 6179.67 1776.07 6177.6 1784.31L6173.84 1799.29H6327.13H6480.42L6492.27 1774.8C6498.79 1761.34 6504.12 1747.36 6504.12 1743.75C6504.12 1740.13 6508.95 1726.26 6514.85 1712.92C6520.75 1699.57 6533.82 1666.95 6543.88 1640.43C6553.95 1613.9 6565.5 1584.54 6569.57 1575.18C6573.63 1565.82 6587.73 1530.08 6600.92 1495.75C6614.1 1461.43 6632.31 1414.19 6641.39 1390.79C6650.46 1367.39 6665.72 1326.98 6675.31 1301C6684.89 1275.01 6694.82 1255.86 6697.36 1258.44C6699.91 1261.03 6713.79 1295.05 6728.2 1334.06C6742.63 1373.06 6759.26 1417.74 6765.18 1433.34C6771.1 1448.95 6782.58 1479.58 6790.71 1501.43C6798.83 1523.27 6810.43 1553.1 6816.49 1567.72C6822.55 1582.34 6827.5 1597.05 6827.5 1600.41C6827.5 1603.76 6832.3 1617.33 6838.15 1630.56C6844.01 1643.79 6853.31 1667.38 6858.81 1682.98C6864.31 1698.58 6870.66 1713.9 6872.91 1717.02C6875.16 1720.14 6878.73 1729.94 6880.85 1738.8C6882.97 1747.65 6889.03 1764.89 6894.32 1777.09L6903.94 1799.29H7061.45C7148.08 1799.29 7218.97 1797.96 7218.97 1796.34C7218.97 1793.31 7189.53 1729.45 7151.02 1648.94C7122.27 1588.83 7077.4 1493.96 7054.43 1444.69C7044.24 1422.85 7023.71 1379.44 7008.8 1348.24C6993.89 1317.04 6972.84 1272.36 6962.04 1248.95C6924.28 1167.13 6899.92 1115.22 6875.1 1063.72L6850.1 1011.81L6884.82 938.9C6903.91 898.799 6939.96 823.863 6964.91 772.375C6989.86 720.888 7024.2 649.401 7041.21 613.516C7058.22 577.631 7074.54 544.441 7077.48 539.76C7080.42 535.079 7085.53 524.867 7088.82 517.066C7096.54 498.763 7144.51 399.419 7180.3 327.609C7196.24 295.616 7206.13 269.348 7203.31 266.528C7200.58 263.799 7128.83 262.25 7043.85 263.084L6889.35 264.593L6869.16 315.655C6858.06 343.739 6844.47 376.929 6838.98 389.411C6833.48 401.893 6827.2 418.488 6825.02 426.289C6822.84 434.09 6817.44 448.132 6813.02 457.494C6808.61 466.855 6781.91 532.94 6753.71 604.342C6725.5 675.749 6700.86 736.711 6698.94 739.809C6694.27 747.372 6689.42 735.367 6614.82 531.25C6606.84 509.407 6597.98 486.429 6595.13 480.188C6592.27 473.947 6588.17 462.458 6586 454.657C6583.84 446.856 6577.55 430.261 6572.02 417.779C6566.49 405.297 6558.06 383.596 6553.3 369.554C6534.96 315.508 6519.42 275.657 6514.02 268.848C6509.78 263.481 6469.96 261.756 6350.07 261.756C6213.97 261.756 6191.27 262.959 6188.44 270.341ZM8262.86 1030.52V1799.29H8404.69H8546.53V1152.5V505.719H8790.48H9034.43V383.738V261.756H8648.65H8262.86V1030.52ZM1213.63 293.137C1246.09 313.908 1253.15 321.862 1233.59 315.655C1219.7 311.247 1217.96 324.892 1231.02 335.734C1237.73 341.3 1238.15 344.046 1232.81 347.348C1227.28 350.757 1227.32 353.486 1232.99 360.312C1239.14 367.733 1236.36 370.059 1213.24 376.799C1174.96 387.964 1168.16 416.043 1200.87 427.878C1206.54 429.932 1206.34 433.336 1199.93 443.985C1195.46 451.417 1184.64 474.089 1175.89 494.372C1162.32 525.832 1159.45 529.332 1156.34 518.218C1154.34 511.046 1144.2 487.427 1133.8 465.737C1122.05 441.228 1117.5 426.221 1121.77 426.108C1125.54 426.011 1133.16 422.494 1138.69 418.301C1156.18 405.03 1143.17 384.867 1111.69 376.447C1088.45 370.229 1085.88 368.124 1092.23 360.476C1097.99 353.537 1098.06 350.752 1092.54 347.348C1087.2 344.046 1087.62 341.3 1094.33 335.734C1107.77 324.58 1105.56 310.855 1090.94 314.674C1076.74 318.39 1080.24 314.367 1111.62 290.873C1144.26 266.431 1172.87 267.061 1213.63 293.137ZM3597.32 519.239C3640.13 538.693 3662.09 560.758 3682.68 605.006C3697.53 636.936 3698.52 643.796 3698.59 715.64C3698.63 761.335 3695.77 801.747 3691.49 815.818C3675.73 867.662 3631.59 914.441 3582.5 931.314C3571.5 935.093 3519.73 939.472 3467.47 941.038L3372.44 943.892V721.313V498.735L3467.47 501.078C3556.76 503.279 3564.6 504.374 3597.32 519.239ZM4545.82 570.964C4552.29 605.289 4559.17 648.692 4561.12 667.415C4563.06 686.137 4568.3 719.328 4572.76 741.171C4577.22 763.014 4583.51 802.587 4586.74 829.111C4589.97 855.635 4596.22 895.208 4600.63 917.051C4605.04 938.894 4611.43 979.743 4614.81 1007.83C4618.2 1035.91 4624.72 1077.29 4629.29 1099.78C4643.68 1170.62 4654.84 1163.85 4523.68 1163.85H4409.76L4413.02 1148.25C4416.02 1133.87 4434.5 1034.22 4453.26 931.234C4457.52 907.831 4467.5 854.216 4475.44 812.09C4483.37 769.964 4499.35 683.874 4510.95 620.784C4522.55 557.688 4532.5 506.627 4533.06 507.313C4533.62 507.994 4539.36 536.64 4545.82 570.964ZM7332.43 1217.75V1799.29H7456.24H7580.05L7633.11 1661.7C7662.29 1586.04 7704.89 1475.61 7727.78 1416.32C7750.67 1357.03 7775.74 1291.93 7783.48 1271.65C7791.22 1251.36 7805.17 1215.62 7814.47 1192.22L7831.37 1149.67L7831.53 1474.48L7831.69 1799.29H7959.34H8086.99V1217.64V635.995L7961.59 637.521L7836.21 639.047L7827.66 664.578C7822.97 678.62 7817.17 692.662 7814.8 695.782C7812.42 698.903 7807.28 711.668 7803.39 724.15C7799.5 736.632 7792.89 754.504 7788.72 763.865C7784.55 773.226 7777.39 791.098 7772.82 803.58C7768.25 816.062 7757.88 843.493 7749.79 864.536C7741.68 885.585 7728.42 920.052 7720.31 941.129C7712.2 962.212 7700.51 993.502 7694.35 1010.66C7688.18 1027.83 7681.08 1044.42 7678.56 1047.54C7676.05 1050.66 7670.09 1065.98 7665.33 1081.58C7656.86 1109.34 7641.8 1148.25 7620.88 1196.41C7615.13 1209.64 7610.35 1223.68 7610.25 1227.61C7610.15 1231.55 7603.79 1247.53 7596.12 1263.14L7582.16 1291.5L7582.11 963.857L7582.06 636.21H7457.25H7332.43V1217.75ZM980.204 656.363C990.172 663.194 990.115 663.664 978.786 667.256C965.141 671.59 944.252 666.309 944.252 658.524C944.252 648.42 927.595 653.293 921.19 665.27C912.51 681.485 919.028 710.715 933.836 721.955C950.436 734.561 942.368 744.008 915.006 744.008C887.921 744.008 859.152 725.954 859.152 708.951C859.152 702.574 869.596 684.884 882.361 669.633L905.577 641.906L937.677 645.566C955.338 647.58 974.474 652.442 980.204 656.363ZM1441.86 668.396C1469.8 698.829 1471.78 710.573 1452.27 730.079C1441.68 740.672 1432.34 744.008 1413.26 744.008C1384.92 744.008 1366.42 730.612 1386.13 724.354C1401.4 719.504 1411.55 687.828 1404.1 668.232C1398.78 654.235 1381.1 646.769 1381.1 658.524C1381.1 666.257 1360.24 671.602 1346.76 667.318C1328.49 661.52 1343.62 648.562 1371.61 646.014C1384.63 644.834 1400.29 643.421 1406.4 642.877C1413.18 642.27 1427.01 652.221 1441.86 668.396ZM946.89 975.653C947.049 1004.54 944.978 1013.1 936.292 1019.46C926.585 1026.57 926.438 1027.74 934.84 1030.96C950.924 1037.13 938.993 1044.71 913.185 1044.71C899.591 1044.71 887.615 1046.62 886.571 1048.96C885.533 1051.3 877.023 1057.43 867.662 1062.57C858.301 1067.71 844.713 1080.48 837.463 1090.94C826.53 1106.71 824.596 1115.76 826.116 1143.99C827.914 1177.43 827.67 1178.07 812.347 1179.83C793.557 1181.99 792.967 1186.02 808.909 1203.13C818.854 1213.81 825.112 1215.64 843.289 1213.2C865.336 1210.25 865.483 1210.36 861.881 1226.75C858.857 1240.51 860.071 1243.28 869.103 1243.28C875.071 1243.28 881.709 1241.53 883.854 1239.38C885.998 1237.24 892.965 1235.1 899.336 1234.63C923.635 1232.84 879.616 1259.17 846.523 1266.22C808.863 1274.24 785.801 1268.02 776.747 1247.38C772.497 1237.7 765.621 1234.37 747.103 1233.03C732.109 1231.94 722.992 1228.52 722.992 1223.97C722.992 1214.41 706.783 1182.04 699.844 1177.76C696.872 1175.92 695.975 1171.92 697.853 1168.89C699.737 1165.85 694.534 1154.53 686.302 1143.74C669.52 1121.73 603.92 989.377 603.88 977.434C603.863 972.895 607.369 971.085 612.413 973.02C617.116 974.824 627.328 973.888 635.106 970.932C647.031 966.399 649.238 967.205 649.238 976.112C649.238 981.922 653 993.927 657.601 1002.79C664.846 1016.76 668.828 1018.7 687.386 1017.31C700.491 1016.33 712.666 1011.17 718.737 1004.04C728.472 992.611 728.665 992.605 728.665 1003.59C728.665 1022.39 750.632 1045.62 764.691 1041.72C789.239 1034.88 802.799 1025.3 806.004 1012.54L809.283 999.47L829.202 1015.89C846.534 1030.18 851.255 1031.57 865.568 1026.57C888.608 1018.54 898.865 1001.18 898.865 970.212C898.865 946.247 900.681 942.548 917.304 932.687C933.904 922.843 936.287 922.65 941.217 930.747C944.229 935.694 946.782 955.903 946.89 975.653ZM1416.56 938.706C1424.3 941.452 1426.5 948.828 1426.57 972.192C1426.67 1007.02 1429.01 1011.69 1452.33 1023.63C1468.5 1031.91 1470.87 1031.74 1487.79 1021.03C1500.37 1013.06 1506.06 1004.95 1506.4 994.506L1506.89 979.46L1511.29 993.973C1519.91 1022.39 1529.02 1032.94 1549.95 1038.77C1572.39 1045.01 1571.31 1045.61 1594.06 1014.02C1599.68 1006.2 1603.9 1004.8 1609.2 1008.97C1613.24 1012.16 1626.23 1016.25 1638.08 1018.07C1657.58 1021.07 1660.18 1019.93 1665.58 1006.1C1668.86 997.689 1671.94 985.093 1672.41 978.115C1673.1 968.027 1675.61 966.223 1684.62 969.327C1695.7 973.145 1738.85 972.509 1742.89 968.47C1744.01 967.358 1745.4 957.111 1745.97 945.708L1747.03 924.977L1761.43 940.874C1769.35 949.611 1784.67 963.5 1795.47 971.727C1821.26 991.374 1837.34 1025.47 1848.18 1083.45C1857.97 1135.84 1882.27 1192.86 1909.42 1227.14L1927.22 1249.62L1920.79 1307.44C1912.34 1383.48 1921.5 1435.58 1952.42 1487.29C1953.36 1488.87 1948.96 1493.4 1942.62 1497.36C1932.74 1503.53 1927.67 1502.47 1907.14 1489.94C1862.34 1462.59 1832.15 1438.28 1820.78 1420.41C1814.54 1410.6 1806.5 1402.48 1802.9 1402.36C1792.24 1402 1783.91 1435.1 1783.91 1477.78V1517.7L1811.14 1543.95C1826.12 1558.38 1841.68 1578.18 1845.72 1587.94C1852.75 1604.91 1852.16 1606.58 1832.31 1626.44C1813.63 1645.12 1810.59 1646.36 1801.98 1638.83C1786.92 1625.64 1762.47 1614.69 1705.62 1595.69C1676.6 1585.98 1635.75 1566.84 1614.85 1553.14C1571.96 1525.04 1508.51 1461.09 1491.77 1429.09C1485.65 1417.39 1478.98 1407.81 1476.95 1407.81C1461.81 1407.81 1449.44 1469 1447.17 1555.13L1446.34 1586.14L1417.98 1596.86C1386.05 1608.93 1317.39 1611.11 1284.69 1601.1C1255.37 1592.13 1220.19 1593.71 1189.48 1605.38C1163.45 1615.27 1161.27 1615.29 1139.77 1605.8C1111.42 1593.29 1077.58 1592.68 1024.65 1603.73C981.032 1612.82 935.969 1608.96 896.272 1592.72C880.172 1586.14 878.963 1583.59 878.328 1554.89C877.953 1537.97 876.229 1506.25 874.487 1484.41L871.327 1444.69L882.259 1458.09C888.273 1465.45 893.192 1477.58 893.192 1485.03C893.192 1501.89 897.288 1502.04 914.603 1485.82L928.236 1473.06L941.052 1489.09C955.655 1507.35 991.551 1515.38 1011.32 1504.8C1021.55 1499.33 1024.64 1500.46 1032.58 1512.57C1043.41 1529.1 1072.99 1538.8 1099.49 1534.5C1114.91 1531.99 1121.11 1534.49 1135.69 1549.07C1157.73 1571.11 1165.88 1571.11 1187.93 1549.05C1202.71 1534.27 1208.5 1531.98 1223.87 1534.87C1246.81 1539.17 1277.92 1530.58 1287.67 1517.24C1293.37 1509.45 1302.99 1507.1 1329.21 1507.1C1359.26 1507.1 1365.41 1505.1 1380.8 1490.36L1398.29 1473.61L1407.04 1486.1C1417.96 1501.7 1432.16 1502.33 1432.16 1487.22C1432.16 1480.97 1437.27 1466.33 1443.51 1454.68C1457.76 1428.09 1457.68 1422.25 1442.79 1398.14C1433.84 1383.66 1432.37 1376.97 1437.11 1372.22C1454.91 1354.42 1430.07 1311.36 1402 1311.36C1390.49 1311.36 1388.78 1313.59 1391.06 1325.55C1393.02 1335.79 1391.3 1339.73 1384.88 1339.73C1375.91 1339.73 1327.26 1309.3 1321.61 1300.15C1319.93 1297.43 1310.93 1293.54 1301.61 1291.49C1288.84 1288.68 1284.65 1284.58 1284.65 1274.86C1284.65 1262.96 1274.87 1250.59 1245.08 1224.84C1238.76 1219.38 1233.59 1208.73 1233.59 1201.16C1233.59 1183.81 1257.59 1154.83 1275.73 1150.28C1305.79 1142.73 1330.08 1165.25 1321.4 1192.61C1318.4 1202.08 1313.68 1204.05 1296.91 1202.82C1281.27 1201.66 1276.55 1203.31 1277.77 1209.52C1280.21 1221.82 1306.42 1243.28 1319.01 1243.28C1331.55 1243.28 1332.87 1250.08 1323.65 1267.32C1314.72 1283.99 1330.27 1294.34 1364.26 1294.34C1378.77 1294.34 1402.91 1298.03 1417.91 1302.55C1432.91 1307.06 1459.48 1312.46 1476.96 1314.54C1496.43 1316.87 1526.88 1327.24 1555.52 1341.29C1599.47 1362.86 1602.92 1363.68 1612.7 1354.82C1618.43 1349.64 1631.24 1345.4 1641.19 1345.4C1662.72 1345.4 1721.5 1313.73 1721.5 1302.13C1721.5 1297.65 1725.27 1292.54 1729.87 1290.77C1734.47 1289.01 1741.66 1280.79 1745.84 1272.51C1750.03 1264.24 1756.99 1251.87 1761.32 1245.05C1767.41 1235.42 1767.74 1229.69 1762.76 1219.52C1759.22 1212.3 1753.54 1197.26 1750.14 1186.09C1746.07 1172.75 1735.32 1159.31 1718.8 1146.94C1695.48 1129.46 1693.55 1126.01 1691.98 1099.17L1690.3 1070.24L1662.91 1068.49C1628.31 1066.28 1619.38 1073.62 1619.38 1104.24C1619.38 1125.49 1617.01 1129.94 1599.38 1141.84C1586.01 1150.86 1573.56 1167.57 1561.81 1192.22L1544.24 1229.1L1555.97 1249.54C1577.24 1286.61 1548.99 1293 1472.67 1268.38C1422.7 1252.27 1403.23 1233.64 1443.45 1240.43C1466.01 1244.24 1466.1 1244.19 1462.85 1227.97C1459.67 1212.06 1460.1 1211.73 1481.34 1213.71C1497.56 1215.22 1506.32 1212.69 1515.84 1203.76C1532.65 1187.98 1531.95 1182.01 1513 1179.83C1497.72 1178.07 1497.44 1177.36 1499.34 1145.05C1500.97 1117.41 1498.99 1108.61 1487.09 1090.64C1479.29 1078.85 1465.01 1065.94 1455.37 1061.94C1445.72 1057.95 1437.83 1052.43 1437.83 1049.69C1437.83 1046.95 1426.5 1044.71 1412.64 1044.71C1388.68 1044.71 1373.33 1036.89 1387.81 1032.07C1392.63 1030.46 1391.83 1025.89 1385 1016.14C1373.84 1000.2 1372.23 955.812 1382.03 934.298C1387.74 921.76 1389.84 920.841 1397.63 927.496C1402.58 931.722 1411.09 936.766 1416.56 938.706ZM567.003 980.878C572.546 995.703 578.94 1010.38 581.215 1013.5C583.49 1016.62 588.613 1029.39 592.601 1041.87C596.584 1054.35 604.578 1073.46 610.359 1084.33C616.14 1095.21 620.872 1105.75 620.872 1107.76C620.872 1109.76 625.161 1121.29 630.397 1133.37C635.639 1145.46 640.904 1161.72 642.096 1169.52C643.287 1177.32 646.663 1186.13 649.59 1189.1C652.517 1192.06 654.912 1198.48 654.912 1203.37C654.912 1208.25 660.018 1221.77 666.258 1233.41C679.636 1258.37 680.254 1270.51 668.913 1285.5C659.405 1298.07 657.805 1317.04 666.258 1317.04C669.379 1317.04 671.932 1321.01 671.932 1325.86C671.932 1336.32 703.402 1366.9 721.573 1374.11C728.597 1376.89 734.429 1383.69 734.543 1389.23C734.821 1402.54 773.354 1431.43 788.031 1429.32C798.464 1427.83 799.519 1423.83 798.929 1387.95L798.277 1348.24L822.224 1332.73C870.771 1301.27 892.613 1294.6 947.423 1294.47C982.819 1294.38 1002.24 1291.82 1009.83 1286.25C1020.53 1278.39 1020.55 1277.67 1010.59 1260.72C1001.48 1245.21 1001.35 1243.28 1009.43 1243.28C1019.36 1243.28 1046.37 1218.83 1046.37 1209.84C1046.37 1206.76 1036.8 1203.46 1025.1 1202.49C1004.92 1200.82 1003.82 1199.71 1003.82 1180.94C1003.82 1164.9 1006.81 1159.74 1019.62 1153.59C1041.03 1143.33 1062.84 1151.21 1078.99 1175.06C1094.85 1198.46 1095.07 1209.86 1079.95 1223.85C1045.28 1255.9 1035.03 1268.15 1035.03 1277.48C1035.03 1284.19 1028.23 1290.03 1015.54 1294.22C1004.81 1297.76 995.244 1302.43 994.262 1304.59C990.405 1313.1 950.141 1339.73 941.132 1339.73C934.006 1339.73 932.27 1336.13 934.295 1325.55C937.177 1310.46 931.135 1308.19 905.991 1314.93C889.272 1319.41 877.55 1355.14 887.002 1372.81C892.324 1382.75 891.439 1386.87 881.976 1396.33C875.48 1402.83 870.3 1415.82 870.033 1426.25L869.574 1444.69L861.512 1426.25C857.075 1416.11 851.538 1407.83 849.206 1407.86C846.875 1407.88 839.165 1418.06 832.073 1430.48C811.53 1466.46 752.754 1525.5 709.864 1553.25C686.035 1568.66 646.481 1586.7 610.16 1598.71C577.045 1609.66 541.513 1625.05 531.193 1632.9L512.431 1647.17L492.898 1627.06C473.251 1606.83 468.531 1593.03 479.038 1586.53C482.158 1584.6 484.711 1578.07 484.711 1572.01C484.711 1565.95 487.367 1561 490.606 1561C493.845 1561 506.781 1550.82 519.341 1538.38C541.944 1516.01 542.171 1515.35 540.849 1477.39C539.527 1439.53 529.31 1401.93 520.459 1402.36C517.957 1402.48 510.809 1410.68 504.568 1420.59C498.327 1430.51 471.215 1453.61 444.312 1471.95C399.798 1502.28 394.318 1504.6 383.261 1497.69C376.578 1493.52 372.271 1487.54 373.695 1484.42C406.346 1412.56 407.072 1408.7 403.356 1326.76L399.804 1248.54L423.212 1214.25C449.565 1175.64 476.553 1103.63 482.385 1056.37C484.524 1039.03 491.031 1018.76 496.841 1011.32C502.65 1003.87 507.501 994.937 507.615 991.459C507.808 985.689 545.252 955.375 553.438 954.36C555.356 954.121 561.46 966.053 567.003 980.878ZM1290.33 1366.44C1290.33 1380.76 1290.09 1380.68 1277.32 1361.8C1254.34 1327.84 1253.92 1325.93 1272.28 1339C1284.55 1347.74 1290.33 1356.52 1290.33 1366.44ZM1051.29 1353.93C1044.83 1364.86 1036.99 1375.39 1033.85 1377.33C1025.57 1382.45 1034.45 1356.1 1045.08 1343.98C1059.91 1327.09 1063.61 1333.03 1051.29 1353.93ZM1111.69 1424.83C1106.03 1461.44 1104.09 1467.17 1103.67 1448.62C1103.16 1426.47 1113.6 1371.01 1117.54 1374.97C1118.43 1375.87 1115.8 1398.31 1111.69 1424.83ZM1221.24 1444.69L1221.11 1467.38L1216.67 1447.53C1214.23 1436.61 1210.86 1416.18 1209.19 1402.14L1206.13 1376.61L1213.75 1399.3C1217.95 1411.78 1221.32 1432.21 1221.24 1444.69ZM1009.5 1430.51C1011.42 1433.63 1010.45 1436.18 1007.33 1436.18C1004.21 1436.18 1000.08 1433.63 998.149 1430.51C996.22 1427.39 997.196 1424.83 1000.32 1424.83C1003.44 1424.83 1007.57 1427.39 1009.5 1430.51ZM410.958 1592.19C410.958 1597.55 382.676 1597.77 380.628 1592.43C378.943 1588.04 383.601 1586.64 394.528 1588.24C403.566 1589.57 410.958 1591.34 410.958 1592.19ZM1938.61 1593.09C1934.77 1594.64 1927.11 1594.74 1921.59 1593.3C1916.07 1591.86 1919.22 1590.59 1928.58 1590.47C1937.94 1590.36 1942.45 1591.53 1938.61 1593.09ZM538.2 1760.63C557.296 1782.95 563.106 1804.68 550.301 1805.93C547.373 1806.21 529.718 1784.44 511.075 1757.54C477.75 1709.47 477.353 1708.43 487.656 1697.04C498.072 1685.53 498.197 1685.62 507.813 1710.94C513.135 1724.96 526.808 1747.32 538.2 1760.63ZM1812.05 1759.45C1787.69 1795.32 1774.93 1809.6 1770.87 1805.54C1763.84 1798.51 1781.12 1756.18 1792.86 1751.68C1800.36 1748.8 1823.62 1703.36 1823.62 1691.58C1823.62 1688.16 1828.96 1690.35 1835.48 1696.43L1847.35 1707.48L1812.05 1759.45ZM461.071 1818.88C473.847 1837.45 483.236 1853.71 481.937 1855.02C474.386 1862.56 451.738 1848.18 443.296 1830.47C435.194 1813.48 429.152 1775.29 435.745 1782.74C436.896 1784.04 448.294 1800.3 461.071 1818.88ZM1877.86 1833.83C1868.97 1847.26 1858.72 1856.02 1851.91 1856.02C1845.71 1856.02 1840.64 1854.86 1840.64 1853.44C1840.64 1850.56 1860.08 1821.55 1877.52 1798.41L1888.86 1783.36L1890.71 1797.49C1891.78 1805.76 1886.45 1820.84 1877.86 1833.83ZM762.705 1866.68C762.705 1879.53 759.023 1884.54 745.441 1890.17C719.718 1900.82 694.625 1926.62 694.625 1942.41C694.625 1949.98 688.702 1961.73 681.463 1968.53L668.295 1980.9L656.642 1968.11C650.231 1961.07 642.022 1949.56 638.402 1942.54C632.275 1930.66 633.012 1929.78 649.04 1929.78C661.606 1929.78 666.298 1927.09 666.394 1919.85C666.485 1913.34 678.291 1904.36 700.661 1893.78C719.429 1884.9 738.809 1871.49 743.722 1863.99C755.659 1845.78 762.705 1846.77 762.705 1866.68ZM1626.13 1895.94C1640.76 1903.42 1653.93 1914.09 1655.38 1919.66C1657.21 1926.64 1663.52 1929.78 1675.71 1929.78H1693.39L1683.69 1945.38C1678.35 1953.96 1670.2 1965.49 1665.58 1971C1657.6 1980.51 1656.51 1980.39 1643.95 1968.59C1636.17 1961.28 1630.73 1949.59 1630.73 1940.17C1630.73 1927.97 1625.21 1920.18 1607.46 1907.32C1594.66 1898.05 1579.34 1888.92 1573.42 1887.05C1565.86 1884.65 1562.65 1878.33 1562.65 1865.87V1848.12L1581.08 1865.22C1591.23 1874.63 1611.49 1888.45 1626.13 1895.94ZM4070.26 1904.25V1924.6L4111.39 1922.94L4152.53 1921.27V1904.25V1887.23L4111.39 1885.56L4070.26 1883.89V1904.25ZM9176.27 1904.25C9176.27 1922.36 9174.83 1924.1 9159.86 1924.1C9150.12 1924.1 9142.04 1927.76 9140 1933.08C9138.1 1938.02 9136.55 2001.84 9136.55 2074.92V2207.78H9164.17H9191.79L9213.24 2147.59C9225.03 2114.47 9241.87 2069.16 9250.67 2046.88L9266.65 2006.37L9266.85 2107.08L9267.04 2207.78H9286.9H9306.75V2065.94V1924.1H9283.89C9267.04 1924.1 9260.22 1926.72 9257.99 1934.03C9256.33 1939.49 9251.31 1951.62 9246.85 1960.98C9242.38 1970.34 9234.99 1989.49 9230.43 2003.53C9210.15 2065.98 9183.46 2134.03 9179.25 2134.03C9177.61 2134.03 9176.27 2086.91 9176.27 2029.31V1924.6L9217.4 1922.94L9258.53 1921.27L9260.31 1902.83L9262.09 1884.39H9219.17H9176.27V1904.25ZM3316.24 1930.99C3276.27 1951.72 3267.48 1977.07 3267.48 2071.62C3267.48 2138.07 3269.04 2151.17 3279.22 2170.58C3296.78 2204.06 3315.93 2215.89 3352.58 2215.89C3389.51 2215.89 3409.56 2203.56 3426.34 2170.54C3442 2139.72 3442.92 2014.17 3427.77 1975.17C3409.16 1927.29 3360.52 1908.03 3316.24 1930.99ZM3525.62 1922.27C3503.22 1931.37 3483.4 1950.96 3472.64 1974.64C3463 1995.87 3460.77 2012.27 3460.59 2063.11C3460.26 2158.87 3476.65 2198.23 3523.26 2213.61C3550.07 2222.47 3582.74 2213.46 3599.05 2192.72C3612.87 2175.15 3623.44 2139.17 3620.98 2117.99C3619.52 2105.31 3616.44 2102.82 3602.21 2102.82C3588.24 2102.82 3584.93 2105.36 3583.7 2117.01C3580 2152.23 3570.49 2173.66 3557.06 2177.03C3515.87 2187.36 3502.95 2161.72 3502.94 2069.64C3502.92 1975.59 3518.37 1946.71 3559.54 1963.77C3575.48 1970.37 3582.13 1983.25 3582.28 2007.79C3582.34 2018.58 3585.42 2020.55 3602.21 2020.55C3620.63 2020.55 3622.07 2019.28 3622.07 2002.97C3622.07 1978.72 3606.82 1948.84 3587.38 1934.99C3570.17 1922.74 3539.84 1916.49 3525.62 1922.27ZM3695.73 1928.71C3681.9 1935.91 3671.09 1948.64 3659.72 1971.14C3644.49 2001.25 3643.49 2007.52 3643.71 2070.7C3644.04 2164.57 3660.63 2200.92 3709.06 2213.97C3726.96 2218.78 3736.35 2218.19 3755.02 2211.06C3784.63 2199.75 3798.16 2177.5 3802.15 2133.59L3805.19 2099.98H3787.49C3772.71 2099.98 3769.29 2102.55 3766.72 2115.59C3765.03 2124.17 3760.51 2141.4 3756.68 2153.88C3750.37 2174.45 3747.75 2176.74 3728.76 2178.32C3710.07 2179.87 3706.71 2178.02 3697.79 2161.3C3684.5 2136.37 3680.14 2027.96 3691.12 1995.23C3707.31 1946.92 3752.32 1946.69 3764.45 1994.84C3770.25 2017.89 3772.61 2020.55 3787.27 2020.55C3802.21 2020.55 3803.62 2018.82 3803.62 2000.41C3803.62 1972.97 3790.57 1949.91 3765.36 1932.78C3740.35 1915.79 3722.58 1914.75 3695.73 1928.71ZM4281.02 1928.05C4251.03 1942.83 4235.62 1971.64 4228.86 2025.59C4222.28 2078.02 4228.84 2145.78 4243.16 2173.47C4262.45 2210.77 4302.18 2226.14 4340.01 2210.95C4368.32 2199.59 4382.59 2175.46 4386.57 2132.19L4389.62 2099.14L4370.4 2100.98C4352.22 2102.72 4350.97 2104.25 4347.44 2129.08C4341.85 2168.53 4334.15 2179.41 4311.83 2179.41C4297.45 2179.41 4290.26 2175.62 4282.25 2163.81C4273.2 2150.47 4271.67 2136.98 4271.67 2070.63C4271.67 2000.13 4272.77 1991.58 4283.81 1977.02C4293.11 1964.73 4300.21 1961.19 4314.21 1961.88C4337.68 1963.05 4342.78 1968.6 4346.62 1997.17C4349.58 2019.32 4350.76 2020.55 4368.86 2020.55C4387.18 2020.55 4387.97 2019.67 4387.97 1999.18C4387.97 1972.03 4366.88 1940.19 4340.65 1927.75C4316.18 1916.14 4305.09 1916.2 4281.02 1928.05ZM7253.93 1930.37C7219.15 1946.68 7206.55 1976.89 7203.14 2052.12C7198.62 2151.96 7217.26 2199.48 7266.35 2213.22C7315.48 2226.98 7361.21 2199.57 7371.84 2150C7379.43 2114.61 7379.34 2025.54 7371.67 1992.19C7362.9 1953.98 7323.85 1918.12 7291.58 1918.64C7284.41 1918.75 7267.47 1924.04 7253.93 1930.37ZM7855.4 1927.97C7845.04 1933.08 7830.04 1945.81 7822.06 1956.27C7790.32 1997.88 7790.66 2144.78 7822.59 2186.65C7851.03 2223.94 7914.23 2226.82 7945.89 2192.27C7972.6 2163.11 7988.64 2062.41 7973.8 2017.15C7970.83 2008.1 7965.59 1989.7 7962.14 1976.27C7957.04 1956.34 7951.04 1948.76 7929.56 1935.13C7899.76 1916.24 7882.58 1914.58 7855.4 1927.97ZM8186.27 1931.03C8157.81 1947.37 8144.2 1974.35 8137.42 2027.83C8124.54 2129.46 8148.72 2199.53 8201.6 2213.76C8252.1 2227.36 8296.98 2196.82 8308.58 2140.96C8317.96 2095.74 8313.06 2001.07 8299.91 1973.43C8277.42 1926.18 8227.29 1907.47 8186.27 1931.03ZM8632.65 1927.97C8622.28 1933.08 8607.56 1945.46 8599.91 1955.48C8569.3 1995.61 8569.33 2139.13 8599.96 2185.41C8633.83 2236.59 8726.8 2221.71 8743.85 2162.39C8746.1 2154.59 8747.93 2110.97 8747.93 2065.45C8747.93 1983.8 8747.72 1982.38 8731.85 1959.48C8705.4 1921.34 8669.35 1909.89 8632.65 1927.97ZM8825.54 1927.97C8802.58 1939.29 8781.72 1965.98 8776.47 1990.77C8772.64 2008.8 8772.99 2009.21 8792.43 2009.21C8810.17 2009.21 8813.01 2007.05 8818.96 1989C8826.61 1965.83 8845.55 1955.64 8866.3 1963.52C8881.54 1969.32 8886.93 1979.99 8886.93 2004.37C8886.93 2033.03 8877.93 2043.25 8852.69 2043.25C8830.76 2043.25 8830.19 2043.75 8830.19 2063.11C8830.19 2082.43 8830.8 2082.96 8852.47 2082.96C8889.91 2082.96 8909.25 2120.74 8891.63 2159.43C8884.4 2175.28 8869.1 2181.35 8843.65 2178.44C8829.81 2176.86 8825.65 2172.11 8816.01 2146.85C8805.97 2120.55 8802.79 2117.12 8788.33 2117.07C8772.31 2117.01 8772.04 2117.52 8774.86 2142.5C8783.01 2214.87 8868.26 2242.82 8919.06 2189.79C8933.54 2174.67 8935.15 2169.1 8935.15 2133.97C8935.15 2097.56 8933.9 2093.65 8916.58 2075.78C8898.05 2056.67 8898.03 2056.58 8909.45 2046.24C8923.59 2033.44 8933.18 2000.61 8928.45 1981.19C8923.51 1960.93 8906.27 1940.03 8885.06 1928.6C8862.42 1916.41 8849.3 1916.26 8825.54 1927.97ZM9385.02 1931.45C9352.07 1951.06 9340.87 1976.83 9337.17 2041.58C9331.15 2146.89 9350.14 2199.46 9399.09 2213.02C9428 2221.04 9464.92 2210.85 9474.34 2192.26C9477.58 2185.86 9483.38 2176.83 9487.22 2172.2C9491.07 2167.57 9494.8 2150.07 9495.51 2133.3C9496.81 2102.88 9496.77 2102.82 9478.77 2101.07C9461.2 2099.37 9460.63 2100.04 9456.88 2126.6C9451.08 2167.73 9440.97 2180.43 9415.75 2178.32C9396.86 2176.74 9394.05 2174.23 9385.2 2151.05C9373.41 2120.15 9371.95 2022.46 9382.84 1992.19C9399.43 1946.06 9446.42 1949.09 9456.55 1996.95C9461.36 2019.68 9462.73 2021.04 9479.24 2019.43C9495.36 2017.86 9496.77 2016.07 9496.28 1997.71C9495.25 1959.39 9454.54 1917.97 9418.61 1918.68C9411.69 1918.82 9396.58 1924.56 9385.02 1931.45ZM3086.54 1933.08C3084.65 1938.02 3083.1 2001.84 3083.1 2074.92V2207.78H3102.96H3122.81V2151.05V2094.31H3154.58C3216.59 2094.31 3241.95 2069.07 3241.95 2007.39C3241.95 1969.85 3225.44 1942.45 3196.57 1932.09C3185.65 1928.17 3157.2 1924.77 3133.35 1924.54C3098.77 1924.19 3089.29 1925.92 3086.54 1933.08ZM3831.98 2065.59V2207.78H3856.85C3875.56 2207.78 3882.49 2205.33 3884.85 2197.85C3891.34 2177.21 3917.88 2107.78 3925.82 2090.62C3930.37 2080.79 3934.14 2069.3 3934.18 2065.09C3934.22 2060.88 3940.39 2044.67 3947.91 2029.07L3961.57 2000.7L3962.02 2106.1L3962.47 2211.49L3979.49 2208.99L3996.51 2206.49V2064.97V1923.45L3973.32 1925.2L3950.13 1926.94L3933.33 1972.33C3924.09 1997.29 3910.27 2033.72 3902.62 2053.29C3894.97 2072.85 3888.72 2091.2 3888.72 2094.06C3888.72 2096.91 3885.53 2106.44 3881.62 2115.22C3875.52 2128.97 3874.14 2117.01 3871.7 2029.07L3868.86 1926.94L3850.42 1925.17L3831.98 1923.38V2065.59ZM4034.59 1927.63C4032.37 1929.85 4030.55 1993.79 4030.55 2069.73V2207.78H4058.08H4085.61L4097.48 2172.32C4104.01 2152.82 4116.05 2118.99 4124.24 2097.15C4132.42 2075.3 4143.86 2044.67 4149.66 2029.07L4160.21 2000.7L4160.62 2104.24L4161.04 2207.78H4180.99H4200.95L4199.43 2067.36L4197.91 1926.94L4177.57 1925.23C4165.72 1924.24 4154.85 1926.61 4151.53 1930.91C4148.39 1934.97 4133.99 1971.48 4119.52 2012.04C4105.05 2052.61 4088.2 2098.57 4082.07 2114.17L4070.93 2142.54L4069.18 2034.74L4067.43 1926.94L4053.03 1925.26C4045.11 1924.34 4036.81 1925.4 4034.59 1927.63ZM4414.11 1933.08C4412.21 1938.02 4410.66 2001.84 4410.66 2074.92V2207.78H4430.52H4450.38V2159.87C4450.38 2118.24 4452.06 2110 4463.26 2096.99L4476.14 2082.01L4507.15 2144.43C4537.1 2204.7 4538.85 2206.91 4558.1 2208.74C4606.84 2213.34 4611.38 2210.67 4622.85 2170.64L4633.33 2134.03H4668.66H4703.99L4713.82 2170.34C4723.23 2205.09 4724.48 2206.75 4743.03 2208.92C4780.25 2213.26 4801.92 2207.74 4805.62 2192.97C4807.5 2185.51 4811.13 2179.41 4813.7 2179.41C4816.27 2179.41 4820.03 2173.67 4822.06 2166.65C4824.08 2159.63 4832.33 2140.48 4840.39 2124.1C4851.83 2100.84 4857.94 2094.31 4868.3 2094.31C4881.3 2094.31 4881.55 2095.37 4881.55 2151.05V2207.78H4901.5H4921.46L4919.94 2067.36L4918.43 1926.94L4878.3 1925.3C4804 1922.24 4768.08 1949.41 4768.08 2008.66C4768.08 2039.49 4776.79 2060.49 4796.54 2077.29L4813.21 2091.47L4788.82 2142.54C4762.26 2198.15 4757.35 2198.84 4748.66 2148.21C4744.57 2124.33 4724.92 2048.64 4703 1972.33L4689.97 1926.94H4668.41C4647.66 1926.94 4646.59 1927.9 4639.97 1952.47C4636.18 1966.51 4625.12 2007.36 4615.39 2043.25C4605.64 2079.13 4593.62 2125.73 4588.65 2146.79C4583.69 2167.85 4577.69 2185.09 4575.32 2185.09C4572.95 2185.09 4554.99 2153.71 4535.4 2115.35L4499.8 2045.61L4540.1 1989.62C4562.27 1958.82 4579.08 1931.48 4577.46 1928.86C4575.84 1926.24 4567.22 1924.1 4558.31 1924.1C4540.3 1924.1 4529.22 1936.33 4481.23 2009.21L4453.21 2051.76L4451.61 1987.93L4450 1924.1H4433.78C4424.22 1924.1 4416.14 1927.79 4414.11 1933.08ZM5081.76 1931.2C5078.78 1935.1 5061.71 1994.46 5043.82 2063.11C5025.94 2131.76 5010.02 2192.4 5008.45 2197.85C5006.08 2206.1 5009.35 2207.78 5027.69 2207.78H5049.78L5057.97 2172.32L5066.16 2136.86H5102.81H5139.46L5147.65 2172.32L5155.84 2207.78H5177.55C5189.49 2207.78 5199.26 2206.78 5199.26 2205.57C5199.26 2202.96 5132.33 1948.6 5127.82 1934.03C5124.15 1922.22 5090.22 1920.12 5081.76 1931.2ZM5214.65 1927.63C5212.42 1929.85 5210.6 1993.79 5210.6 2069.73V2207.78H5230.46H5250.32L5250.44 2158.14C5250.54 2118.47 5252.71 2105.72 5261.18 2094.69L5271.8 2080.88L5290.55 2117.38C5300.85 2137.46 5314.91 2165.7 5321.78 2180.15C5332.68 2203.1 5336.84 2206.7 5354.7 2208.79C5385.64 2212.41 5414.84 2207.62 5414.84 2198.93C5414.84 2194.74 5417.63 2178.32 5421.04 2162.43L5427.23 2133.53L5464.97 2135.19L5502.7 2136.86L5510.32 2172.32C5517.52 2205.79 5518.86 2207.78 5534.19 2207.78C5549.99 2207.78 5550.48 2208.68 5552.14 2240.4C5553.81 2272.49 5554.12 2273.03 5570.86 2273.03C5587.61 2273.03 5587.91 2272.51 5589.59 2240.23L5591.3 2207.42L5657.67 2209.02L5724.04 2210.62L5725.75 2243.58L5727.46 2276.54L5745.61 2274.79L5763.75 2273.03L5765.41 2225.75C5766.93 2182.35 5766.13 2178.23 5755.59 2175.48C5744.58 2172.59 5744.05 2167.51 5742.59 2049.71L5741.06 1926.94H5670.14H5599.23L5595.79 2023.39C5593.91 2076.44 5590.47 2124.95 5588.17 2131.19C5585.87 2137.43 5581.36 2149.55 5578.15 2158.14C5569.16 2182.19 5554.02 2178.09 5546.78 2149.63C5543.4 2136.37 5533.75 2099.98 5525.33 2068.78C5516.91 2037.58 5506.35 1995.56 5501.86 1975.41C5491.91 1930.71 5486.85 1924.1 5462.53 1924.1C5441.22 1924.1 5446.35 1912.01 5411.97 2043.25C5403.39 2076.01 5391.04 2121.51 5384.54 2144.35C5370.59 2193.38 5372.79 2194.87 5327.13 2105.61L5296.62 2045.96L5336.52 1990.21C5377.98 1932.28 5380.08 1921.48 5349.21 1925.08C5332.72 1927 5318.47 1944.55 5273.01 2018.81L5253.15 2051.25L5250.32 1989.1C5247.51 1927.63 5247.32 1926.92 5233.09 1925.26C5225.17 1924.34 5216.87 1925.4 5214.65 1927.63ZM5777.64 1926.29C5776.24 1927.68 5775.83 1991.58 5776.71 2068.3L5778.32 2207.78H5846.21H5914.1V2190.76V2173.74H5865.87H5817.65V2128.35V2082.96H5863.04H5908.42V2063.11V2043.25H5863.04H5817.65V2003.53V1963.82H5866.23H5914.82L5913.04 1945.38L5911.26 1926.94L5845.72 1925.35C5809.66 1924.48 5779.03 1924.9 5777.64 1926.29ZM5940.84 1927.63C5938.61 1929.85 5936.79 1993.79 5936.79 2069.73V2207.78H5956.65H5976.5L5976.92 2109.91L5977.33 2012.04L5993.88 2077.29C6002.97 2113.18 6013.35 2157.34 6016.95 2175.45L6023.48 2208.35L6046.67 2206.65L6069.86 2204.95L6096.33 2097.15L6122.79 1989.35L6123.4 2100.42L6124.01 2211.49L6141.03 2208.99L6158.05 2206.49V2065.3V1924.1H6129.79C6103.58 1924.1 6101.28 1925.23 6098.08 1939.71C6096.19 1948.29 6091.2 1966.8 6087 1980.84C6082.81 1994.88 6075.42 2025.52 6070.58 2048.92C6065.76 2072.33 6058.55 2103.67 6054.56 2118.58L6047.32 2145.69L6021.84 2036.32L5996.36 1926.94L5970.62 1925.26C5956.46 1924.34 5943.06 1925.4 5940.84 1927.63ZM6196.14 1927.63C6193.91 1929.85 6192.09 1993.93 6192.09 2070.03V2208.41L6219.04 2206.68L6245.99 2204.95L6255.86 2173.74C6261.29 2156.58 6268.31 2137.43 6271.46 2131.19C6274.61 2124.95 6282.51 2104.52 6289.02 2085.8C6295.53 2067.08 6305.56 2038.99 6311.32 2023.39L6321.78 1995.02L6322.18 2101.4L6322.58 2207.78H6342.53H6362.49L6360.97 2067.36L6359.45 1926.94L6336.22 1925.24C6313.53 1923.58 6312.78 1924.11 6304.02 1947.93C6277.38 2020.4 6254.49 2083.53 6245.16 2110.23L6234.64 2140.32L6231.8 2033.63L6228.97 1926.94L6214.57 1925.26C6206.65 1924.34 6198.35 1925.4 6196.14 1927.63ZM6431.22 1933.61C6411.33 1940.73 6404.46 1947.01 6395.88 1965.9C6377.34 2006.73 6385.18 2050.9 6416.05 2079.5L6430.68 2093.06L6405.02 2146.16C6390.91 2175.37 6379.36 2201.18 6379.34 2203.53C6379.32 2205.87 6388.04 2207.78 6398.7 2207.78C6417.08 2207.78 6419 2205.8 6435.96 2169.49C6445.79 2148.43 6456.29 2127.36 6459.29 2122.68C6462.29 2118 6466.24 2109.7 6468.08 2104.24C6470.01 2098.49 6477.1 2094.31 6484.93 2094.31C6498.28 2094.31 6498.45 2095.05 6498.45 2151.05V2207.78H6518.4H6538.36L6536.84 2067.36L6535.33 1926.94L6495.61 1925.86C6471.34 1925.19 6446.31 1928.21 6431.22 1933.61ZM6650 1927.63C6645.51 1932.12 6644.31 2204.24 6648.76 2208.7C6650.3 2210.24 6659.24 2210.37 6668.62 2209L6685.67 2206.49V2144.73V2082.96H6728.22H6770.77V2145.37V2207.78H6790.72H6810.68L6809.16 2067.36L6807.65 1926.94H6790.63H6773.61L6771.99 1985.1L6770.38 2043.25H6728.22H6686.07L6684.45 1985.1C6682.85 1927.55 6682.68 1926.92 6668.44 1925.26C6660.52 1924.34 6652.22 1925.4 6650 1927.63ZM6897.74 1928.45C6894.23 1930.74 6887.42 1949.21 6882.59 1969.49C6872.24 2012.99 6850.26 2097.02 6833.65 2156.61C6827.15 2179.95 6821.83 2201.17 6821.83 2203.75C6821.83 2206.35 6831.37 2207.67 6843.02 2206.7C6864.06 2204.96 6864.28 2204.68 6872.43 2169.25L6880.65 2133.55L6917.45 2135.21C6957.95 2137.03 6958.03 2137.12 6966.29 2186.51C6969.69 2206.81 6970.86 2207.78 6991.76 2207.78C7011.61 2207.78 7013.37 2206.58 7010.57 2195.02C7008.87 2188 6992.51 2125.16 6974.22 2055.39C6955.94 1985.62 6940.97 1927.54 6940.97 1926.32C6940.97 1922.36 6904.27 1924.16 6897.74 1928.45ZM7023.84 1933.08C7021.95 1938.02 7020.4 2001.84 7020.4 2074.92V2207.78H7043.09H7065.79V2151.7V2095.63L7101.64 2093.35C7128.03 2091.67 7141.89 2087.63 7154.12 2078.04C7175.73 2061.1 7178.38 2053.61 7178.86 2008.11C7179.32 1963.39 7167.65 1944.92 7130.8 1932.09C7098.28 1920.78 7028.31 1921.42 7023.84 1933.08ZM7432.83 1927.72C7430.66 1929.89 7428.83 1962.52 7428.77 2000.23C7428.58 2110.31 7416.8 2169.64 7393.91 2175.63C7384.09 2178.19 7383.18 2183.14 7384.67 2225.75L7386.33 2273.03L7404.47 2274.79L7422.62 2276.54L7424.33 2243.58L7426.04 2210.62H7491.29H7556.53L7558.23 2243.24C7559.9 2275.2 7560.27 2275.86 7576.67 2275.86H7593.41V2224.8C7593.41 2183.49 7591.8 2173.74 7585.01 2173.74C7577.89 2173.74 7576.37 2154.84 7575.08 2050.34L7573.55 1926.94L7505.16 1925.36C7467.55 1924.48 7435 1925.55 7432.83 1927.72ZM7610.43 2065.94V2207.78H7627.45H7644.47V2145.13V2082.49L7688.43 2084.14L7732.4 2085.8L7734.01 2146.79L7735.62 2207.78H7755.39H7775.15L7773.63 2067.36L7772.12 1926.94H7755.1H7738.08L7736.46 1985.1L7734.84 2043.25H7689.65H7644.47V1983.68V1924.1H7627.45H7610.43V2065.94ZM8005.85 1927.71C8003.67 1929.89 8001.89 1993.79 8001.89 2069.73V2207.78H8021.74H8041.6V2085.8V1963.82H8087.34H8133.09L8131.31 1945.38L8129.54 1926.94L8069.67 1925.34C8036.75 1924.46 8008.03 1925.53 8005.85 1927.71ZM8397.87 1927.15C8393.93 1931.08 8432.55 2010.89 8439.86 2013.93C8442.36 2014.98 8444.41 2018.42 8444.41 2021.59C8444.41 2024.76 8448.47 2035.91 8453.43 2046.37C8462.29 2065.05 8462.05 2066.23 8439.25 2113.11C8426.48 2139.36 8416.04 2163.43 8416.04 2166.6C8416.04 2169.76 8412.49 2175.3 8408.14 2178.9C8403.8 2182.51 8398.94 2190.48 8397.33 2196.62C8394.81 2206.25 8397.32 2207.78 8415.58 2207.78C8436.74 2207.78 8436.75 2207.77 8460.6 2155.86C8482.71 2107.71 8485.04 2104.72 8492.61 2114.72C8497.11 2120.66 8500.86 2128.67 8500.96 2132.52C8501.06 2136.38 8509.19 2154.89 8519.03 2173.66C8535.46 2205.01 8538.45 2207.78 8555.91 2207.78C8566.35 2207.78 8574.83 2205.87 8574.74 2203.53C8574.66 2201.18 8559.63 2169.13 8541.35 2132.28L8508.11 2065.29L8542.04 1999.78C8576.88 1932.53 8578.3 1921.24 8551.46 1925.04C8542.74 1926.28 8533.68 1934.87 8525.51 1949.64C8509.25 1979.01 8495.47 2009.26 8495.47 2015.57C8495.47 2018.31 8492.28 2020.54 8488.38 2020.51C8484.48 2020.49 8471.07 1999.43 8458.59 1973.7C8438.22 1931.73 8434.13 1926.77 8418.67 1925.26C8409.2 1924.33 8399.84 1925.18 8397.87 1927.15ZM8996.48 1935.36C8963.64 1950.12 8953.12 1972.06 8956.15 2019.54C8958.32 2053.55 8960.1 2057.84 8978.77 2073.98L8999.04 2091.51L8985.09 2119.86C8977.42 2135.45 8965.1 2161.61 8957.71 2178L8944.29 2207.78H8965.44H8986.59L9014.29 2151.05C9037.61 2103.32 9044.1 2094.31 9055.24 2094.31C9068.22 2094.31 9068.47 2095.39 9068.47 2151.05V2207.78H9088.43H9108.39L9106.87 2067.36L9105.35 1926.94L9062.8 1925.81C9031.43 1924.97 9014.01 1927.48 8996.48 1935.36ZM9503.58 1927.74C9501.42 1929.9 9499.65 1938.9 9499.65 1947.75C9499.65 1963.61 9500.09 1963.82 9533.69 1963.82H9567.73V2085.8V2207.78H9587.58H9607.44V2085.8V1963.82H9639H9670.57L9668.79 1945.38L9667.01 1926.94L9587.26 1925.38C9543.4 1924.51 9505.74 1925.57 9503.58 1927.74ZM9684.98 1927.89C9682.9 1929.97 9681.2 1993.79 9681.2 2069.73V2207.78L9719.49 2208.64C9776.06 2209.9 9789.96 2207.86 9806.89 2195.8C9838.66 2173.18 9843.85 2101.21 9815.73 2073.09L9801.2 2058.55L9812.99 2049.01C9831.72 2033.84 9833.63 1983.73 9816.44 1958.61C9809.05 1947.8 9794.38 1936.06 9783.32 1932.09C9762.26 1924.54 9691.36 1921.51 9684.98 1927.89ZM9915.55 1930.91C9912.38 1934.97 9907 1951.05 9903.61 1966.66C9900.22 1982.26 9891.02 2019.28 9883.17 2048.92C9875.31 2078.57 9862.67 2126.44 9855.07 2155.3L9841.24 2207.78H9863.34C9877.84 2207.78 9885.44 2205.21 9885.44 2200.3C9885.44 2196.19 9889.36 2179.59 9894.17 2163.43L9902.89 2134.03H9936.02C9955.68 2134.03 9971.48 2136.91 9974.88 2141.12C9978.03 2145.02 9982.42 2161.61 9984.62 2178L9988.62 2207.78H10010.8C10023 2207.78 10032.9 2206.97 10032.9 2205.98C10032.9 2204.3 10016.1 2138.41 9977.59 1989.35L9961.47 1926.94L9941.4 1925.23C9929.8 1924.25 9918.9 1926.64 9915.55 1930.91ZM3382.48 1973.65C3396.28 1992.17 3401.98 2029.37 3399.85 2086.95C3397.22 2158.01 3387.42 2176.58 3352.58 2176.58C3319.2 2176.58 3309.15 2158.73 3305.73 2093.35C3302.34 2028.43 3311.36 1978.93 3328.86 1966.41C3343.76 1955.75 3372 1959.57 3382.48 1973.65ZM7318.92 1971.29C7339.29 1992.85 7346.13 2109.52 7329.37 2149.61C7318.73 2175.09 7312.75 2179.22 7286.27 2179.33C7268.53 2179.4 7264.43 2176.84 7256.95 2160.98C7244.25 2134.03 7234.68 2073.76 7238.83 2046.8C7245.52 2003.38 7259.28 1968.93 7272.03 1963.66C7286.21 1957.79 7309.8 1961.63 7318.92 1971.29ZM7905.75 1963.99C7928.23 1976.02 7935.8 2002.42 7935.89 2069.17C7936.03 2161.34 7918.34 2189.58 7868.32 2177.03C7859.67 2174.85 7852.76 2166.55 7847.87 2152.46C7837.96 2123.96 7837.95 2018.39 7847.85 1990.38C7857.77 1962.34 7882.03 1951.29 7905.75 1963.99ZM8240.48 1963.99C8258.47 1973.62 8269.55 2002.75 8272.6 2048.38C8275.92 2098.19 8267.08 2154 8253.49 2169.02C8247.57 2175.56 8236.23 2179.41 8222.92 2179.41C8189.8 2179.41 8181.44 2161.98 8178.72 2087.2C8176.04 2013.34 8179.97 1989.46 8197.74 1971.69C8212.47 1956.95 8223.59 1954.95 8240.48 1963.99ZM8679.21 1963.58C8705.49 1973.57 8713.64 1999.14 8713.66 2071.65C8713.69 2130 8712.3 2139.19 8700.56 2158.17C8689.07 2176.76 8684.71 2179.41 8665.59 2179.41C8631.64 2179.41 8618.66 2157.1 8615.62 2093.51C8612.33 2024.73 8617.48 1996.39 8637.04 1975.44C8654.73 1956.51 8658.11 1955.55 8679.21 1963.58ZM3191.55 1974.56C3201.66 1982.75 3204.82 1991 3204.82 2009.21C3204.82 2041.14 3188.73 2054.6 3150.55 2054.6H3122.81V2009.21V1963.82H3150.55C3169.32 1963.82 3182.58 1967.3 3191.55 1974.56ZM4881.55 2009.21V2054.6H4857.29C4821.43 2054.6 4807.8 2042.68 4807.8 2011.32C4807.8 1975.92 4819.84 1965.12 4860.27 1964.27L4881.55 1963.82V2009.21ZM5704.18 2068.78V2173.74H5658.8C5633.83 2173.74 5613.41 2172.78 5613.41 2171.6C5613.41 2170.42 5617.65 2159.57 5622.83 2147.48C5629.58 2131.76 5633.01 2102.55 5634.9 2044.67L5637.53 1963.82H5670.86H5704.18V2068.78ZM6498.45 2009.93V2056.04L6470.27 2053.33C6433.29 2049.78 6424.7 2041.94 6424.7 2011.76C6424.7 1981.1 6443.38 1963.82 6476.52 1963.82H6498.45V2009.93ZM7128.98 1974.67C7139.77 1983.4 7142.27 1990.63 7141.82 2011.81C7141.52 2026.27 7138.42 2040.96 7134.93 2044.45C7131.44 2047.94 7114.46 2051.96 7097.19 2053.4L7065.79 2056V2009.91V1963.82H7090.69C7106.75 1963.82 7120.34 1967.67 7128.98 1974.67ZM7536.67 2068.78V2173.74H7494.12C7446.23 2173.74 7447.96 2176.19 7460.2 2125.52C7464.83 2106.33 7468.46 2063.61 7468.5 2027.65L7468.59 1963.82H7502.63H7536.67V2068.78ZM9068.47 2009.21V2054.6H9042.94C9010.11 2054.6 8994.72 2040.45 8994.72 2010.29C8994.72 1976.39 9007.59 1965.1 9047.2 1964.27L9068.47 1963.82V2009.21ZM9777.64 1975.17C9791.22 1988.74 9792.32 2013.26 9780.16 2030.64C9773.28 2040.45 9765.73 2043.25 9746.12 2043.25H9720.91V2003.53V1963.82H9743.6C9758.73 1963.82 9770.08 1967.6 9777.64 1975.17ZM603.852 2017.96C603.852 2021.46 597.469 2027.73 589.668 2031.9C577.731 2038.29 573.011 2038.22 559.883 2031.45C551.299 2027.03 542.404 2020.85 540.112 2017.73C532.526 2007.39 535.613 1998.88 545.966 2001.59C552.82 2003.38 558.822 1999.28 564.274 1989.1L572.393 1973.93L588.119 1992.77C596.771 2003.14 603.852 2014.47 603.852 2017.96ZM1776.34 1999.49C1785.8 1998.51 1787.44 2000.85 1785.26 2012.26C1783.79 2019.94 1779.36 2026.23 1775.43 2026.23C1771.49 2026.23 1765.16 2029.99 1761.34 2034.59C1755.23 2041.94 1752.46 2041.95 1738.31 2034.63C1714.91 2022.53 1714.51 2019.06 1733.83 1995.63L1751.3 1974.44L1758.02 1987.57C1762.19 1995.7 1769.16 2000.24 1776.34 1999.49ZM4683.33 2038.85C4689.38 2062.94 4694.33 2085.28 4694.33 2088.49C4694.33 2091.69 4682.84 2094.31 4668.8 2094.31C4639.76 2094.31 4637.63 2089.14 4650.97 2051.06C4655.21 2038.96 4660.74 2016.3 4663.27 2000.7C4665.8 1985.04 4668.86 1977.41 4670.09 1983.68C4671.32 1989.92 4677.28 2014.75 4683.33 2038.85ZM5479.53 2039.6C5484.51 2064.12 5488.6 2086.46 5488.6 2089.24C5488.6 2092.03 5478.39 2094.31 5465.9 2094.31C5445.35 2094.31 5443.21 2092.94 5443.21 2079.83C5443.21 2055.61 5461.09 1985.08 5465.92 1990.21C5468.41 1992.86 5474.53 2015.09 5479.53 2039.6ZM6926.24 2016.3C6930.81 2032.68 6936.21 2056.94 6938.25 2070.2L6941.97 2094.31H6915.33C6896.37 2094.31 6889.47 2092.27 6891.39 2087.22C6892.87 2083.32 6898.61 2059.07 6904.16 2033.32C6909.71 2007.57 6915.08 1986.51 6916.11 1986.51C6917.13 1986.51 6921.69 1999.91 6926.24 2016.3ZM5115.63 2036.16C5129.04 2095.83 5129.42 2094.31 5100.95 2094.31H5076.39L5087.91 2043.25C5094.24 2015.17 5100.85 1992.19 5102.59 1992.19C5104.32 1992.19 5110.2 2011.97 5115.63 2036.16ZM9949.49 2028.58C9954.83 2048.59 9959.19 2071.57 9959.19 2079.64C9959.19 2092.97 9957.12 2094.31 9936.5 2094.31C9922.12 2094.31 9913.8 2091.71 9913.8 2087.22C9913.8 2074.13 9933.52 1992.19 9936.68 1992.19C9938.39 1992.19 9944.16 2008.56 9949.49 2028.58ZM762.705 2072.1V2123.64L731.502 2077.29C714.34 2051.79 700.298 2029.85 700.298 2028.53C700.298 2027.22 705.268 2029.24 711.339 2033.03C720.268 2038.6 725.97 2038.14 741.124 2030.6C751.432 2025.47 760.509 2021.12 761.287 2020.92C762.064 2020.72 762.705 2043.75 762.705 2072.1ZM1601.03 2037.58C1606.75 2037.58 1614.5 2034.51 1618.24 2030.77C1637.64 2011.37 1608.59 2059.15 1573.11 2105.01C1562.7 2118.46 1562.65 2118.25 1562.65 2068.89V2019.25L1576.63 2028.41C1584.32 2033.45 1595.3 2037.58 1601.03 2037.58ZM659.552 2090.21C666.78 2100.27 686.784 2127.64 704.003 2151.05C748.017 2210.87 748.3 2211.57 730.736 2215.98C718.498 2219.05 711.946 2215.55 691.947 2195.29C678.717 2181.88 654.758 2161.97 638.714 2151.05C622.676 2140.13 609.542 2129.5 609.536 2127.44C609.531 2125.37 617.462 2117.01 627.163 2108.84C639.401 2098.55 643.911 2090.57 641.88 2082.8C637.602 2066.45 644.563 2069.37 659.552 2090.21ZM1700.16 2114.44C1709.87 2122.6 1715.42 2131 1712.5 2133.08C1709.57 2135.16 1697 2143.57 1684.55 2151.77C1672.11 2159.97 1650.44 2178.46 1636.4 2192.86C1610.94 2218.98 1600.7 2223.3 1586.17 2214.09C1580.11 2210.24 1582.5 2203.39 1597.54 2181.55C1621.16 2147.25 1648.28 2110.93 1657.71 2100.96C1661.63 2096.82 1667.99 2087.88 1671.86 2081.1C1678.78 2068.93 1678.89 2068.97 1680.69 2084.18C1681.71 2092.89 1690.18 2106.03 1700.16 2114.44ZM9784.29 2092.35C9791.49 2098.87 9794.66 2109.77 9794.66 2127.97C9794.66 2161.54 9781.79 2173.74 9746.38 2173.74H9720.91V2128.35V2082.96H9747.41C9764.11 2082.96 9777.75 2086.44 9784.29 2092.35ZM1098.09 2153.88C1098.94 2169.58 1111.93 2173.74 1160.07 2173.74C1217.92 2173.74 1227.92 2171.05 1227.92 2155.47C1227.92 2145.13 1230.4 2144.44 1254.87 2147.9C1269.69 2150 1300.96 2156.51 1324.37 2162.37C1347.77 2168.21 1374.57 2174.81 1383.94 2177.03C1399.61 2180.72 1399.96 2181.31 1388.38 2184.49C1367.05 2190.32 1323.63 2230.9 1312.5 2255.41C1306.68 2268.22 1301.87 2291 1301.8 2306.03C1301.69 2329.35 1300.21 2332.94 1291.74 2330.49C1270.91 2324.45 1131.92 2321.15 1079.66 2325.45L1025.01 2329.94L1022.09 2297.67C1018.48 2257.82 995.862 2222.4 958.021 2197.34C933.558 2181.13 932.656 2179.71 945.086 2176.82C952.427 2175.11 983.965 2167.44 1015.17 2159.79C1073.17 2145.56 1097.55 2143.82 1098.09 2153.88ZM908.765 2273.42C924.293 2283.59 944.201 2314.19 944.229 2327.93C944.269 2344.65 900.193 2322.36 884.313 2297.62C876.966 2286.18 868.303 2275.18 865.058 2273.17C861.807 2271.16 859.152 2266.8 859.152 2263.47C859.152 2255.51 891.246 2261.94 908.765 2273.42ZM1446.17 2288.24C1432.96 2307.43 1418.16 2321.13 1403.52 2327.68L1381.1 2337.72V2323.83C1381.1 2307.01 1416.42 2266.2 1433.92 2262.8C1466.76 2256.42 1467.29 2257.53 1446.17 2288.24ZM7740.91 2318.42V2338.27H7780.63H7820.34V2318.42V2298.56H7780.63H7740.91V2318.42ZM3884.99 2346.2C3874.22 2351.07 3860.76 2365.09 3851.23 2381.36C3836.88 2405.85 3835.14 2414.68 3833.05 2474.05C3830.19 2555.05 3836.78 2582.7 3865.9 2611.82C3885.3 2631.22 3890.26 2633.3 3917.16 2633.3C3976.67 2633.3 4005.86 2595.9 4011.73 2512.12C4016.79 2440.01 3999.22 2377.3 3967.37 2353.75C3948.02 2339.45 3908.02 2335.78 3884.99 2346.2ZM4189.32 2351.04C4158.86 2371.74 4148.13 2399.54 4145.2 2465.36C4141.66 2545 4150.49 2584.37 4178.07 2611.95C4197.1 2630.98 4202.51 2633.3 4228.02 2633.3C4265.79 2633.3 4287.99 2615.34 4299.94 2575.1C4313.79 2528.46 4312.08 2519.83 4288.94 2519.83C4270.67 2519.83 4269.12 2521.26 4266.03 2541.1C4260.38 2577.49 4250.92 2590.55 4228.89 2592.43C4211.85 2593.88 4207.65 2591.57 4197.87 2575.41C4188.16 2559.34 4186.57 2546.58 4186.57 2484.78C4186.57 2420.6 4187.85 2411.14 4198.47 2396.84C4221.5 2365.86 4259.12 2376.26 4266.51 2415.64C4269.77 2433.01 4271.89 2434.72 4290.06 2434.72C4309.68 2434.72 4309.97 2434.38 4306.83 2415.01C4296.35 2350.44 4237.42 2318.35 4189.32 2351.04ZM5670.36 2347.89C5657.41 2354.64 5645.81 2367.74 5636.32 2386.34C5623.27 2411.91 5621.92 2420.92 5621.92 2482.79C5621.92 2590.32 5645.56 2633.3 5704.7 2633.3C5728.46 2633.3 5735.73 2630.49 5752.56 2614.86C5768.31 2600.21 5773.61 2589.7 5778.3 2563.74C5785.18 2525.67 5782.92 2519.83 5761.35 2519.83C5746.71 2519.83 5745.15 2521.94 5741.8 2546.36C5737.49 2577.87 5725.03 2593.58 5704.39 2593.58C5677.77 2593.58 5669.84 2582.45 5663.85 2536.65C5656.27 2478.74 5662.4 2410.52 5676.82 2392.19C5698.77 2364.28 5743.9 2383.86 5743.9 2421.31C5743.9 2432.86 5746.66 2434.72 5763.75 2434.72C5785.86 2434.72 5787.66 2429.66 5777.94 2394.69C5765.14 2348.61 5712.73 2325.81 5670.36 2347.89ZM7440.23 2344.34C7398.59 2361.84 7383.37 2401.38 7383.74 2491.07C7384.17 2594.47 7407.67 2633.3 7469.81 2633.3C7538.59 2633.3 7562.82 2588.38 7558.27 2469.25C7555.74 2403.16 7543.87 2369.67 7516.66 2351.83C7499.07 2340.31 7459.15 2336.4 7440.23 2344.34ZM8245.57 2351.06C8208.79 2375.84 8203.29 2393.37 8203.29 2485.79C8203.29 2560.34 8204.49 2570.3 8216.11 2592.05C8231.38 2620.62 8253.27 2633.3 8287.34 2633.3C8329.78 2633.3 8352.67 2606.51 8361.7 2546.32L8365.79 2519.09L8344.15 2520.88C8322.95 2522.63 8322.43 2523.23 8318.64 2549.94C8313.81 2584.01 8306.03 2593.58 8283.24 2593.58C8269.08 2593.58 8262.96 2589.71 8254.16 2575.14C8244.65 2559.42 8243 2546.25 8243 2485.79C8243 2425.32 8244.65 2412.15 8254.16 2396.43C8262.92 2381.93 8269.1 2377.99 8283.06 2377.99C8301.82 2377.99 8319.59 2392.47 8319.59 2407.76C8319.59 2427.61 8326.55 2434.72 8345.99 2434.72C8365.43 2434.72 8365.48 2434.66 8361.64 2413.45C8355.95 2381.98 8343.97 2361.82 8323.57 2349.39C8299.31 2334.6 8269.03 2335.24 8245.57 2351.06ZM3088.77 2485.79V2627.62H3113.62C3135.57 2627.62 3139.11 2625.81 3144.07 2612.02C3147.16 2603.44 3156.41 2579.14 3164.62 2558.01C3172.83 2536.89 3179.56 2516.46 3179.58 2512.62C3179.6 2508.79 3183.46 2498.27 3188.16 2489.26C3192.86 2480.25 3201.14 2458.55 3206.56 2441.03L3216.42 2409.19L3217.97 2518.41L3219.51 2627.62H3239.24H3258.97V2485.47V2343.32L3232.49 2345.05L3205.99 2346.78L3175.76 2429.05C3159.12 2474.3 3142.44 2520.25 3138.68 2531.17C3134.92 2542.1 3129.82 2553.46 3127.33 2556.42C3124.85 2559.39 3122.81 2512.79 3122.81 2452.88V2343.95H3105.79H3088.77V2485.79ZM3582.35 2485.79V2627.62H3602.21H3622.07V2505.64V2383.66H3667.46H3712.84V2363.8V2343.95H3647.6H3582.35V2485.79ZM4422.03 2345.37C4422.04 2346.15 4439.66 2399.12 4461.19 2463.09C4502.87 2586.92 4503.42 2593.58 4472.01 2593.58C4456.61 2593.58 4455.47 2595 4457.11 2612.02C4458.82 2629.76 4459.84 2630.46 4483.8 2630.46C4504.04 2630.46 4510.79 2627.69 4519.75 2615.69C4528.68 2603.73 4608.57 2364.21 4609.09 2347.86C4609.17 2345.33 4599.82 2344.05 4588.31 2345.02C4567.69 2346.76 4567.26 2347.3 4557.68 2383.66C4552.34 2403.94 4544.09 2433.31 4539.37 2448.91C4534.64 2464.51 4529.23 2484.29 4527.34 2492.88C4525.46 2501.46 4521.86 2508.48 4519.35 2508.48C4516.83 2508.48 4503.48 2471.48 4489.67 2426.25L4464.56 2344.03L4443.28 2343.99C4431.59 2343.96 4422.02 2344.58 4422.03 2345.37ZM4739.54 2404.94C4739.23 2513.34 4725.25 2587.91 4705.23 2587.91C4695.28 2587.91 4694.33 2592.38 4694.33 2638.97V2690.03H4711.05C4727.23 2690.03 4727.83 2689.06 4729.49 2660.25L4731.21 2630.46L4797.87 2628.86L4864.53 2627.27V2658.65V2690.03H4884.39H4904.24V2638.97C4904.24 2591.69 4903.4 2587.91 4892.9 2587.91C4881.9 2587.91 4881.55 2584.13 4881.55 2465.93V2343.95H4810.63H4739.72L4739.54 2404.94ZM5047.25 2481.54C5027.62 2557.2 5011.66 2621.03 5011.79 2623.37C5011.93 2625.71 5020.88 2627.62 5031.67 2627.62C5050.03 2627.62 5051.72 2626.04 5057.51 2603.51C5071.6 2548.7 5069.44 2551.2 5104.33 2549.34C5140.63 2547.41 5142.22 2548.98 5153.69 2597.84C5160.39 2626.43 5161.43 2627.62 5179.63 2627.62C5190.05 2627.62 5199.63 2625.71 5200.89 2623.37C5202.88 2619.69 5192.56 2578.74 5139.38 2379.41L5129.92 2343.95L5106.44 2343.95L5082.95 2343.96L5047.25 2481.54ZM5326.83 2350.62C5325.19 2354.88 5324.54 2418.31 5325.38 2491.58L5326.91 2624.79H5346.76H5366.62L5368.24 2569.47L5369.87 2514.15L5393.77 2513.84C5452.04 2513.05 5482.92 2484.67 5482.92 2431.89C5482.92 2364.35 5464.12 2347.62 5385.09 2344.83C5342.25 2343.32 5329.13 2344.63 5326.83 2350.62ZM5902.75 2363.8V2383.66H5933.95H5965.16V2505.64V2627.62H5985.01H6004.87V2505.93V2384.23L6037.49 2382.53C6069.75 2380.84 6070.14 2380.62 6071.89 2362.39L6073.67 2343.95H5988.21H5902.75V2363.8ZM6197.76 2485.24V2627.62L6247.41 2627.6C6299.7 2627.58 6326.76 2617.99 6338.49 2595.31C6355.21 2562.95 6349.68 2505.66 6328.06 2487.14C6317.28 2477.91 6317.29 2477.59 6328.93 2465.21C6338.27 2455.26 6340.73 2445.29 6340.73 2417.41C6340.73 2385.53 6339.05 2380.49 6323.04 2364.48C6306.11 2347.54 6303.07 2346.7 6251.56 2344.82L6197.76 2342.85V2485.24ZM6488.43 2484.37L6489.94 2624.79L6559.44 2626.38L6628.94 2627.98V2607.94V2587.91H6577.64H6526.34L6528 2543.94L6529.65 2499.97L6576.8 2498.32L6623.95 2496.66L6622.19 2478.46L6620.43 2460.25L6573.62 2458.61L6526.82 2456.96V2420.53V2384.1L6576.46 2382.46L6626.1 2380.82L6627.88 2362.39L6629.66 2343.95H6558.28H6486.91L6488.43 2484.37ZM6765.1 2485.79V2627.62H6784.96H6804.81V2562.38V2497.13H6847.36H6889.91V2562.38V2627.62H6909.77H6929.62V2485.79V2343.95H6909.77H6889.91V2400.68V2457.42H6847.36H6804.81V2400.68V2343.95H6784.96H6765.1V2485.79ZM7077.13 2485.79V2627.62H7096.8H7116.47L7118.08 2563.8L7119.68 2499.97L7160.81 2498.3L7201.95 2496.63V2562.49V2628.34L7220.38 2626.56L7238.82 2624.79L7240.34 2484.37L7241.86 2343.95H7221.9H7201.95V2400.68V2457.42H7159.4H7116.85V2400.68V2343.95H7096.99H7077.13V2485.79ZM7701.2 2485.79V2627.62H7725.35C7750.95 2627.62 7755.47 2622.55 7769.09 2578.49C7771.82 2569.63 7786.91 2527.91 7802.62 2485.79L7831.16 2409.19L7831.43 2518.41L7831.69 2627.62H7851.54H7871.4V2485.47V2343.32L7844.45 2345.05L7817.5 2346.78L7802.67 2389.34C7775.99 2465.91 7763.52 2499.7 7755.55 2516.99C7751.23 2526.35 7746.47 2539.12 7744.97 2545.36C7743.46 2551.6 7741.93 2508.84 7741.57 2450.33L7740.91 2343.95H7721.06H7701.2V2485.79ZM8523.83 2449.09C8523.83 2564.14 8518.11 2593.58 8495.76 2593.58C8486.63 2593.58 8484.12 2597.23 8484.12 2610.5C8484.12 2633.28 8506.59 2639.88 8528.58 2623.57C8551.24 2606.75 8557.26 2579.97 8561.47 2477.18L8565.31 2383.66H8601.3H8637.3V2506V2628.34L8655.74 2626.56L8674.18 2624.79L8675.69 2484.37L8677.21 2343.95H8600.52H8523.83V2449.09ZM8808.5 2351.04C8809.51 2354.94 8826.68 2406.97 8846.66 2466.68C8866.64 2526.37 8881.4 2579.35 8879.46 2584.4C8877.27 2590.12 8869.32 2593.58 8858.38 2593.58C8841.99 2593.58 8840.94 2594.81 8842.6 2612.02C8844.16 2628.17 8846.63 2630.68 8862.55 2632.22C8872.55 2633.18 8885.71 2631.31 8891.78 2628.06C8904.58 2621.21 8922.97 2584.98 8932.32 2548.19C8935.89 2534.15 8943.55 2508.62 8949.35 2491.46C8955.14 2474.3 8966.13 2439.83 8973.76 2414.87C8981.4 2389.9 8989.46 2363.57 8991.69 2356.34C8995.48 2344 8994.39 2343.31 8973.95 2344.99L8952.17 2346.78L8929.48 2427.57C8917 2472.02 8905.23 2508.39 8903.33 2508.42C8899.54 2508.49 8875.6 2438.76 8875.55 2427.51C8875.52 2423.68 8871.67 2413.18 8866.98 2404.19C8862.29 2395.19 8856.88 2377.96 8854.95 2365.89C8851.56 2344.71 8850.65 2343.95 8829.05 2343.95C8813.95 2343.95 8807.27 2346.26 8808.5 2351.04ZM9096.84 2349.29C9096.84 2352.22 9099.29 2356.14 9102.28 2357.99C9105.28 2359.84 9119.95 2379.78 9134.9 2402.29C9149.85 2424.81 9165.27 2446.61 9169.17 2450.73C9179.18 2461.3 9178.68 2463.32 9155.47 2506.59C9109.7 2591.93 9096.84 2617.33 9096.84 2622.36C9096.84 2625.26 9105.75 2627.62 9116.65 2627.62C9136.2 2627.62 9136.88 2626.78 9168.08 2564.57L9199.7 2501.52L9213.51 2514.5C9226.12 2526.35 9227.33 2531.83 9227.33 2577.55V2627.62H9244.35H9261.37V2580.17C9261.37 2540.69 9263.35 2530.18 9273.17 2517.7C9279.66 2509.45 9287.03 2503.98 9289.56 2505.54C9292.08 2507.1 9307.34 2535.2 9323.49 2568C9352.25 2626.48 9353.2 2627.62 9372.34 2627.62C9383.07 2627.62 9391.85 2625.04 9391.85 2621.87C9391.85 2616.77 9353.47 2541.05 9322.55 2485.16L9311.22 2464.66L9349.04 2412.39C9398.31 2344.3 9398.42 2343.95 9370.49 2343.95C9349.16 2343.95 9346.87 2345.69 9328.76 2375.61C9318.21 2393.02 9306.73 2410.38 9303.24 2414.19C9299.74 2417.99 9292.89 2428.82 9288.01 2438.25C9283.13 2447.69 9275.14 2458.72 9270.25 2462.78C9262.28 2469.4 9261.37 2463.68 9261.37 2407.05V2343.95H9244.54H9227.7L9226.1 2407.36L9224.49 2470.77L9182.58 2407.36C9141.22 2344.76 9140.4 2343.95 9118.76 2343.95C9106.71 2343.95 9096.84 2346.35 9096.84 2349.29ZM9528.01 2485.79V2627.62H9576.52C9630.78 2627.62 9650.72 2620.45 9669.4 2594.21C9685.4 2571.74 9685.61 2522.28 9669.81 2495.52C9655.89 2471.91 9637.23 2462.81 9594.68 2458.86L9562.05 2455.84V2419.75V2383.66H9613.12H9664.17V2363.8V2343.95H9596.09H9528.01V2485.79ZM9813 2484.37L9814.52 2624.79L9861.4 2626.44C9939.22 2629.17 9967.38 2606.51 9966.9 2541.49C9966.52 2488.04 9944.44 2465.53 9886.46 2459.47L9851.4 2455.8V2399.88V2343.95H9831.44H9811.48L9813 2484.37ZM9994.55 2484.37L9996.07 2624.79H10015.9H10035.8L10037.3 2484.37L10038.8 2343.95H10015.9H9993.03L9994.55 2484.37ZM3951.55 2392.63C3964.78 2406.72 3965.31 2410.34 3965.31 2488.49C3965.31 2560.39 3964.07 2571.06 3954.5 2581.64C3942.02 2595.43 3908.14 2597.91 3892.13 2586.19C3867.8 2568.4 3865.89 2422.47 3889.59 2392.34C3905.05 2372.7 3932.94 2372.82 3951.55 2392.63ZM7505.19 2400.68C7515.17 2417.71 7516.82 2430.22 7516.8 2488.62C7516.78 2578.22 7511.21 2590.75 7471.36 2590.75C7444.69 2590.75 7442.49 2589.6 7433.15 2570.89C7425.56 2555.71 7423.22 2536.76 7423.22 2490.41C7423.2 2404.73 7436.26 2375.94 7473.7 2379.13C7489.56 2380.48 7495.92 2384.84 7505.19 2400.68ZM4841.84 2485.79V2587.91H4800.11H4758.4L4766.07 2558.3C4770.59 2540.91 4773.76 2498.79 4773.76 2456.18V2383.66H4807.8H4841.84V2485.79ZM5428.28 2390.03C5452.53 2401.08 5456.16 2439.31 5434.96 2460.51C5424.26 2471.22 5415.06 2474.44 5395.24 2474.44H5369.46V2429.05V2383.66H5391.88C5404.22 2383.66 5420.6 2386.53 5428.28 2390.03ZM6296.72 2396.27C6301.58 2403.21 6305.56 2414.13 6305.56 2420.54C6305.56 2426.95 6301.58 2437.87 6296.72 2444.81C6289.63 2454.94 6282.4 2457.42 6259.85 2457.42H6231.8V2420.54V2383.66H6259.85C6282.4 2383.66 6289.63 2386.14 6296.72 2396.27ZM5117.09 2444.65C5122.25 2468.84 5127.7 2493.09 5129.21 2498.55C5131.53 2506.98 5127.94 2508.48 5105.42 2508.48C5085.05 2508.48 5079.61 2506.64 5081.94 2500.55C5083.62 2496.2 5089.43 2471.94 5094.86 2446.66C5100.3 2421.37 5105.41 2400.68 5106.23 2400.68C5107.04 2400.68 5111.93 2420.47 5117.09 2444.65ZM6301.31 2507.64C6311.83 2518.15 6313.06 2558.74 6303.32 2573.61C6295.19 2586.01 6289.83 2587.91 6262.88 2587.91H6231.8V2546.31C6231.8 2523.42 6233.72 2502.74 6236.06 2500.34C6241.44 2494.84 6294.44 2500.76 6301.31 2507.64ZM9613.9 2502.93C9635.33 2508.88 9641.25 2518.92 9641.4 2549.61C9641.53 2574.38 9623.51 2587.91 9590.42 2587.91H9562.05V2546.31C9562.05 2523.42 9563.76 2502.99 9565.84 2500.92C9571.25 2495.51 9590.01 2496.29 9613.9 2502.93ZM9898.47 2503.18C9923.41 2510.1 9933.57 2528.9 9928.12 2557.99C9923.9 2580.46 9911.25 2587.91 9877.3 2587.91H9851.4V2546.31C9851.4 2523.42 9853.1 2502.99 9855.18 2500.92C9860.52 2495.57 9873.54 2496.26 9898.47 2503.18ZM7037.42 2735.42V2752.44H7079.97H7122.52V2735.42V2718.4H7079.97H7037.42V2735.42ZM7877.07 2735.42V2752.44H7919.62H7962.17V2735.42V2718.4H7919.62H7877.07V2735.42ZM1125.15 2753.25C1118.7 2764.96 1117.52 2765.35 1115.64 2756.37C1112.38 2740.76 1119.23 2726.58 1126.51 2733.86C1130.75 2738.1 1130.34 2743.83 1125.15 2753.25ZM1210.67 2754.2L1210.44 2772.3L1201.91 2756.56C1197.21 2747.91 1194.94 2738.29 1196.86 2735.19C1203.13 2725.04 1210.9 2735.72 1210.67 2754.2ZM4470.23 2763.06C4443.44 2779.7 4427.52 2800.13 4423.88 2822.55C4420.53 2843.15 4420.6 2843.22 4441.12 2843.22C4458.09 2843.22 4461.72 2841.18 4461.72 2831.62C4461.72 2825.23 4467.99 2813.74 4475.65 2806.09C4483.31 2798.43 4494.8 2792.16 4501.18 2792.16C4518.81 2792.16 4535.48 2812.22 4535.48 2833.44C4535.48 2860.73 4522.2 2876.26 4497.1 2878.34C4477.72 2879.94 4475.91 2881.55 4475.91 2897.12C4475.91 2913.01 4477.46 2914.25 4499.41 2915.85C4528.71 2917.99 4542.41 2932.19 4543.17 2961.21C4544.04 2994.57 4528.97 3013.43 4501.44 3013.43C4476.42 3013.43 4464.71 3001.42 4458.26 2969.16C4455.04 2953.05 4452.48 2951.02 4435.48 2951.02C4414.04 2951.02 4414.42 2950.02 4422.49 2985.06C4435.11 3039.82 4486.4 3066.69 4537.54 3045.32C4588.87 3023.87 4602.43 2944.54 4561.36 2905.96L4547.85 2893.27L4561.52 2873.12C4587.85 2834.32 4574.66 2781.27 4533.87 2761.92C4508.07 2749.67 4491.3 2749.97 4470.23 2763.06ZM6209.11 2757.09C6164.4 2777.35 6151.8 2803.28 6148.17 2882.49C6143.62 2981.58 6156.59 3023.15 6198.9 3045.17C6228.21 3060.42 6273.61 3051.26 6296.62 3025.44C6330.6 2987.3 6330 2826.69 6295.73 2785.96C6271.54 2757.2 6235.42 2745.17 6209.11 2757.09ZM6411.89 2766.79C6384.56 2785.37 6375.1 2804.54 6367.25 2857.34C6359.09 2912.23 6367.75 2988.38 6385.41 3016.95C6398.06 3037.42 6427.18 3053.16 6452.34 3053.12C6490.29 3053.07 6529.4 3002.61 6525.76 2958.41C6524.13 2938.65 6522.56 2936.83 6507.09 2936.83C6491.25 2936.83 6489.91 2938.58 6485.45 2965.15C6479.81 2998.83 6468.25 3013.43 6447.2 3013.43C6427.44 3013.43 6420.06 3004.16 6410.15 2966.94C6394.3 2907.39 6406.48 2810.62 6431.52 2797.22C6458.07 2783.01 6487.1 2805.7 6487.1 2840.65C6487.1 2852.77 6489.66 2854.57 6506.96 2854.57C6525.38 2854.57 6526.82 2853.3 6526.82 2836.98C6526.82 2796.24 6487.14 2752.44 6450.23 2752.44C6440.75 2752.44 6423.51 2758.9 6411.89 2766.79ZM6628 2756.8C6586.14 2775.15 6566.49 2821.76 6566.6 2902.41C6566.71 2989.19 6585.45 3034.05 6627.37 3047.89C6675.24 3063.69 6714.6 3035.57 6724.67 2978.39C6731.47 2939.8 6728.4 2931.99 6707.6 2934.93C6697.05 2936.43 6693.18 2941.67 6689.47 2959.53C6681.1 2999.85 6673.23 3010.59 6652.03 3010.59C6637.75 3010.59 6630.01 3006.58 6621.04 2994.57C6610.27 2980.15 6609.08 2971 6609.08 2902.79C6609.08 2834.69 6610.28 2825.41 6621 2811.01C6644.4 2779.55 6682.71 2791.48 6689.23 2832.27C6692.68 2853.84 6693.91 2855.07 6710.55 2853.45C6726.97 2851.85 6728.11 2850.32 6726.74 2831.87C6724.53 2802.47 6715.41 2783.95 6696.05 2769.64C6677.87 2756.2 6643.96 2749.81 6628 2756.8ZM7272.87 2761.11C7246.16 2775.47 7239.13 2783.98 7227.49 2816.07C7211.89 2859.11 7213.03 2952.88 7229.71 2996.79C7239.42 3022.37 7246.12 3030.86 7264.92 3041.44C7323.08 3074.12 7377.12 3031.29 7377.68 2952.08C7377.81 2934.27 7376.85 2933.37 7359.43 2935.06C7348.3 2936.13 7340.61 2940.19 7339.95 2945.34C7333.19 2998.23 7324.67 3013.58 7302.24 3013.24C7295.44 3013.13 7283.5 3007.74 7275.7 3001.26C7261.74 2989.65 7261.52 2988.13 7261.52 2905.46C7261.52 2824.37 7261.99 2820.95 7275.27 2806.81C7300.21 2780.25 7331.39 2791.62 7337.49 2829.5C7340.72 2849.53 7342.89 2851.9 7359.44 2853.5C7376.59 2855.17 7377.82 2854.11 7377.82 2837.72C7377.82 2779.41 7318.87 2736.37 7272.87 2761.11ZM7678.51 2756.8C7654.49 2768.5 7639.51 2783.36 7627.15 2807.75C7614.89 2831.95 7613.48 2841.96 7613.47 2905.63C7613.46 2973.11 7614.26 2977.98 7629.78 3006.17C7642.98 3030.14 7650.81 3037.61 7670.76 3045.23C7716.89 3062.84 7756.54 3047.08 7776.9 3003.02C7787.28 2980.56 7789.14 2966.23 7789.14 2908.46C7789.14 2828 7779.42 2794.8 7749.13 2771.69C7729.65 2756.83 7693.91 2749.3 7678.51 2756.8ZM3085.72 2765.16C3084.16 2769.21 3083.58 2833.75 3084.41 2908.58L3085.94 3044.63H3102.96H3119.98L3121.51 2921.23L3123.04 2797.83H3165.48H3207.91V2919.99C3207.91 3052.52 3208.02 3052.94 3239.23 3045.11L3253.5 3041.53L3251.98 2901.24L3250.46 2760.95L3169.5 2759.38C3107.24 2758.17 3087.88 2759.5 3085.72 2765.16ZM3305.68 2901.37L3307.2 3044.63H3324.22H3341.24L3342.85 2986.48L3344.47 2928.32H3376.23C3418.34 2928.32 3442.17 2913.7 3455.06 2879.95C3465.02 2853.87 3463.65 2823.12 3451.32 2796.06C3440.75 2772.86 3401.18 2758.12 3349.5 2758.12H3304.17L3305.68 2901.37ZM3499.96 2764.94C3498.36 2769.11 3497.73 2833.75 3498.57 2908.58L3500.09 3044.63L3519.95 3046.11C3530.87 3046.93 3542.51 3045.65 3545.81 3043.27C3549.12 3040.9 3568.26 2993.77 3588.36 2938.53L3624.91 2838.11L3627.74 2941.37L3630.58 3044.63H3647.6H3664.62L3666.13 2901.37L3667.65 2758.12H3645.56C3633.4 2758.12 3620.93 2761.31 3617.85 2765.21C3614.76 2769.11 3603.19 2797.83 3592.14 2829.03C3581.08 2860.24 3564.78 2904.92 3555.92 2928.32L3539.8 2970.87L3536.97 2865.91L3534.13 2760.95L3518.5 2759.15C3509.27 2758.09 3501.67 2760.46 3499.96 2764.94ZM3821.96 2901.21L3823.47 3044.63H3840.49H3857.51L3859.04 2921.23L3860.57 2797.83H3902.9H3945.23L3946.75 2921.23L3948.29 3044.63H3965.31H3982.33V2902.79V2760.95L3901.38 2759.38L3820.44 2757.8L3821.96 2901.21ZM4038.78 2765.32C4037.25 2769.28 4036.7 2833.75 4037.53 2908.58L4039.06 3044.63H4056.08H4073.1L4074.72 2986.48L4076.33 2928.32H4107.62C4165.26 2928.32 4195.01 2899.59 4195.05 2843.89C4195.08 2804.6 4180.14 2779.47 4149.47 2767.2C4121.25 2755.91 4042.89 2754.58 4038.78 2765.32ZM4244.42 2761.73C4242.24 2763.9 4240.46 2827.76 4240.46 2903.63V3041.58L4253.23 3044.76C4260.25 3046.51 4291.52 3047.2 4322.73 3046.29L4379.46 3044.63L4381.23 3026.19L4383.02 3007.75H4334.43H4285.85V2962.6V2917.45L4329.82 2915.79L4373.79 2914.14L4375.56 2895.7L4377.34 2877.26H4331.59H4285.85V2837.55V2797.83H4334.43H4383.02L4381.23 2779.39L4379.46 2760.95L4313.92 2759.36C4277.86 2758.49 4246.59 2759.55 4244.42 2761.73ZM4634.62 2764.94C4633.02 2769.11 4632.4 2833.75 4633.23 2908.58L4634.76 3044.63L4648.1 3046.52C4673.28 3050.08 4687.01 3042.96 4690.72 3024.39C4692.65 3014.74 4697.94 2998.75 4702.49 2988.86C4712.35 2967.38 4731.35 2914.22 4743.87 2873C4748.86 2856.62 4755.01 2843.22 4757.54 2843.22C4760.07 2843.22 4762.85 2888.53 4763.7 2943.92L4765.25 3044.63H4782.27H4799.29V2902.79V2760.95L4776.59 2759.28L4753.9 2757.6L4732.86 2813.18C4721.28 2843.74 4703.41 2891.73 4693.14 2919.81L4674.47 2970.87L4671.64 2865.91L4668.8 2760.95L4653.16 2759.15C4643.94 2758.09 4636.34 2760.46 4634.62 2764.94ZM4880.01 2852.98C4876.49 2960.62 4866.53 3007.75 4847.29 3007.75C4837.16 3007.75 4836.16 3011.83 4836.16 3053.14V3098.53H4856.02C4875.77 3098.53 4875.88 3098.39 4875.88 3073V3047.47H4940.8H5005.71L5007.46 3071.58C5009.09 3094.21 5010.33 3095.8 5027.64 3097.47L5046.08 3099.25V3053.5C5046.08 3016.89 5044.4 3007.75 5037.68 3007.75C5030.57 3007.75 5029.05 2988.85 5027.75 2884.35L5026.22 2760.95L4954.67 2759.37L4883.13 2757.79L4880.01 2852.98ZM5082.74 2765.14C5081.18 2769.2 5080.59 2833.75 5081.43 2908.58L5082.95 3044.63H5151.03H5219.11L5220.89 3026.19L5222.67 3007.75H5171.25H5119.83V2962.36V2916.97L5160.96 2916.89C5208.17 2916.79 5218.03 2912.57 5215.35 2893.64C5213.54 2880.77 5211.1 2880.01 5166.64 2878.45L5119.83 2876.8V2837.32V2797.83H5171.25H5222.67L5220.89 2779.39L5219.11 2760.95L5152.34 2759.35C5101.57 2758.14 5084.89 2759.52 5082.74 2765.14ZM5265.71 2761.63C5263.48 2763.86 5261.66 2827.63 5261.66 2903.35C5261.66 3036.05 5262.07 3041.16 5273.01 3044.63C5279.25 3046.61 5289.46 3046.61 5295.7 3044.63C5306.14 3041.32 5307.05 3036.05 5307.05 2979V2916.97H5349.41H5391.78L5393.38 2980.8L5394.99 3044.63L5410.59 3046.42L5426.19 3048.22V2908.84C5426.19 2832.18 5426.83 2767.55 5427.61 2765.21C5428.39 2762.86 5420.73 2760.15 5410.59 2759.18L5392.15 2757.4V2817.33V2877.26H5349.8H5307.45L5305.83 2819.11L5304.21 2760.95L5286.99 2759.27C5277.51 2758.34 5267.94 2759.4 5265.71 2761.63ZM5464.16 2761.75C5462 2763.91 5460.23 2772.91 5460.23 2781.76C5460.23 2797.61 5460.68 2797.83 5494.16 2797.83H5528.09L5529.62 2921.23L5531.15 3044.63H5548.17H5565.19L5566.72 2921.23L5568.25 2797.83H5602.54H5636.82L5635.04 2779.39L5633.27 2760.95L5550.67 2759.39C5505.25 2758.53 5466.32 2759.59 5464.16 2761.75ZM5667.09 2765.14C5665.53 2769.2 5664.95 2833.75 5665.78 2908.58L5667.31 3044.63H5735.39H5803.47L5805.23 3026.42L5806.99 3008.21L5757 3006.56L5707.02 3004.91L5705.37 2961.18L5703.71 2917.44L5750.76 2915.79L5797.79 2914.14L5799.57 2895.7L5801.35 2877.26H5752.76H5704.18V2837.55V2797.83H5755.6H5807.02L5805.24 2779.39L5803.47 2760.95L5736.7 2759.35C5685.93 2758.14 5669.25 2759.52 5667.09 2765.14ZM5946.25 2761.9C5944.17 2763.98 5942.46 2827.76 5942.46 2903.63V3041.58L5956.64 3045.13C5985.04 3052.26 5987.85 3046.87 5987.85 2985.23V2928.32H6020.12C6055.81 2928.32 6084.5 2913.65 6095.33 2889.86C6104.14 2870.53 6102.61 2816.79 6092.71 2797.63C6079.37 2771.85 6044.85 2758.12 5993.4 2758.12C5969.55 2758.12 5948.32 2759.82 5946.25 2761.9ZM6777.77 2901L6779.28 3044.63H6801.75H6824.22L6848.07 2982.22C6861.19 2947.9 6879.16 2899.83 6888.01 2875.42L6904.1 2831.03L6906.93 2937.83L6909.77 3044.63H6926.79H6943.81V2902.79V2760.95H6918.53H6893.25L6879.87 2797.83C6872.51 2818.11 6861.64 2848.75 6855.71 2865.91C6849.78 2883.08 6838.62 2913.71 6830.91 2934L6816.89 2970.87L6815.11 2865.91L6813.32 2760.95L6794.79 2759.17L6776.25 2757.38L6777.77 2901ZM7000.26 2765.32C6998.74 2769.28 6998.18 2833.75 6999.02 2908.58L7000.54 3044.63L7023.67 3046.33C7045.62 3047.94 7047.26 3046.93 7055.96 3026.47C7061 3014.62 7066.83 2998.53 7068.92 2990.73C7071.01 2982.93 7076.13 2968.89 7080.3 2959.53C7084.47 2950.17 7092.85 2928.46 7098.93 2911.3C7129.4 2825.31 7127.67 2823.7 7127.94 2938.43C7128.22 3050.84 7128.8 3052.82 7159.51 3045.11L7173.78 3041.53L7172.26 2901.24L7170.74 2760.95L7146.99 2759.23C7128.03 2757.85 7122.03 2759.77 7117.21 2768.78C7112.06 2778.4 7093.71 2827.72 7049.43 2951.02C7040.35 2976.3 7040.24 2975.49 7038.71 2867.33L7037.17 2758.12H7020.1C7010.71 2758.12 7001.78 2761.36 7000.26 2765.32ZM7427.26 2761.63C7425.03 2763.86 7423.21 2827.88 7423.21 2903.91C7423.21 3052.94 7423.21 3052.95 7453 3045.5C7465.15 3042.47 7465.67 3040.05 7463.94 2994.61C7462.29 2951.14 7463.33 2945.5 7475.63 2931.19L7489.14 2915.49L7516.31 2971.55C7531.25 3002.38 7547.45 3032.08 7552.3 3037.54C7561.79 3048.22 7584.92 3050.93 7590.43 3042.01C7592.29 3039.01 7575.51 3001.78 7553.14 2959.27L7512.48 2881.97L7552.72 2823.61C7574.86 2791.5 7591.36 2763.64 7589.41 2761.68C7587.44 2759.72 7579.05 2758.12 7570.76 2758.12C7554.44 2758.12 7542.14 2769.67 7517.95 2807.76C7486.66 2857.03 7472.25 2877.84 7467.32 2880.88C7464.46 2882.65 7462.74 2857.33 7463.36 2822.48L7464.45 2760.95L7447.88 2759.27C7438.76 2758.34 7429.49 2759.4 7427.26 2761.63ZM7841.14 2761.9C7839.06 2763.98 7837.36 2827.53 7837.36 2903.13C7837.36 3053.29 7836.01 3047.47 7870.91 3047.47C7890.68 3047.47 7898.99 3030.88 7932 2925.49C7936.89 2909.88 7943.37 2894.01 7946.4 2890.21C7949.44 2886.41 7955.33 2872.36 7959.5 2859C7966.47 2836.69 7967.12 2843.12 7967.47 2937.87C7967.83 3035.88 7968.41 3041.21 7979.19 3044.63C7985.43 3046.61 7995.69 3046.6 8001.98 3044.6C8013.11 3041.07 8013.39 3037.06 8011.91 2900.96L8010.4 2760.95H7985.29C7956.78 2760.95 7961.29 2753.54 7919.6 2868.75C7908.31 2899.95 7894.76 2936.97 7889.49 2951.02L7879.91 2976.55L7878.37 2867.33L7876.83 2758.12H7860.88C7852.1 2758.12 7843.22 2759.82 7841.14 2761.9ZM8255.56 2761.64C8253.33 2763.86 8251.51 2770.36 8251.51 2776.08C8251.51 2781.8 8247.58 2786.48 8242.78 2786.48C8228.01 2786.48 8186.96 2809.65 8173.77 2825.43C8154.14 2848.91 8146.13 2893.46 8154.69 2931.67C8163.61 2971.53 8195.85 3005.98 8229.25 3011.31C8247.32 3014.21 8251.17 3017.24 8252.62 3029.7C8254.06 3042.12 8257.21 3044.63 8271.37 3044.63C8285.56 3044.63 8288.68 3042.13 8290.13 3029.6C8291.54 3017.45 8295.64 3013.86 8311.53 3010.88C8379.18 2998.19 8411.54 2893.53 8367.27 2830.56C8354.96 2813.02 8342.57 2803.56 8321.06 2795.25C8300.67 2787.37 8291.18 2780.38 8290.04 2772.42C8288.37 2760.85 8263.98 2753.22 8255.56 2761.64ZM8435.68 2765.14C8434.12 2769.2 8433.54 2833.75 8434.37 2908.58L8435.9 3044.63L8492.63 3046.29C8566.21 3048.44 8576.14 3045.96 8573.83 3025.99C8572.07 3010.69 8571.73 3010.58 8522.42 3008.95L8472.77 3007.31V2962.14V2916.97H8518.16H8563.55V2897.12V2877.26H8518.16H8472.77V2837.55V2797.83H8524.19H8575.61L8573.83 2779.39L8572.06 2760.95L8505.29 2759.35C8454.52 2758.14 8437.84 2759.52 8435.68 2765.14ZM8642.86 2827.45C8642.68 2937.83 8628.37 3007.75 8605.95 3007.75C8599.27 3007.75 8597.59 3016.97 8597.59 3053.5V3099.25L8616.03 3097.47C8633.33 3095.8 8634.57 3094.21 8636.21 3071.58L8637.95 3047.47H8702.54H8767.13L8768.88 3071.58C8770.52 3094.21 8771.75 3095.8 8789.06 3097.47L8807.5 3099.25V3053.5C8807.5 3016.89 8805.82 3007.75 8799.1 3007.75C8791.99 3007.75 8790.47 2988.85 8789.18 2884.35L8787.64 2760.95L8715.31 2759.36L8642.97 2757.78L8642.86 2827.45ZM8844.16 2765.14C8842.6 2769.2 8842.02 2833.75 8842.85 2908.58L8844.38 3044.63H8912.46H8980.54L8982.31 3026.19L8984.09 3007.75H8932.67H8881.25V2962.36V2916.97L8922.39 2916.89C8969.59 2916.79 8979.45 2912.57 8976.78 2893.64C8974.96 2880.77 8972.53 2880.01 8928.06 2878.45L8881.25 2876.8V2837.32V2797.83H8932.67H8984.09L8982.31 2779.39L8980.54 2760.95L8913.77 2759.35C8863 2758.14 8846.32 2759.52 8844.16 2765.14ZM9026.87 2761.9C9024.79 2763.98 9023.09 2827.76 9023.09 2903.63V3041.58L9037.26 3045.13C9065.61 3052.25 9068.47 3046.81 9068.47 2985.9V2929.64L9105.52 2927.28C9137.99 2925.22 9144.79 2922.71 9160.56 2906.94C9176.23 2891.27 9178.84 2884.28 9180.85 2852.78C9185.15 2785.3 9154.47 2758.12 9074.03 2758.12C9050.17 2758.12 9028.95 2759.82 9026.87 2761.9ZM9259.13 2765.21C9258.09 2769.11 9254.15 2783.79 9250.38 2797.83C9242.14 2828.48 9226.15 2890.94 9209.71 2956.69C9203.08 2983.21 9194.27 3012.52 9190.14 3021.82C9181.54 3041.17 9186.47 3047.23 9210.92 3047.38C9224.54 3047.46 9226.57 3044.18 9236.45 3006.33L9247.18 2965.2H9280.37H9313.57L9324.34 2993.57C9330.26 3009.17 9335.12 3026.49 9335.12 3032.04C9335.12 3044.31 9347.59 3049.84 9365.27 3045.4L9378.38 3042.11L9365.73 2992.31C9358.77 2964.92 9342.66 2902.11 9329.92 2852.73C9317.18 2803.36 9306.75 2761.87 9306.75 2760.54C9306.75 2754.33 9260.82 2758.84 9259.13 2765.21ZM9420.22 2902.79V3047.47H9493.97H9567.73V3073C9567.73 3098.39 9567.84 3098.53 9587.58 3098.53H9607.44V3053.14C9607.44 3011.68 9606.47 3007.75 9596.21 3007.75C9585.39 3007.75 9584.91 3003.05 9583.44 2884.35L9581.91 2760.95H9564.89H9547.87L9546.34 2884.59L9544.81 3008.22L9500.95 3006.57L9457.1 3004.91L9455.57 2881.52L9454.04 2758.12H9437.13H9420.22V2902.79ZM9638.5 2764.96C9636.9 2769.12 9636.28 2833.75 9637.12 2908.58L9638.64 3044.63H9663.48H9688.32L9705.42 2999.24C9714.82 2974.28 9728.69 2937.26 9736.22 2916.97C9765.24 2838.9 9763.2 2836.97 9766.29 2945.34L9769.13 3044.63H9786.15H9803.17L9804.69 2901.04L9806.21 2757.45L9782.32 2759.21L9758.44 2760.95L9737.02 2817.69C9725.24 2848.89 9708.49 2894.81 9699.81 2919.72L9684.03 2965.02L9681.2 2862.99L9678.36 2760.95L9659.88 2759.17C9648.34 2758.06 9640.31 2760.23 9638.5 2764.96ZM9866.79 2761.63C9864.56 2763.86 9862.74 2827.76 9862.74 2903.63V3041.58L9876.92 3045.13C9911.19 3053.74 9914.71 3049.04 9954.91 2941.25L9992.53 2840.38L9992.88 2940.71C9993.21 3035.89 9993.81 3041.21 10004.6 3044.63C10010.8 3046.61 10020.4 3046.81 10025.9 3045.08C10035 3042.18 10035.7 3030.86 10034.6 2901.44L10033.4 2760.95L10010.4 2759.21C9992.36 2757.83 9986.71 2759.65 9983.98 2767.72C9982.08 2773.35 9975.72 2788.36 9969.85 2801.04C9963.99 2813.73 9959.19 2827.38 9959.19 2831.39C9959.19 2835.39 9955.45 2846.71 9950.89 2856.55C9946.33 2866.38 9935.85 2893.57 9927.61 2916.97C9919.36 2940.38 9910.22 2962.06 9907.29 2965.15C9903.99 2968.66 9902.27 2931.22 9902.75 2865.86L9903.5 2760.95L9887.18 2759.27C9878.2 2758.34 9869.02 2759.4 9866.79 2761.63ZM6254.38 2797.77C6274.92 2808.76 6284.07 2847.93 6281.97 2915.92C6280.33 2968.84 6278.17 2981.08 6268.11 2994.59C6247.29 3022.54 6210.27 3019.44 6195.6 2988.52C6183.51 2963.03 6182.7 2851.77 6194.39 2823.76C6206.31 2795.25 6230.27 2784.87 6254.38 2797.77ZM7731.19 2808.77C7748.27 2829.06 7755.1 2879.93 7749.22 2942.76C7744.49 2993.22 7732.16 3013.43 7706.09 3013.43C7681.99 3013.43 7669.3 3005.03 7662.08 2984.33C7652.88 2957.93 7654.06 2847.05 7663.79 2823.76C7678.33 2788.96 7708.82 2782.19 7731.19 2808.77ZM3407.27 2808.68C3418.13 2817.48 3420.56 2824.6 3420.1 2846.43C3419.41 2879.64 3409.03 2888.61 3371.36 2888.61H3344.07V2843.22V2797.83H3368.97C3385.04 2797.83 3398.63 2801.68 3407.27 2808.68ZM4144.02 2809.18C4157.88 2823.04 4159.19 2857.92 4146.53 2875.99C4139.24 2886.4 4132.3 2888.61 4106.82 2888.61H4075.94V2843.22V2797.83H4104.3C4125.11 2797.83 4135.69 2800.85 4144.02 2809.18ZM4988.06 2901.37L4986.51 3004.91L4944.69 3006.59L4902.88 3008.27L4906.38 2989.57C4914.7 2945.15 4920.92 2882.6 4921.09 2841.8L4921.26 2797.83H4955.43H4989.6L4988.06 2901.37ZM6053.35 2811.76C6068.37 2826.78 6071.17 2847.92 6060.75 2867.71C6051.37 2885.53 6044.99 2888.43 6014.8 2888.52L5987.85 2888.61V2843.22V2797.83H6013.64C6033.45 2797.83 6042.65 2801.05 6053.35 2811.76ZM8750.77 2902.79V3007.75H8704.77H8658.76L8662.85 2992.15C8676.71 2939.16 8682.69 2896.45 8682.69 2850.31V2797.83H8716.73H8750.77V2902.79ZM9130.88 2809.18C9138.6 2816.9 9142.23 2828.09 9142.23 2844.19C9142.23 2877.19 9130.34 2888.61 9095.96 2888.61H9068.47V2843.22V2797.83H9094C9111.97 2797.83 9122.9 2801.19 9130.88 2809.18ZM9292.54 2857.58C9310.52 2935.9 9311.72 2928.32 9281.25 2928.32C9256.4 2928.32 9254.67 2927.4 9257.36 2915.56C9268.48 2866.54 9281.28 2815.84 9282.27 2816.85C9282.93 2817.51 9287.56 2835.84 9292.54 2857.58ZM8251.51 2899.95C8251.51 2969.22 8250.84 2973.71 8240.48 2973.71C8234.41 2973.71 8222.29 2967.55 8213.54 2960.02C8198.51 2947.09 8197.62 2943.73 8197.62 2899.95C8197.62 2856.18 8198.51 2852.82 8213.54 2839.89C8222.29 2832.36 8234.41 2826.2 8240.48 2826.2C8250.84 2826.2 8251.51 2830.69 8251.51 2899.95ZM8319.66 2835.65C8352.88 2855.28 8356.02 2926.81 8325.02 2957.81C8294.64 2988.19 8291.23 2982.33 8291.23 2899.95C8291.23 2850.27 8293.26 2826.2 8297.44 2826.2C8300.86 2826.2 8310.86 2830.45 8319.66 2835.65Z" fill="black"/>
</svg>
