<svg width="7633" height="4143" viewBox="0 0 7633 4143" fill="none" xmlns="http://www.w3.org/2000/svg">
<path d="M1970.93 57.4808C1968.24 52.2271 1964.38 37.073 1962.35 23.814C1957.75 -6.34091 1967.56 -8.48551 1975.32 20.9772C1995.97 99.3742 2043.12 263.941 2052.24 289.438C2057.19 303.264 2069.1 338.837 2078.72 368.482C2096.02 421.83 2124.22 498.02 2146.97 552.872C2303.88 931.292 2491.7 1128.81 2792.79 1232.06C2857.25 1254.16 2947.45 1277.36 2997.03 1284.57C3011.07 1286.61 3028.94 1290.62 3036.74 1293.46C3056.94 1300.84 3218.08 1319.26 3354.45 1329.79C3526.07 1343.04 3628.3 1348.77 3867.88 1358.53C3986.46 1363.36 4116.49 1369.16 4156.84 1371.42C4239.16 1376.03 4238.3 1374.66 4182.62 1412.41C4166.52 1423.34 4144.87 1439.93 4134.51 1449.29C4110.94 1470.61 4111.48 1470.21 4046.57 1514.02C4016.94 1534.03 3964.61 1569.59 3930.29 1593.06C3895.97 1616.54 3848.74 1648.69 3825.33 1664.5C3801.93 1680.31 3780.23 1695.25 3777.11 1697.69C3773.99 1700.12 3749.74 1717.78 3723.21 1736.92C3638.53 1798.06 3528.25 1882.36 3503.62 1904.8C3335.39 2058.04 3245.42 2172.14 3182.79 2311.67C3146.13 2393.36 3117.44 2499.54 3104.63 2601.02C3096.31 2666.92 3096.25 2837.3 3104.53 2924.41C3119.2 3078.79 3166.04 3322.88 3216.67 3508.79C3224.31 3536.87 3236.92 3584.1 3244.67 3613.75C3267.26 3700.08 3352.16 3978.71 3378.08 4051.54C3396.7 4103.89 3391.72 4107.96 3348.75 4075.58C3303.22 4041.28 3280.36 4026.36 3277.59 4029.13C3276.43 4030.29 3283.1 4054.09 3292.42 4082.01C3301.74 4109.93 3308.66 4136.11 3307.8 4140.19C3306.38 4146.88 3290.46 4138.19 3260.84 4114.57C3248.36 4104.62 3028.41 3949.75 2937.46 3886.87C2912.49 3869.61 2891.22 3853.44 2890.18 3850.93C2889.14 3848.42 2886.13 3846.36 2883.49 3846.36C2880.85 3846.36 2862.77 3835.52 2843.32 3822.25C2510.33 3595.24 2281.79 3468.6 2108.74 3415.2C2053.76 3398.23 1975.26 3383.44 1910.58 3377.86C1839.18 3371.7 1663.28 3404.91 1591.52 3438.1C1578.29 3444.21 1565.96 3449.22 1564.12 3449.22C1558.26 3449.22 1486.56 3478.41 1443.83 3498.2C1421.14 3508.7 1401.36 3517.3 1399.89 3517.3C1398.42 3517.3 1372.8 3528.79 1342.94 3542.83C1313.09 3556.87 1287.8 3568.36 1286.74 3568.36C1285.68 3568.36 1263.49 3578.22 1237.43 3590.27C1136.62 3636.9 940.6 3719.93 900.728 3732.9C888.246 3736.97 872.441 3743.93 865.599 3748.38C858.757 3752.82 847.313 3755.63 840.17 3754.61C828.392 3752.93 829.561 3750.95 852.606 3733.56C866.591 3723 873.569 3715.9 868.105 3717.78C843.727 3726.16 862.16 3704.18 910.207 3667.57C938.829 3645.77 964.994 3625.26 968.358 3622C974.259 3616.28 1131.99 3494.47 1255.31 3400.4C1305.44 3362.17 1370.46 3315.04 1456.71 3254.44C1466.07 3247.87 1486.5 3234.23 1502.1 3224.14C1517.7 3214.05 1533.02 3203.64 1536.14 3201.02C1539.26 3198.4 1557.13 3187.43 1575.85 3176.64C1594.58 3165.86 1615 3153.95 1621.24 3150.19C1664.38 3124.2 1763.15 3078.14 1807.03 3063.56C1835.84 3053.97 1883.56 3043.45 1913.08 3040.15C1981.06 3032.57 1974.76 3032.57 2038.23 3040.24C2128.66 3051.18 2234.87 3092.69 2374.65 3171.73C2398.97 3185.49 2429.61 3202.7 2442.73 3209.99C2469.34 3224.77 2625.75 3316.09 2656.63 3334.87C2667.55 3341.52 2683.51 3349.79 2692.08 3353.25C2700.66 3356.71 2707.69 3361.85 2707.69 3364.67C2707.69 3367.48 2710.28 3369.79 2713.46 3369.79C2716.63 3369.79 2750.28 3387.64 2788.21 3409.44C2826.15 3431.26 2857.96 3448.34 2858.89 3447.41C2861.44 3444.86 2832.55 3294.9 2826.99 3281.85C2821.92 3269.95 2804.96 3179.63 2789.69 3083.27C2784.75 3052.07 2778.44 3018.88 2775.67 3009.52C2755.95 2942.72 2733.13 2678.99 2738.87 2584C2743.01 2515.32 2760.53 2417.38 2773.28 2391.64C2777.77 2382.58 2781.44 2372.64 2781.44 2369.55C2781.44 2360.21 2820.46 2282.09 2839.46 2253.41C2858.1 2225.25 2925.66 2136.6 2940.28 2121.11C2944.97 2116.15 2966.67 2091.39 2988.52 2066.1C3010.36 2040.8 3117 1932.53 3225.5 1825.5C3414.13 1639.41 3422.07 1630.73 3407.04 1627.08C3398.4 1624.98 3351.75 1620.43 3303.39 1616.98C3151.56 1606.12 3060.62 1595.49 2906.25 1570.53C2838.35 1559.55 2727.61 1536.22 2721.87 1531.68C2718.75 1529.21 2707.26 1525.42 2696.34 1523.26C2662.92 1516.65 2578.08 1485.99 2537 1465.69C2515.6 1455.11 2496.6 1446.45 2494.79 1446.45C2492.98 1446.45 2469.93 1432.4 2443.57 1415.21C2385.59 1377.43 2312.4 1313.85 2281.2 1274.18C2268.6 1258.16 2253.27 1238.66 2247.14 1230.86C2201.18 1172.36 2132.4 1037.73 2100.42 943.7C2090.99 915.973 2080.99 888.178 2078.21 881.937C2075.42 875.697 2068.83 855.272 2063.56 836.549C2044.07 767.309 2031.23 722.624 2026.05 706.058C2023.12 696.696 2014.41 659.676 2006.69 623.791C1998.98 587.906 1989.05 541.95 1984.62 521.667C1965.07 431.991 1957.65 394.631 1944.05 317.42C1926.37 217.066 1924.75 203.949 1930.05 203.949C1932.33 203.949 1936.96 214.797 1940.33 228.062C1947.29 255.419 1996.77 417.904 2002.1 430.891C2004.02 435.571 2016.44 470.038 2029.7 507.484C2055.03 579.01 2085.49 647.96 2081.08 623.791C2079.66 615.99 2072.08 581.523 2064.23 547.198C2056.39 512.873 2046.13 466.918 2041.45 445.075C2036.76 423.231 2029.01 387.488 2024.22 365.645C2019.44 343.802 2009.1 287.634 2001.24 240.827C1993.38 194.02 1984.5 145.511 1981.52 133.03C1978.54 120.548 1976.03 100.594 1975.96 88.6853C1975.89 76.7822 1973.62 62.7401 1970.93 57.4808Z" fill="black"/>
<path d="M1790.97 503.228C1803.15 465.006 1815.2 427.98 1817.74 420.962C1820.28 413.944 1824.68 408.197 1827.51 408.197C1830.45 408.197 1834.45 523.426 1836.86 677.542C1844.92 1193.94 1824.27 1597.79 1777.21 1843.6C1773.92 1860.77 1767.17 1896.51 1762.18 1923.03C1748.4 1996.52 1708.28 2142.76 1683.6 2209.55C1675.53 2231.39 1664.3 2262.03 1658.64 2277.63C1648.58 2305.38 1639.7 2325.95 1606.45 2398.59C1597.43 2418.31 1590.04 2435.31 1590.04 2436.36C1590.04 2438.45 1528.89 2552.9 1499.93 2605C1490.04 2622.8 1473.72 2650.16 1463.66 2665.81C1453.6 2681.46 1435.38 2710.3 1423.16 2729.91C1389.03 2784.71 1293.64 2922.31 1236.13 2999.73C1180.34 3074.82 1067.05 3224.44 1053.54 3240.87C1048.98 3246.41 1038.26 3260.5 1029.72 3272.19C989.068 3327.81 844.368 3505.95 839.841 3505.95C837.021 3505.95 836.302 3500.2 838.236 3493.19L841.758 3480.42L831.529 3492.17C825.901 3498.64 814.549 3512.68 806.294 3523.37C798.039 3534.08 789.416 3541.01 787.13 3538.8C783.227 3535.01 786.376 3510.27 804.689 3400.99C822.833 3292.74 853.553 3084.65 858.603 3035.77C861.626 3006.53 866.523 2972.07 869.479 2959.18C872.44 2946.3 877.999 2878.93 881.84 2809.46C891.326 2637.82 880.049 2506.09 849.424 2430.81C845.611 2421.45 839.341 2403.58 835.483 2391.1C828.891 2369.78 794.216 2301.18 773.899 2269.28C735.576 2209.09 597.522 2061.34 516.643 1993.95C497.921 1978.35 478.568 1961.75 473.649 1957.07C468.725 1952.39 455.58 1941.34 444.432 1932.5C415.225 1909.35 377.077 1877.29 356.704 1858.78C347.003 1849.96 328.219 1834.85 314.955 1825.19C301.691 1815.54 290.843 1805.52 290.843 1802.92C290.843 1800.34 287.229 1798.21 282.804 1798.21C278.384 1798.21 273.92 1795.98 272.876 1793.26C271.129 1788.67 256.684 1776.69 146.173 1688.15C124.33 1670.65 97.5237 1648.89 86.6025 1639.79C75.6814 1630.69 57.6919 1616.03 46.6289 1607.19C35.5659 1598.36 20.5481 1585.52 13.2578 1578.66L0 1566.2L13.5186 1563.07C20.9506 1561.35 47.4572 1559.3 72.4199 1558.52L117.807 1557.09L100.786 1541.88C91.4251 1533.52 76.2151 1520.22 66.9902 1512.32C57.7654 1504.43 51.6545 1496.53 53.4189 1494.77C59.3306 1488.86 286.338 1480.75 449.696 1480.62C620.594 1480.47 822.123 1472.44 885.488 1463.24C980.415 1449.46 1097.51 1421.1 1130.5 1403.9C1138.3 1399.82 1164.15 1387.39 1187.95 1376.26C1211.74 1365.13 1252.59 1341.39 1278.72 1323.51C1324.87 1291.92 1411.98 1210.42 1434.33 1177.92C1440.4 1169.09 1449.2 1157.18 1453.88 1151.47C1507.75 1085.71 1627.7 848.656 1683.57 697.547C1692.22 674.144 1702.74 647.336 1706.94 637.975C1711.15 628.614 1722.1 598.045 1731.29 570.046C1750.74 510.723 1760.24 502.145 1760.24 543.891C1760.24 559.754 1762.17 572.729 1764.53 572.729C1766.9 572.729 1778.79 541.457 1790.97 503.228Z" fill="black"/>
<path d="M929.094 768.62C947.816 763.179 965.687 757.761 968.808 756.58C971.928 755.4 992.352 755.627 1014.19 757.08C1203.81 769.709 1321.16 968.056 1238.43 1136.11C1221.38 1170.73 1160.41 1242.21 1147.91 1242.21C1144.81 1242.21 1127.18 1255.67 1108.74 1272.13C1090.3 1288.59 1065.3 1306.83 1053.21 1312.68C1041.11 1318.52 1026.77 1325.49 1021.34 1328.16C986.605 1345.23 895.053 1344.11 846.83 1326.02C793.779 1306.13 721.159 1243.51 712.882 1210.54C710.987 1202.99 707.345 1196.82 704.786 1196.82C698.143 1196.82 682.82 1141.06 678.78 1102.17C671.995 1036.89 703.051 957.776 759.291 897.114C850.842 798.355 865.842 787.008 929.094 768.62Z" fill="black"/>
<path d="M7377.55 2065.64C7374.51 2051.38 7373.26 2037.72 7374.77 2035.27C7376.28 2032.83 7388.53 2030.83 7402 2030.83C7424.48 2030.83 7426.76 2032.18 7429.78 2047.28C7431.66 2056.69 7440.56 2069.07 7450.56 2076.19C7467.32 2088.13 7468.87 2088.26 7487.59 2079.38C7501.4 2072.83 7508.49 2064.78 7511.81 2051.89C7516.16 2035 7518.46 2033.54 7543.13 2031.94C7565.64 2030.47 7569.73 2031.78 7569.7 2040.45C7569.64 2063.41 7556.55 2095.43 7541.02 2110.61C7521.88 2129.31 7496.69 2135.36 7452.99 2131.73C7412.95 2128.41 7385.88 2104.7 7377.55 2065.64Z" fill="black"/>
<path d="M3464.72 2227.12C3480.93 2194.43 3509.82 2168.41 3540.27 2159.05C3594.03 2142.51 3656.35 2149.57 3696.2 2176.7C3724.37 2195.87 3746.23 2241.92 3747.67 2285.1L3748.74 2317.34H3700.52H3652.3L3648.74 2284.2C3644.28 2242.69 3634.59 2232.24 3600.53 2232.24C3580.23 2232.24 3572.38 2235.11 3563.86 2245.64C3553.83 2258.02 3553.01 2269.66 3553.01 2400.44C3553.01 2554.38 3554.96 2564.8 3585.08 2572.36C3603.57 2577 3635.82 2566.46 3641.47 2553.94C3643.86 2548.63 3647.28 2527.69 3649.06 2507.41L3652.3 2470.53H3700.52H3748.74L3747.43 2505.5C3744.87 2573.58 3709.29 2633.03 3665.9 2641.71C3656.73 2643.54 3647.85 2647.26 3646.17 2649.98C3642.19 2656.42 3560.29 2656.42 3556.3 2649.98C3554.62 2647.26 3545.11 2643.41 3535.17 2641.42C3508.64 2636.12 3483.95 2614.8 3467.89 2583.35C3453.83 2555.83 3453.73 2554.58 3453.73 2402.45C3453.73 2262.33 3454.67 2247.37 3464.72 2227.12Z" fill="black"/>
<path d="M6250.9 2242C6262.52 2202.05 6292.73 2170.99 6331.62 2159.03C6389.4 2141.25 6462.83 2153.23 6497.67 2186.12C6523.58 2210.58 6533.06 2233.6 6536.03 2279.29L6538.71 2320.66L6491.15 2319.01L6443.58 2317.34L6440.07 2288.57C6435.18 2248.53 6427.25 2236.25 6403.36 2231.77C6376.21 2226.67 6356.84 2236.5 6346.84 2260.44C6336.38 2285.46 6335.04 2508.33 6345.15 2542.05C6353.28 2569.21 6378.21 2580.16 6408.87 2570.04C6424.78 2564.78 6429.11 2559.64 6434.34 2539.81C6437.8 2526.67 6441.29 2505.71 6442.1 2493.22L6443.58 2470.53L6490.39 2468.88L6537.19 2467.23V2504.28C6537.19 2575.8 6504.56 2626.85 6446.77 2645.76C6371.76 2670.29 6289.08 2643.76 6257.73 2585.09C6245.68 2562.55 6244.92 2553.78 6243.24 2417.88C6241.75 2297.24 6242.97 2269.31 6250.9 2242Z" fill="black"/>
<path d="M3788.46 2237.91L3786.78 2199.62L3785.1 2161.32H3944.47H4103.84L4102.17 2199.62L4100.49 2237.91L4048.08 2239.54L3995.68 2241.18L3994.19 2440.95L3992.7 2640.74L3945.89 2642.38L3899.09 2644.03V2442.6V2241.16L3843.77 2239.54L3788.46 2237.91Z" fill="black"/>
<path d="M4148.5 2254.93C4139.87 2236.97 4120.35 2177.34 4120.35 2168.94C4120.35 2163.11 4132.67 2161.32 4172.83 2161.33L4225.3 2161.34L4244.47 2228C4255.01 2264.65 4268.13 2308.69 4273.62 2325.85C4279.11 2343.02 4285.37 2365.38 4287.54 2375.55C4291.39 2393.66 4301.89 2396.09 4301.89 2378.86C4301.89 2374.05 4305.43 2362.07 4309.76 2352.24C4314.09 2342.41 4327.81 2296.07 4340.24 2249.26L4362.83 2164.16L4414.63 2162.52C4449.77 2161.42 4466.42 2162.92 4466.42 2167.19C4466.42 2170.65 4435.6 2266.32 4397.94 2379.79C4327.45 2592.17 4308.57 2634.59 4281.48 2641.38C4273.99 2643.27 4267.85 2647.08 4267.85 2649.86C4267.85 2657.22 4214.16 2656.06 4197.2 2648.33C4183.89 2642.27 4182.75 2638.87 4182.75 2605.12V2568.49L4197.96 2571.4C4218.23 2575.27 4239.02 2565.16 4242.94 2549.52C4244.82 2542.03 4236.57 2509.39 4222.74 2469.65C4209.87 2432.69 4189.13 2371.81 4176.65 2334.36C4164.16 2296.92 4151.5 2261.18 4148.5 2254.93Z" fill="black"/>
<path d="M4889.08 2640.74L4887.6 2401.03L4886.12 2161.32H5016.93H5147.74L5146.06 2199.62L5144.39 2237.91L5063.54 2239.49L4982.69 2241.06V2291.97V2342.87H5056.45H5130.2V2382.59V2422.3H5056.45H4982.69V2493.22V2564.14H5065.22H5147.74L5146.06 2602.44L5144.39 2640.74H5016.74H4889.08Z" fill="black"/>
<path d="M5201.12 2640.74L5199.64 2401.03L5198.16 2161.32H5246.44H5294.73V2252.1V2342.87H5351.46H5408.2V2252.1V2161.32H5456.48H5504.77L5503.29 2401.03L5501.81 2640.74H5456.42H5411.03L5409.49 2531.52L5407.95 2422.3H5351.46H5294.97L5293.43 2531.52L5291.89 2640.74H5246.5H5201.12Z" fill="black"/>
<path d="M5585.54 2381.57C5570.18 2358.38 5569.85 2356.09 5568.1 2259.63L5566.32 2161.32H5611.51H5656.71L5658.83 2236.5C5661.81 2342.07 5675.77 2362.94 5740.68 2358.82L5768.45 2357.06L5770.01 2259.19L5771.56 2161.32H5819.71H5867.86L5866.38 2401.03L5864.9 2640.74L5818.09 2642.38L5771.29 2644.03L5771.28 2540.26L5771.27 2436.49H5710.3C5653.34 2436.49 5647.72 2435.46 5625.26 2420.85C5612.03 2412.25 5594.16 2394.58 5585.54 2381.57Z" fill="black"/>
<path d="M5932.98 2640.74L5931.5 2401.03L5930.02 2161.32H6060.83H6191.63L6189.96 2199.62L6188.28 2237.91L6107.43 2239.49L6026.59 2241.06V2291.8V2342.55L6101.76 2344.13L6176.93 2345.71V2382.59V2419.47L6101.76 2421.05L6026.59 2422.63V2493.39V2564.14H6108.85H6191.12V2603.97V2643.79L6062.05 2642.26L5932.98 2640.74Z" fill="black"/>
<path d="M6596.76 2640.74L6595.28 2401.03L6593.8 2161.32H6642.08H6690.37V2256.07C6690.37 2312.45 6692.44 2348.63 6695.48 2345.43C6700.68 2339.94 6730.71 2284.35 6771.17 2205.29L6793.68 2161.32H6846.98C6901.94 2161.32 6908.88 2164.71 6892.5 2183.57C6888.22 2188.5 6876.37 2207.84 6866.17 2226.57C6855.96 2245.29 6833.77 2284.25 6816.85 2313.15C6793.74 2352.62 6787.07 2368.84 6790.03 2378.39C6792.21 2385.38 6807.69 2420.14 6824.44 2455.64C6841.19 2491.13 6854.9 2520.92 6854.9 2521.84C6854.9 2522.75 6866.51 2548.02 6880.69 2577.98C6894.88 2607.94 6904.94 2634.95 6903.05 2638.01C6897.85 2646.43 6806.37 2645.07 6799.81 2636.48C6796.83 2632.58 6791.02 2620.45 6786.89 2609.53C6782.76 2598.61 6769.44 2565.88 6757.29 2536.81C6745.13 2507.74 6732.68 2477.35 6729.61 2469.29L6724.04 2454.62L6707.39 2477.26C6691.35 2499.06 6690.68 2502.52 6689.13 2570.32L6687.53 2640.74H6642.15H6596.76Z" fill="black"/>
<path d="M6954.18 2640.74L6952.7 2401.03L6951.22 2161.32H6997.28H7043.34L7041.31 2311.2C7040.19 2393.63 7040.35 2460.01 7041.65 2458.71C7042.95 2457.41 7049.78 2440.39 7056.84 2420.89C7082.48 2350 7127.37 2231.96 7132.89 2220.89C7135.99 2214.65 7141.99 2199.33 7146.2 2186.85L7153.87 2164.16L7208.68 2162.54L7263.5 2160.91L7262.02 2400.82L7260.54 2640.74H7215.16H7169.77L7169.8 2489.39C7169.83 2338.09 7169.82 2338.05 7159.72 2364.57C7154.16 2379.16 7147.19 2396.21 7144.22 2402.45C7141.25 2408.69 7130.03 2438.05 7119.27 2467.69C7078.45 2580.19 7056.51 2635.21 7050.83 2639.35C7047.6 2641.71 7024.53 2642.98 6999.57 2642.19L6954.18 2640.74Z" fill="black"/>
<path d="M7322.95 2640.74L7321.47 2401.03L7319.99 2161.32H7365.44H7410.88L7411.16 2310.25L7411.44 2459.18L7425.4 2422.3C7433.07 2402.02 7441.81 2380.32 7444.82 2374.08C7447.83 2367.84 7454.34 2351.24 7459.28 2337.2C7489.26 2252.02 7495.19 2236.04 7500.47 2226.17C7503.69 2220.14 7510.59 2203.1 7515.81 2188.27L7525.29 2161.32H7578.78H7632.27L7630.79 2401.03L7629.31 2640.74L7595.51 2642.47C7576.92 2643.43 7555.45 2642.64 7547.81 2640.72L7533.92 2637.24L7537.61 2488.64C7540.84 2359.09 7540.3 2342.22 7533.4 2357.06C7524.43 2376.35 7516.97 2395.59 7462.97 2538.61L7424.42 2640.74H7373.68H7322.95Z" fill="black"/>
<path d="M3471.57 2847.89C3485.72 2831.06 3509.25 2815.43 3533.16 2806.97C3539.4 2804.75 3568.76 2803.59 3598.4 2804.38C3645.6 2805.64 3655.22 2807.68 3675.8 2820.83C3716.72 2846.97 3734.56 2883.05 3734.56 2939.68V2973.1L3687.75 2971.45L3640.95 2969.8L3637.43 2937.01C3632.73 2893.29 3621.28 2880.79 3587.92 2883.01C3567.89 2884.35 3560.2 2888.01 3550.75 2900.7C3539.61 2915.66 3538.72 2925 3537.11 3043.88C3535.53 3160.84 3536.3 3173.11 3546.72 3196.66C3555.12 3215.64 3561.44 3222.5 3571.13 3223.16C3620.78 3226.51 3634.11 3213.73 3637.15 3159.89L3639.4 3120.15H3686.98H3734.56V3153.16C3734.56 3194.03 3721.58 3239.29 3703.81 3260.42C3679.44 3289.38 3641.19 3303.96 3589.89 3303.85C3513.99 3303.69 3470.73 3277.25 3450.04 3218.36C3440.98 3192.61 3439.55 3170.37 3439.55 3056.07C3439.55 2910.98 3444.26 2880.34 3471.57 2847.89Z" fill="black"/>
<path d="M4511.81 3296.25V3052.18V2808.11H4642.29H4772.78V2847.82V2887.53H4690.52H4608.25V2938.43V2989.32L4680.59 2990.91L4752.92 2992.5L4754.59 3033.63L4756.26 3074.76H4682.26H4608.25V3145.68V3216.6H4690.78H4773.3L4771.62 3254.9L4769.94 3293.19L4640.88 3294.72L4511.81 3296.25Z" fill="black"/>
<path d="M4801.15 2887.13V2847.62V2808.11H4962.84H5124.53V2847.82V2887.53H5067.8H5011.06V3091.78V3296.03H4962.91H4914.76L4913.27 3093.2L4911.78 2890.37L4856.46 2888.75L4801.15 2887.13Z" fill="black"/>
<path d="M5496.13 3514.46C5513 3480.73 5543.54 3452.98 5569.89 3447.46C5576.13 3446.16 5602.76 3444.74 5629.08 3444.31C5684.48 3443.42 5714.4 3454.48 5742.16 3486.09C5761.54 3508.17 5778.36 3560.11 5775.86 3590.16L5774.13 3610.91H5725.9H5677.68L5674.78 3578.39C5672.75 3555.57 5668.3 3542.28 5659.88 3533.85C5643.61 3517.59 5609.59 3517.62 5593.31 3533.91C5581.61 3545.6 5581.23 3550.61 5581.23 3692.74C5581.23 3829.1 5582 3840.34 5592.04 3851.44C5599.75 3859.96 5609.66 3863.38 5626.62 3863.38C5661.03 3863.38 5671.3 3849.68 5674.84 3798.98L5677.68 3758.42H5725.9C5773.02 3758.42 5774.17 3758.75 5776.16 3772.61C5779.36 3794.97 5765.08 3860.73 5751.94 3884.15C5745.37 3895.87 5729.15 3913.08 5715.91 3922.4C5694.61 3937.36 5686.07 3939.6 5642.2 3941.68C5614.22 3943.01 5581.92 3941.17 5568.15 3937.45C5533.09 3927.99 5502.77 3898.21 5488.01 3858.74C5476.41 3827.72 5475.8 3817.84 5477.41 3687.16L5479.11 3548.5L5496.13 3514.46Z" fill="black"/>
<path d="M3455.73 3930.3C3450.2 3921.58 3449.17 3458.5 3454.68 3453C3456.75 3450.92 3502.39 3449.22 3556.1 3449.22C3661.82 3449.22 3680.07 3452.98 3711.96 3481.4C3778.56 3540.74 3768.78 3670.46 3693.98 3719.96C3672.97 3733.86 3664.3 3735.74 3611.88 3737.68L3553.27 3739.84L3551.73 3837.08L3550.18 3934.3L3505.28 3935.98C3473.2 3937.17 3459.06 3935.55 3455.73 3930.3Z" fill="black"/>
<path d="M3851.17 3548.5C3859.03 3517.3 3868.05 3482.11 3871.2 3470.31L3876.93 3448.85L3940.07 3450.45L4003.2 3452.05L4010.57 3483.26C4014.63 3500.42 4028.27 3562.97 4040.9 3622.26C4053.53 3681.55 4067.59 3744.1 4072.12 3761.26C4087.94 3821 4108.84 3927.14 4105.75 3932.13C4104.05 3934.88 4081.51 3937.14 4055.67 3937.14H4008.68L4002.58 3915.86C3999.23 3904.17 3994.86 3883.1 3992.87 3869.06C3990.88 3855.02 3987.89 3836.41 3986.22 3827.71L3983.19 3811.9L3934.5 3813.53L3885.81 3815.16L3873.31 3869.85C3866.44 3899.93 3859.07 3927.38 3856.92 3930.84C3854.57 3934.66 3834.12 3937.14 3805.14 3937.14C3760.69 3937.14 3757.25 3936.31 3757.25 3925.54C3757.25 3913.86 3772.48 3845.17 3778.58 3829.34C3781.54 3821.67 3813.05 3699.73 3851.17 3548.5Z" fill="black"/>
<path d="M4138.72 3698.86C4137.91 3569.36 4138.5 3460.11 4140.05 3456.08C4142.11 3450.72 4155.44 3449.2 4189.75 3450.4L4236.65 3452.05L4238.21 3541.41L4239.78 3630.77H4293.38H4346.99L4348.56 3541.41L4350.12 3452.05H4398.34H4446.57V3693.18V3934.3L4404.91 3935.98C4379.08 3937.02 4360.22 3935.14 4355.27 3931.03C4348.93 3925.78 4347.28 3902.85 4347.28 3820.14V3715.87H4293.38H4239.49L4239.4 3819.41C4239.35 3876.37 4237.22 3926.26 4234.65 3930.3C4231.32 3935.55 4217.18 3937.17 4185.1 3935.98L4140.2 3934.3L4138.72 3698.86Z" fill="black"/>
<path d="M4514.12 3507.75C4500.36 3479.09 4489.11 3454.2 4489.11 3452.43C4489.11 3445.52 4595.51 3449.2 4601.05 3456.31C4604.09 3460.21 4617.52 3492.12 4630.9 3527.23C4644.28 3562.33 4656.88 3591.05 4658.91 3591.05C4662.11 3591.05 4682.15 3546.01 4712.57 3470.49L4721.14 3449.22H4775.33C4805.13 3449.22 4829.51 3450.02 4829.51 3450.99C4829.51 3451.97 4803.07 3505.04 4770.76 3568.92L4712 3685.07L4770.76 3803.42C4803.07 3868.5 4829.51 3925.31 4829.51 3929.66C4829.51 3935.97 4818.92 3937.24 4777.17 3935.94L4724.82 3934.3L4710.5 3896.48C4676.32 3806.13 4661.85 3772.86 4657.35 3774.29C4654.7 3775.13 4641.74 3803.81 4628.54 3838.04C4615.35 3872.26 4600.21 3908.56 4594.91 3918.7L4585.27 3937.14H4537.19C4496.89 3937.14 4489.11 3935.67 4489.11 3928.06C4489.11 3920.15 4543.02 3800.88 4583.31 3719.66C4590.79 3704.58 4596.91 3690.12 4596.91 3687.53C4596.91 3682.97 4566.24 3616.37 4514.12 3507.75Z" fill="black"/>
<path d="M5184.1 3934.3L5182.62 3691.76L5181.14 3449.22H5308.85H5436.56V3488.77V3528.33L5358.55 3529.91L5280.55 3531.48L5279.05 3734.54L5277.57 3937.59L5230.83 3935.95L5184.1 3934.3Z" fill="black"/>
<path d="M4870.57 3753.14C4869.4 3612.03 4870.65 3570.93 4876.24 3567.28C4880.18 3564.7 4898.73 3563.25 4917.45 3564.05L4951.49 3565.52L4953.24 3670.48L4954.99 3775.44L4973.75 3727.22C5015.75 3619.21 5036.29 3570.98 5041.96 3567.03C5050.02 3561.41 5108.53 3561.71 5117.52 3567.41C5123.1 3570.96 5124.36 3611.97 5123.19 3753.14L5121.69 3934.3L5082.49 3936C5054.96 3937.2 5041.89 3935.51 5038.61 3930.33C5036.04 3926.28 5033.89 3884.88 5033.84 3838.32C5033.79 3791.78 5031.84 3755.59 5029.5 3757.9C5027.16 3760.22 5009.71 3800.85 4990.72 3848.21L4956.2 3934.3H4914.13H4872.07L4870.57 3753.14Z" fill="black"/>
<path fill-rule="evenodd" clip-rule="evenodd" d="M4531.81 2168.41C4530.52 2172.32 4528.52 2239.33 4527.36 2317.34C4525.33 2453.83 4524.65 2461.15 4509.23 2511.36C4494.76 2558.5 4491.78 2563.71 4478.4 2565.26L4463.58 2566.98V2652.08V2737.19L4497.39 2738.92C4556.41 2741.96 4557.19 2741.29 4557.19 2688.85V2643.57H4650.81H4744.42V2688.35C4744.42 2723.96 4746.25 2733.84 4753.39 2736.58C4766.48 2741.61 4825.45 2740.62 4833.93 2735.25C4839.4 2731.78 4840.79 2710.48 4839.61 2648.81C4838.06 2568.82 4837.74 2566.94 4825.26 2565.16L4812.5 2563.35V2362.33V2161.32H4673.32C4567.01 2161.32 4533.59 2163 4531.81 2168.41ZM4710.37 2564.14V2402.45V2240.75H4667.83H4625.27V2336.83C4625.27 2438.28 4618.27 2488.78 4597.46 2537.33L4585.96 2564.14H4648.17H4710.37Z" fill="black"/>
<path fill-rule="evenodd" clip-rule="evenodd" d="M3881.23 2810.32C3841.38 2824.56 3814.98 2852.2 3800.51 2894.83C3793.04 2916.83 3791.29 2947.14 3791.29 3054.89C3791.29 3173.86 3792.49 3190.98 3802.63 3218.1C3820.71 3266.42 3853.6 3291.73 3911.43 3301.8C3974.22 3312.73 4034.76 3297.31 4069.82 3261.44C4099.68 3230.9 4104.25 3199.65 4102.27 3039.47C4100.6 2905.33 4099.7 2894.58 4088.28 2873.35C4061.25 2823.14 4021.09 2802.62 3950.15 2802.81C3923.62 2802.87 3892.61 2806.26 3881.23 2810.32ZM4006.88 3056.62C4006.88 2926.57 4003.8 2908.01 3979.06 2889.13C3963.1 2876.96 3925.12 2880.31 3908.92 2895.31C3889.58 2913.24 3886.33 2942.7 3888.69 3078.62C3890.42 3178.24 3891.57 3188.77 3902.35 3203.18C3925.56 3234.25 3971.98 3232.52 3994.12 3199.77C4006.39 3181.61 4006.88 3176.1 4006.88 3056.62Z" fill="black"/>
<path fill-rule="evenodd" clip-rule="evenodd" d="M4161.42 3057.75C4160.6 2928.25 4161.16 2819.1 4162.65 2815.2C4164.69 2809.9 4190.38 2808.11 4264.37 2808.11C4348.49 2808.11 4367.08 2809.7 4388.13 2818.73C4423.04 2833.69 4446.92 2863.05 4455.55 2901.61C4465.07 2944.18 4453.07 2984.33 4420.93 3017.45C4408.51 3030.25 4401.71 3040.72 4405.8 3040.72C4418.18 3040.72 4442.75 3070.55 4452.02 3096.83C4477.5 3169.05 4447.33 3259.83 4389.33 3285.49C4367.78 3295.02 4353 3296.11 4263.9 3294.74L4162.9 3293.19L4161.42 3057.75ZM4342.45 2898.51C4357.38 2916.96 4356.86 2966.15 4341.5 2985.66C4332.66 2996.91 4322.86 3001.11 4298.33 3004.18C4274.18 3007.2 4265.41 3006.28 4261.64 3000.32C4255.58 2990.76 4254.83 2891.14 4260.76 2885.1C4263.1 2882.72 4280.07 2881.85 4298.48 2883.16C4324.75 2885.03 4334.21 2888.33 4342.45 2898.51ZM4356.13 3185.57C4362.21 3153.19 4356.2 3104.78 4344.52 3091.87C4336.27 3082.76 4327.06 3080.44 4299.13 3080.44C4279.85 3080.44 4262.37 3082.14 4260.29 3084.22C4255.56 3088.95 4255.26 3201.1 4259.95 3213.3C4264.39 3224.88 4306.14 3225.39 4332.94 3214.2C4348.38 3207.74 4353.06 3201.97 4356.13 3185.57Z" fill="black"/>
</svg>
