<svg width="8612" height="74" viewBox="0 0 8612 74" fill="none" xmlns="http://www.w3.org/2000/svg">
<path d="M28.28 0.679997C36.6 0.679997 43.32 3.45333 48.44 9C53.6133 14.4933 56.2 21.6933 56.2 30.6C56.2 39.5067 53.6133 46.7067 48.44 52.2C43.32 57.64 36.5733 60.36 28.2 60.36C19.7733 60.36 12.9733 57.64 7.8 52.2C2.62667 46.7067 0.0400002 39.5067 0.0400002 30.6C0.0400002 21.5867 2.6 14.36 7.72 8.92C12.8933 3.42666 19.7467 0.679997 28.28 0.679997ZM28.12 10.92C23.4267 10.92 19.6667 12.68 16.84 16.2C14.0667 19.72 12.68 24.44 12.68 30.36C12.68 36.4933 14.0667 41.2933 16.84 44.76C19.6133 48.2267 23.4267 49.9867 28.28 50.04C33.0267 50.04 36.76 48.28 39.48 44.76C42.2 41.24 43.56 36.44 43.56 30.36C43.56 24.3867 42.1733 19.6667 39.4 16.2C36.6267 12.68 32.8667 10.92 28.12 10.92ZM105.699 2.04V12.68H88.5794V59H76.0194V12.68H58.8994V2.04H105.699ZM162.926 2.04L140.606 24.52L165.006 59H149.326L132.046 33.4L124.766 40.6V59H112.446V2.04H124.766V25.72L147.166 2.04H162.926ZM170.1 2.04H194.66C201.06 2.04 206.127 3.58666 209.86 6.68C213.647 9.72 215.54 14.28 215.54 20.36C215.54 26.3333 213.673 30.8667 209.94 33.96C206.207 37 201.327 38.52 195.3 38.52H182.5V59H170.1V2.04ZM182.5 12.28V28.68H193.62C200.127 28.68 203.38 25.96 203.38 20.52C203.38 15.0267 200.153 12.28 193.7 12.28H182.5ZM266.419 40.68C266.419 46.76 264.526 51.3467 260.739 54.44C257.006 57.48 251.939 59 245.539 59H223.379V2.04H235.779V22.52H246.179C252.206 22.52 257.086 24.0667 260.819 27.16C264.553 30.2 266.419 34.7067 266.419 40.68ZM254.259 40.52C254.259 35.08 251.006 32.36 244.499 32.36H235.779V48.76H244.579C251.033 48.76 254.259 46.0133 254.259 40.52ZM272.499 2.04H284.979V59H272.499V2.04ZM338.278 2.04V12.68H321.158V59H308.598V12.68H291.478V2.04H338.278ZM369.218 0.679997C377.538 0.679997 384.258 3.45333 389.378 9C394.551 14.4933 397.138 21.6933 397.138 30.6C397.138 39.5067 394.551 46.7067 389.378 52.2C384.258 57.64 377.511 60.36 369.138 60.36C360.711 60.36 353.911 57.64 348.738 52.2C343.564 46.7067 340.978 39.5067 340.978 30.6C340.978 21.5867 343.538 14.36 348.658 8.92C353.831 3.42666 360.684 0.679997 369.218 0.679997ZM369.058 10.92C364.364 10.92 360.604 12.68 357.778 16.2C355.004 19.72 353.618 24.44 353.618 30.36C353.618 36.4933 355.004 41.2933 357.778 44.76C360.551 48.2267 364.364 49.9867 369.218 50.04C373.964 50.04 377.698 48.28 380.418 44.76C383.138 41.24 384.498 36.44 384.498 30.36C384.498 24.3867 383.111 19.6667 380.338 16.2C377.564 12.68 373.804 10.92 369.058 10.92ZM456.603 37C455.963 44.1467 453.456 49.8267 449.083 54.04C444.71 58.2533 438.71 60.36 431.083 60.36C422.816 60.36 416.15 57.64 411.083 52.2C406.07 46.7067 403.563 39.4533 403.563 30.44C403.563 21.9067 406.096 14.8133 411.163 9.16C416.283 3.50666 423.083 0.679997 431.563 0.679997C438.336 0.679997 444.016 2.6 448.603 6.44C453.19 10.28 455.723 15.16 456.203 21.08H443.963C443.323 17.9333 441.883 15.5067 439.643 13.8C437.456 12.04 434.683 11.16 431.323 11.16C427.856 11.16 424.923 12.1467 422.523 14.12C420.176 16.04 418.523 18.4133 417.563 21.24C416.603 24.0667 416.123 27.16 416.123 30.52C416.123 36.3867 417.483 41.08 420.203 44.6C422.923 48.0667 426.576 49.8 431.163 49.8C438.79 49.8 443.136 45.5333 444.203 37H456.603ZM505.934 2.04V12.68H488.814V59H476.254V12.68H459.134V2.04H505.934ZM558.44 40.68C558.44 46.76 556.547 51.3467 552.76 54.44C549.027 57.48 543.96 59 537.56 59H512.36V2.04H524.76V22.52H538.2C544.227 22.52 549.107 24.0667 552.84 27.16C556.573 30.2 558.44 34.7067 558.44 40.68ZM546.28 40.52C546.28 35.08 543.027 32.36 536.52 32.36H524.76V48.76H536.6C543.053 48.76 546.28 46.0133 546.28 40.52ZM794.324 30.44C794.324 39.4533 791.791 46.7067 786.724 52.2C781.711 57.64 775.071 60.36 766.804 60.36C759.551 60.36 753.764 58.44 749.444 54.6C745.124 50.76 742.484 45.5333 741.524 38.92H754.004C755.498 46.1733 759.738 49.8 766.724 49.8C770.778 49.8 774.111 48.4133 776.724 45.64C779.338 42.8667 780.938 39.08 781.524 34.28H760.644V24.44H781.124C780.271 20.4933 778.644 17.2933 776.244 14.84C773.844 12.3867 770.618 11.16 766.564 11.16C763.471 11.16 760.831 11.9333 758.644 13.48C756.511 14.9733 755.044 17.1067 754.244 19.88H741.844C742.591 14.28 745.204 9.69333 749.684 6.12C754.218 2.49333 759.764 0.679997 766.324 0.679997C774.804 0.679997 781.578 3.50666 786.644 9.16C791.764 14.8133 794.324 21.9067 794.324 30.44ZM862.581 29.88C862.581 36.8667 860.341 42.36 855.861 46.36C851.381 50.36 845.381 52.4933 837.861 52.76V59H825.541V52.76C818.021 52.4933 812.021 50.36 807.541 46.36C803.061 42.36 800.821 36.8667 800.821 29.88C800.821 23.1067 803.035 17.7733 807.461 13.88C811.941 9.98667 817.968 7.90666 825.541 7.64V2.04H837.861V7.64C845.435 7.90666 851.435 9.98667 855.861 13.88C860.341 17.7733 862.581 23.1067 862.581 29.88ZM850.581 29.88C850.581 25.8267 849.488 22.6533 847.301 20.36C845.115 18.0667 841.968 16.84 837.861 16.68V43.4C841.808 43.24 844.901 41.9333 847.141 39.48C849.435 36.9733 850.581 33.7733 850.581 29.88ZM825.541 43.4V16.68C821.435 16.84 818.288 18.0667 816.101 20.36C813.968 22.6533 812.901 25.8267 812.901 29.88C812.901 33.7733 814.021 36.9733 816.261 39.48C818.501 41.9333 821.595 43.24 825.541 43.4ZM930.394 29.88C930.394 36.8667 928.154 42.36 923.674 46.36C919.194 50.36 913.194 52.4933 905.674 52.76V59H893.354V52.76C885.834 52.4933 879.834 50.36 875.354 46.36C870.874 42.36 868.634 36.8667 868.634 29.88C868.634 23.1067 870.847 17.7733 875.274 13.88C879.754 9.98667 885.78 7.90666 893.354 7.64V2.04H905.674V7.64C913.247 7.90666 919.247 9.98667 923.674 13.88C928.154 17.7733 930.394 23.1067 930.394 29.88ZM918.394 29.88C918.394 25.8267 917.3 22.6533 915.114 20.36C912.927 18.0667 909.78 16.84 905.674 16.68V43.4C909.62 43.24 912.714 41.9333 914.954 39.48C917.247 36.9733 918.394 33.7733 918.394 29.88ZM893.354 43.4V16.68C889.247 16.84 886.1 18.0667 883.914 20.36C881.78 22.6533 880.714 25.8267 880.714 29.88C880.714 33.7733 881.834 36.9733 884.074 39.48C886.314 41.9333 889.407 43.24 893.354 43.4ZM981.646 2.04V12.28H951.326V24.68H979.166V34.52H951.326V48.52H982.206V59H938.926V2.04H981.646ZM1041.44 2.04L1019.12 24.52L1043.52 59H1027.84L1010.56 33.4L1003.28 40.6V59H990.961V2.04H1003.28V25.72L1025.68 2.04H1041.44ZM1090.86 2.04V12.68H1073.74V59H1061.18V12.68H1044.06V2.04H1090.86ZM1145.68 2.04V59H1133.2V19.48H1132.96L1111.52 59H1097.44V2.04H1109.92V41.48H1110.16L1131.6 2.04H1145.68ZM1156.66 2.04H1183.62C1188.95 2.04 1193.3 3.24 1196.66 5.64C1200.07 7.98666 1201.78 11.56 1201.78 16.36C1201.78 19.0267 1201.09 21.4 1199.7 23.48C1198.31 25.5067 1196.42 27.0533 1194.02 28.12C1200.95 30.0933 1204.42 34.7333 1204.42 42.04C1204.42 47.4267 1202.61 51.6133 1198.98 54.6C1195.35 57.5333 1190.74 59 1185.14 59H1156.66V2.04ZM1168.82 11.72V25.08H1180.18C1186.47 25.08 1189.62 22.8667 1189.62 18.44C1189.62 15.8267 1188.77 14.0667 1187.06 13.16C1185.35 12.2 1183.06 11.72 1180.18 11.72H1168.82ZM1168.82 33.56V49.08H1181.38C1184.63 49.08 1187.19 48.5467 1189.06 47.48C1190.98 46.4133 1191.94 44.36 1191.94 41.32C1191.94 38.2267 1190.93 36.1733 1188.9 35.16C1186.93 34.0933 1184.21 33.56 1180.74 33.56H1168.82ZM1261.31 2.04V59H1248.83V34.44H1225.55V59H1213.07V2.04H1225.55V23.48H1248.83V2.04H1261.31ZM1298.12 0.679997C1306.44 0.679997 1313.16 3.45333 1318.28 9C1323.46 14.4933 1326.04 21.6933 1326.04 30.6C1326.04 39.5067 1323.46 46.7067 1318.28 52.2C1313.16 57.64 1306.42 60.36 1298.04 60.36C1289.62 60.36 1282.82 57.64 1277.64 52.2C1272.47 46.7067 1269.88 39.5067 1269.88 30.6C1269.88 21.5867 1272.44 14.36 1277.56 8.92C1282.74 3.42666 1289.59 0.679997 1298.12 0.679997ZM1297.96 10.92C1293.27 10.92 1289.51 12.68 1286.68 16.2C1283.91 19.72 1282.52 24.44 1282.52 30.36C1282.52 36.4933 1283.91 41.2933 1286.68 44.76C1289.46 48.2267 1293.27 49.9867 1298.12 50.04C1302.87 50.04 1306.6 48.28 1309.32 44.76C1312.04 41.24 1313.4 36.44 1313.4 30.36C1313.4 24.3867 1312.02 19.6667 1309.24 16.2C1306.47 12.68 1302.71 10.92 1297.96 10.92ZM1385.51 37C1384.87 44.1467 1382.36 49.8267 1377.99 54.04C1373.62 58.2533 1367.62 60.36 1359.99 60.36C1351.72 60.36 1345.06 57.64 1339.99 52.2C1334.98 46.7067 1332.47 39.4533 1332.47 30.44C1332.47 21.9067 1335 14.8133 1340.07 9.16C1345.19 3.50666 1351.99 0.679997 1360.47 0.679997C1367.24 0.679997 1372.92 2.6 1377.51 6.44C1382.1 10.28 1384.63 15.16 1385.11 21.08H1372.87C1372.23 17.9333 1370.79 15.5067 1368.55 13.8C1366.36 12.04 1363.59 11.16 1360.23 11.16C1356.76 11.16 1353.83 12.1467 1351.43 14.12C1349.08 16.04 1347.43 18.4133 1346.47 21.24C1345.51 24.0667 1345.03 27.16 1345.03 30.52C1345.03 36.3867 1346.39 41.08 1349.11 44.6C1351.83 48.0667 1355.48 49.8 1360.07 49.8C1367.7 49.8 1372.04 45.5333 1373.11 37H1385.51ZM1434.84 2.04V12.68H1417.72V59H1405.16V12.68H1388.04V2.04H1434.84ZM1487.35 40.68C1487.35 46.76 1485.45 51.3467 1481.67 54.44C1477.93 57.48 1472.87 59 1466.47 59H1441.27V2.04H1453.67V22.52H1467.11C1473.13 22.52 1478.01 24.0667 1481.75 27.16C1485.48 30.2 1487.35 34.7067 1487.35 40.68ZM1475.19 40.52C1475.19 35.08 1471.93 32.36 1465.43 32.36H1453.67V48.76H1465.51C1471.96 48.76 1475.19 46.0133 1475.19 40.52ZM1768.08 2.04L1745.76 24.52L1770.16 59H1754.48L1737.2 33.4L1729.92 40.6V59H1717.6V2.04H1729.92V25.72L1752.32 2.04H1768.08ZM1799.53 0.679997C1807.85 0.679997 1814.57 3.45333 1819.69 9C1824.86 14.4933 1827.45 21.6933 1827.45 30.6C1827.45 39.5067 1824.86 46.7067 1819.69 52.2C1814.57 57.64 1807.82 60.36 1799.45 60.36C1791.02 60.36 1784.22 57.64 1779.05 52.2C1773.88 46.7067 1771.29 39.5067 1771.29 30.6C1771.29 21.5867 1773.85 14.36 1778.97 8.92C1784.14 3.42666 1791 0.679997 1799.53 0.679997ZM1799.37 10.92C1794.68 10.92 1790.92 12.68 1788.09 16.2C1785.32 19.72 1783.93 24.44 1783.93 30.36C1783.93 36.4933 1785.32 41.2933 1788.09 44.76C1790.86 48.2267 1794.68 49.9867 1799.53 50.04C1804.28 50.04 1808.01 48.28 1810.73 44.76C1813.45 41.24 1814.81 36.44 1814.81 30.36C1814.81 24.3867 1813.42 19.6667 1810.65 16.2C1807.88 12.68 1804.12 10.92 1799.37 10.92ZM1836.04 59V2.04H1853.88L1867.16 41.16L1880.12 2.04H1897.56V59H1885.8V18.52L1871.8 59H1862.12L1847.96 18.92V59H1836.04ZM1936.93 1.96L1958.61 59H1945.49L1941.01 46.28H1919.81L1915.17 59H1902.37L1924.05 1.96H1936.93ZM1937.97 37.16L1930.45 15.96L1922.85 37.16H1937.97ZM2011.62 2.04V59H1999.14V34.44H1975.86V59H1963.38V2.04H1975.86V23.48H1999.14V2.04H2011.62ZM2078.12 73.64H2066.04V59H2029.88V73.64H2017.8V48.36H2022.12C2025.37 43.9867 2027.69 38.7867 2029.08 32.76C2030.52 26.68 2031.24 19.32 2031.24 10.68V2.04H2071.8V48.36H2078.12V73.64ZM2059.32 48.36V12.2H2043.64V13.16C2043.64 27.4 2041.1 39.1333 2036.04 48.36H2059.32ZM2113.26 1.96L2134.94 59H2121.82L2117.34 46.28H2096.14L2091.5 59H2078.7L2100.38 1.96H2113.26ZM2114.3 37.16L2106.78 15.96L2099.18 37.16H2114.3ZM2410.6 2.04V59H2398.12V19.48H2397.88L2376.44 59H2362.36V2.04H2374.84V41.48H2375.08L2396.52 2.04H2410.6ZM2469.9 2.04V59H2457.42V34.44H2434.14V59H2421.66V2.04H2434.14V23.48H2457.42V2.04H2469.9ZM2529.2 2.04V59H2516.72V19.48H2516.48L2495.04 59H2480.96V2.04H2493.44V41.48H2493.68L2515.12 2.04H2529.2ZM2594.65 73.64H2582.57V59H2540.09V2.04H2552.57V48.36H2575.85V2.04H2588.33V48.36H2594.65V73.64ZM2649.04 2.04V59H2636.56V19.48H2636.32L2614.88 59H2600.8V2.04H2613.28V41.48H2613.52L2634.96 2.04H2649.04ZM2688.42 1.96L2710.1 59H2696.98L2692.5 46.28H2671.3L2666.66 59H2653.86L2675.54 1.96H2688.42ZM2689.46 37.16L2681.94 15.96L2674.34 37.16H2689.46ZM2751.25 2.04V12.68H2734.13V59H2721.57V12.68H2704.45V2.04H2751.25ZM2806.07 2.04V59H2793.59V19.48H2793.35L2771.91 59H2757.83V2.04H2770.31V41.48H2770.55L2791.99 2.04H2806.07ZM2817.05 2.04H2844.01C2849.34 2.04 2853.69 3.24 2857.05 5.64C2860.46 7.98666 2862.17 11.56 2862.17 16.36C2862.17 19.0267 2861.48 21.4 2860.09 23.48C2858.7 25.5067 2856.81 27.0533 2854.41 28.12C2861.34 30.0933 2864.81 34.7333 2864.81 42.04C2864.81 47.4267 2863 51.6133 2859.37 54.6C2855.74 57.5333 2851.13 59 2845.53 59H2817.05V2.04ZM2829.21 11.72V25.08H2840.57C2846.86 25.08 2850.01 22.8667 2850.01 18.44C2850.01 15.8267 2849.16 14.0667 2847.45 13.16C2845.74 12.2 2843.45 11.72 2840.57 11.72H2829.21ZM2829.21 33.56V49.08H2841.77C2845.02 49.08 2847.58 48.5467 2849.45 47.48C2851.37 46.4133 2852.33 44.36 2852.33 41.32C2852.33 38.2267 2851.32 36.1733 2849.29 35.16C2847.32 34.0933 2844.6 33.56 2841.13 33.56H2829.21ZM2921.7 2.04V59H2909.22V34.44H2885.94V59H2873.46V2.04H2885.94V23.48H2909.22V2.04H2921.7ZM2958.51 0.679997C2966.83 0.679997 2973.55 3.45333 2978.67 9C2983.85 14.4933 2986.43 21.6933 2986.43 30.6C2986.43 39.5067 2983.85 46.7067 2978.67 52.2C2973.55 57.64 2966.81 60.36 2958.43 60.36C2950.01 60.36 2943.21 57.64 2938.03 52.2C2932.86 46.7067 2930.27 39.5067 2930.27 30.6C2930.27 21.5867 2932.83 14.36 2937.95 8.92C2943.13 3.42666 2949.98 0.679997 2958.51 0.679997ZM2958.35 10.92C2953.66 10.92 2949.9 12.68 2947.07 16.2C2944.3 19.72 2942.91 24.44 2942.91 30.36C2942.91 36.4933 2944.3 41.2933 2947.07 44.76C2949.85 48.2267 2953.66 49.9867 2958.51 50.04C2963.26 50.04 2966.99 48.28 2969.71 44.76C2972.43 41.24 2973.79 36.44 2973.79 30.36C2973.79 24.3867 2972.41 19.6667 2969.63 16.2C2966.86 12.68 2963.1 10.92 2958.35 10.92ZM3045.9 37C3045.26 44.1467 3042.75 49.8267 3038.38 54.04C3034.01 58.2533 3028.01 60.36 3020.38 60.36C3012.11 60.36 3005.45 57.64 3000.38 52.2C2995.37 46.7067 2992.86 39.4533 2992.86 30.44C2992.86 21.9067 2995.39 14.8133 3000.46 9.16C3005.58 3.50666 3012.38 0.679997 3020.86 0.679997C3027.63 0.679997 3033.31 2.6 3037.9 6.44C3042.49 10.28 3045.02 15.16 3045.5 21.08H3033.26C3032.62 17.9333 3031.18 15.5067 3028.94 13.8C3026.75 12.04 3023.98 11.16 3020.62 11.16C3017.15 11.16 3014.22 12.1467 3011.82 14.12C3009.47 16.04 3007.82 18.4133 3006.86 21.24C3005.9 24.0667 3005.42 27.16 3005.42 30.52C3005.42 36.3867 3006.78 41.08 3009.5 44.6C3012.22 48.0667 3015.87 49.8 3020.46 49.8C3028.09 49.8 3032.43 45.5333 3033.5 37H3045.9ZM3095.23 2.04V12.68H3078.11V59H3065.55V12.68H3048.43V2.04H3095.23ZM3147.74 40.68C3147.74 46.76 3145.84 51.3467 3142.06 54.44C3138.32 57.48 3133.26 59 3126.86 59H3101.66V2.04H3114.06V22.52H3127.5C3133.52 22.52 3138.4 24.0667 3142.14 27.16C3145.87 30.2 3147.74 34.7067 3147.74 40.68ZM3135.58 40.52C3135.58 35.08 3132.32 32.36 3125.82 32.36H3114.06V48.76H3125.9C3132.35 48.76 3135.58 46.0133 3135.58 40.52ZM3403.59 0.679997C3411.91 0.679997 3418.63 3.45333 3423.75 9C3428.93 14.4933 3431.51 21.6933 3431.51 30.6C3431.51 39.5067 3428.93 46.7067 3423.75 52.2C3418.63 57.64 3411.89 60.36 3403.51 60.36C3395.09 60.36 3388.29 57.64 3383.11 52.2C3377.94 46.7067 3375.35 39.5067 3375.35 30.6C3375.35 21.5867 3377.91 14.36 3383.03 8.92C3388.21 3.42666 3395.06 0.679997 3403.59 0.679997ZM3403.43 10.92C3398.74 10.92 3394.98 12.68 3392.15 16.2C3389.38 19.72 3387.99 24.44 3387.99 30.36C3387.99 36.4933 3389.38 41.2933 3392.15 44.76C3394.93 48.2267 3398.74 49.9867 3403.59 50.04C3408.34 50.04 3412.07 48.28 3414.79 44.76C3417.51 41.24 3418.87 36.44 3418.87 30.36C3418.87 24.3867 3417.49 19.6667 3414.71 16.2C3411.94 12.68 3408.18 10.92 3403.43 10.92ZM3481.01 2.04V12.68H3463.89V59H3451.33V12.68H3434.21V2.04H3481.01ZM3487.52 2.04H3514.48C3519.81 2.04 3524.16 3.24 3527.52 5.64C3530.93 7.98666 3532.64 11.56 3532.64 16.36C3532.64 19.0267 3531.94 21.4 3530.56 23.48C3529.17 25.5067 3527.28 27.0533 3524.88 28.12C3531.81 30.0933 3535.28 34.7333 3535.28 42.04C3535.28 47.4267 3533.46 51.6133 3529.84 54.6C3526.21 57.5333 3521.6 59 3516 59H3487.52V2.04ZM3499.68 11.72V25.08H3511.04C3517.33 25.08 3520.48 22.8667 3520.48 18.44C3520.48 15.8267 3519.62 14.0667 3517.92 13.16C3516.21 12.2 3513.92 11.72 3511.04 11.72H3499.68ZM3499.68 33.56V49.08H3512.24C3515.49 49.08 3518.05 48.5467 3519.92 47.48C3521.84 46.4133 3522.8 44.36 3522.8 41.32C3522.8 38.2267 3521.78 36.1733 3519.76 35.16C3517.78 34.0933 3515.06 33.56 3511.6 33.56H3499.68ZM3586.65 2.04V12.28H3556.33V24.68H3584.17V34.52H3556.33V48.52H3587.21V59H3543.93V2.04H3586.65ZM3638.12 2.04V12.68H3621V59H3608.44V12.68H3591.32V2.04H3638.12ZM3694.18 37C3693.54 44.1467 3691.03 49.8267 3686.66 54.04C3682.29 58.2533 3676.29 60.36 3668.66 60.36C3660.39 60.36 3653.73 57.64 3648.66 52.2C3643.65 46.7067 3641.14 39.4533 3641.14 30.44C3641.14 21.9067 3643.67 14.8133 3648.74 9.16C3653.86 3.50666 3660.66 0.679997 3669.14 0.679997C3675.91 0.679997 3681.59 2.6 3686.18 6.44C3690.77 10.28 3693.3 15.16 3693.78 21.08H3681.54C3680.9 17.9333 3679.46 15.5067 3677.22 13.8C3675.03 12.04 3672.26 11.16 3668.9 11.16C3665.43 11.16 3662.5 12.1467 3660.1 14.12C3657.75 16.04 3656.1 18.4133 3655.14 21.24C3654.18 24.0667 3653.7 27.16 3653.7 30.52C3653.7 36.3867 3655.06 41.08 3657.78 44.6C3660.5 48.0667 3664.15 49.8 3668.74 49.8C3676.37 49.8 3680.71 45.5333 3681.78 37H3694.18ZM3743.51 2.04V12.68H3726.39V59H3713.83V12.68H3696.71V2.04H3743.51ZM3750.02 2.04H3776.98C3782.31 2.04 3786.66 3.24 3790.02 5.64C3793.43 7.98666 3795.14 11.56 3795.14 16.36C3795.14 19.0267 3794.44 21.4 3793.06 23.48C3791.67 25.5067 3789.78 27.0533 3787.38 28.12C3794.31 30.0933 3797.78 34.7333 3797.78 42.04C3797.78 47.4267 3795.96 51.6133 3792.34 54.6C3788.71 57.5333 3784.1 59 3778.5 59H3750.02V2.04ZM3762.18 11.72V25.08H3773.54C3779.83 25.08 3782.98 22.8667 3782.98 18.44C3782.98 15.8267 3782.12 14.0667 3780.42 13.16C3778.71 12.2 3776.42 11.72 3773.54 11.72H3762.18ZM3762.18 33.56V49.08H3774.74C3777.99 49.08 3780.55 48.5467 3782.42 47.48C3784.34 46.4133 3785.3 44.36 3785.3 41.32C3785.3 38.2267 3784.28 36.1733 3782.26 35.16C3780.28 34.0933 3777.56 33.56 3774.1 33.56H3762.18ZM3849.15 2.04V12.28H3818.83V24.68H3846.67V34.52H3818.83V48.52H3849.71V59H3806.43V2.04H3849.15ZM3906.54 2.04V59H3894.06V34.44H3870.78V59H3858.3V2.04H3870.78V23.48H3894.06V2.04H3906.54ZM3965.84 2.04V59H3953.36V34.44H3930.08V59H3917.6V2.04H3930.08V23.48H3953.36V2.04H3965.84ZM4002.66 0.679997C4010.98 0.679997 4017.7 3.45333 4022.82 9C4027.99 14.4933 4030.58 21.6933 4030.58 30.6C4030.58 39.5067 4027.99 46.7067 4022.82 52.2C4017.7 57.64 4010.95 60.36 4002.58 60.36C3994.15 60.36 3987.35 57.64 3982.18 52.2C3977 46.7067 3974.42 39.5067 3974.42 30.6C3974.42 21.5867 3976.98 14.36 3982.1 8.92C3987.27 3.42666 3994.12 0.679997 4002.66 0.679997ZM4002.5 10.92C3997.8 10.92 3994.04 12.68 3991.22 16.2C3988.44 19.72 3987.06 24.44 3987.06 30.36C3987.06 36.4933 3988.44 41.2933 3991.22 44.76C3993.99 48.2267 3997.8 49.9867 4002.66 50.04C4007.4 50.04 4011.14 48.28 4013.86 44.76C4016.58 41.24 4017.94 36.44 4017.94 30.36C4017.94 24.3867 4016.55 19.6667 4013.78 16.2C4011 12.68 4007.24 10.92 4002.5 10.92ZM4090.04 37C4089.4 44.1467 4086.89 49.8267 4082.52 54.04C4078.15 58.2533 4072.15 60.36 4064.52 60.36C4056.25 60.36 4049.59 57.64 4044.52 52.2C4039.51 46.7067 4037 39.4533 4037 30.44C4037 21.9067 4039.53 14.8133 4044.6 9.16C4049.72 3.50666 4056.52 0.679997 4065 0.679997C4071.77 0.679997 4077.45 2.6 4082.04 6.44C4086.63 10.28 4089.16 15.16 4089.64 21.08H4077.4C4076.76 17.9333 4075.32 15.5067 4073.08 13.8C4070.89 12.04 4068.12 11.16 4064.76 11.16C4061.29 11.16 4058.36 12.1467 4055.96 14.12C4053.61 16.04 4051.96 18.4133 4051 21.24C4050.04 24.0667 4049.56 27.16 4049.56 30.52C4049.56 36.3867 4050.92 41.08 4053.64 44.6C4056.36 48.0667 4060.01 49.8 4064.6 49.8C4072.23 49.8 4076.57 45.5333 4077.64 37H4090.04ZM4139.37 2.04V12.68H4122.25V59H4109.69V12.68H4092.57V2.04H4139.37ZM4191.88 40.68C4191.88 46.76 4189.98 51.3467 4186.2 54.44C4182.46 57.48 4177.4 59 4171 59H4145.8V2.04H4158.2V22.52H4171.64C4177.66 22.52 4182.54 24.0667 4186.28 27.16C4190.01 30.2 4191.88 34.7067 4191.88 40.68ZM4179.72 40.52C4179.72 35.08 4176.46 32.36 4169.96 32.36H4158.2V48.76H4170.04C4176.49 48.76 4179.72 46.0133 4179.72 40.52ZM4447.73 0.679997C4456.05 0.679997 4462.77 3.45333 4467.89 9C4473.07 14.4933 4475.65 21.6933 4475.65 30.6C4475.65 39.5067 4473.07 46.7067 4467.89 52.2C4462.77 57.64 4456.03 60.36 4447.65 60.36C4439.23 60.36 4432.43 57.64 4427.25 52.2C4422.08 46.7067 4419.49 39.5067 4419.49 30.6C4419.49 21.5867 4422.05 14.36 4427.17 8.92C4432.35 3.42666 4439.2 0.679997 4447.73 0.679997ZM4447.57 10.92C4442.88 10.92 4439.12 12.68 4436.29 16.2C4433.52 19.72 4432.13 24.44 4432.13 30.36C4432.13 36.4933 4433.52 41.2933 4436.29 44.76C4439.07 48.2267 4442.88 49.9867 4447.73 50.04C4452.48 50.04 4456.21 48.28 4458.93 44.76C4461.65 41.24 4463.01 36.44 4463.01 30.36C4463.01 24.3867 4461.63 19.6667 4458.85 16.2C4456.08 12.68 4452.32 10.92 4447.57 10.92ZM4525.15 2.04V12.68H4508.03V59H4495.47V12.68H4478.35V2.04H4525.15ZM4582.38 2.04L4560.06 24.52L4584.46 59H4568.78L4551.5 33.4L4544.22 40.6V59H4531.9V2.04H4544.22V25.72L4566.62 2.04H4582.38ZM4589.55 2.04H4614.11C4620.51 2.04 4625.58 3.58666 4629.31 6.68C4633.1 9.72 4634.99 14.28 4634.99 20.36C4634.99 26.3333 4633.13 30.8667 4629.39 33.96C4625.66 37 4620.78 38.52 4614.75 38.52H4601.95V59H4589.55V2.04ZM4601.95 12.28V28.68H4613.07C4619.58 28.68 4622.83 25.96 4622.83 20.52C4622.83 15.0267 4619.61 12.28 4613.15 12.28H4601.95ZM4685.87 40.68C4685.87 46.76 4683.98 51.3467 4680.19 54.44C4676.46 57.48 4671.39 59 4664.99 59H4642.83V2.04H4655.23V22.52H4665.63C4671.66 22.52 4676.54 24.0667 4680.27 27.16C4684.01 30.2 4685.87 34.7067 4685.87 40.68ZM4673.71 40.52C4673.71 35.08 4670.46 32.36 4663.95 32.36H4655.23V48.76H4664.03C4670.49 48.76 4673.71 46.0133 4673.71 40.52ZM4691.95 2.04H4704.43V59H4691.95V2.04ZM4757.73 2.04V12.68H4740.61V59H4728.05V12.68H4710.93V2.04H4757.73ZM4788.67 0.679997C4796.99 0.679997 4803.71 3.45333 4808.83 9C4814 14.4933 4816.59 21.6933 4816.59 30.6C4816.59 39.5067 4814 46.7067 4808.83 52.2C4803.71 57.64 4796.96 60.36 4788.59 60.36C4780.16 60.36 4773.36 57.64 4768.19 52.2C4763.02 46.7067 4760.43 39.5067 4760.43 30.6C4760.43 21.5867 4762.99 14.36 4768.11 8.92C4773.28 3.42666 4780.14 0.679997 4788.67 0.679997ZM4788.51 10.92C4783.82 10.92 4780.06 12.68 4777.23 16.2C4774.46 19.72 4773.07 24.44 4773.07 30.36C4773.07 36.4933 4774.46 41.2933 4777.23 44.76C4780 48.2267 4783.82 49.9867 4788.67 50.04C4793.42 50.04 4797.15 48.28 4799.87 44.76C4802.59 41.24 4803.95 36.44 4803.95 30.36C4803.95 24.3867 4802.56 19.6667 4799.79 16.2C4797.02 12.68 4793.26 10.92 4788.51 10.92ZM4876.06 37C4875.42 44.1467 4872.91 49.8267 4868.54 54.04C4864.16 58.2533 4858.16 60.36 4850.54 60.36C4842.27 60.36 4835.6 57.64 4830.54 52.2C4825.52 46.7067 4823.02 39.4533 4823.02 30.44C4823.02 21.9067 4825.55 14.8133 4830.62 9.16C4835.74 3.50666 4842.54 0.679997 4851.02 0.679997C4857.79 0.679997 4863.47 2.6 4868.06 6.44C4872.64 10.28 4875.18 15.16 4875.66 21.08H4863.42C4862.78 17.9333 4861.34 15.5067 4859.1 13.8C4856.91 12.04 4854.14 11.16 4850.78 11.16C4847.31 11.16 4844.38 12.1467 4841.98 14.12C4839.63 16.04 4837.98 18.4133 4837.02 21.24C4836.06 24.0667 4835.58 27.16 4835.58 30.52C4835.58 36.3867 4836.94 41.08 4839.66 44.6C4842.38 48.0667 4846.03 49.8 4850.62 49.8C4858.24 49.8 4862.59 45.5333 4863.66 37H4876.06ZM4925.39 2.04V12.68H4908.27V59H4895.71V12.68H4878.59V2.04H4925.39ZM4977.89 40.68C4977.89 46.76 4976 51.3467 4972.21 54.44C4968.48 57.48 4963.41 59 4957.01 59H4931.81V2.04H4944.21V22.52H4957.65C4963.68 22.52 4968.56 24.0667 4972.29 27.16C4976.03 30.2 4977.89 34.7067 4977.89 40.68ZM4965.73 40.52C4965.73 35.08 4962.48 32.36 4955.97 32.36H4944.21V48.76H4956.05C4962.51 48.76 4965.73 46.0133 4965.73 40.52ZM5213.78 30.44C5213.78 39.4533 5211.24 46.7067 5206.18 52.2C5201.16 57.64 5194.52 60.36 5186.26 60.36C5179 60.36 5173.22 58.44 5168.9 54.6C5164.58 50.76 5161.94 45.5333 5160.98 38.92H5173.46C5174.95 46.1733 5179.19 49.8 5186.18 49.8C5190.23 49.8 5193.56 48.4133 5196.18 45.64C5198.79 42.8667 5200.39 39.08 5200.98 34.28H5180.1V24.44H5200.58C5199.72 20.4933 5198.1 17.2933 5195.7 14.84C5193.3 12.3867 5190.07 11.16 5186.02 11.16C5182.92 11.16 5180.28 11.9333 5178.1 13.48C5175.96 14.9733 5174.5 17.1067 5173.7 19.88H5161.3C5162.04 14.28 5164.66 9.69333 5169.14 6.12C5173.67 2.49333 5179.22 0.679997 5185.78 0.679997C5194.26 0.679997 5201.03 3.50666 5206.1 9.16C5211.22 14.8133 5213.78 21.9067 5213.78 30.44ZM5282.03 29.88C5282.03 36.8667 5279.79 42.36 5275.31 46.36C5270.83 50.36 5264.83 52.4933 5257.31 52.76V59H5244.99V52.76C5237.47 52.4933 5231.47 50.36 5226.99 46.36C5222.51 42.36 5220.27 36.8667 5220.27 29.88C5220.27 23.1067 5222.49 17.7733 5226.91 13.88C5231.39 9.98667 5237.42 7.90666 5244.99 7.64V2.04H5257.31V7.64C5264.89 7.90666 5270.89 9.98667 5275.31 13.88C5279.79 17.7733 5282.03 23.1067 5282.03 29.88ZM5270.03 29.88C5270.03 25.8267 5268.94 22.6533 5266.75 20.36C5264.57 18.0667 5261.42 16.84 5257.31 16.68V43.4C5261.26 43.24 5264.35 41.9333 5266.59 39.48C5268.89 36.9733 5270.03 33.7733 5270.03 29.88ZM5244.99 43.4V16.68C5240.89 16.84 5237.74 18.0667 5235.55 20.36C5233.42 22.6533 5232.35 25.8267 5232.35 29.88C5232.35 33.7733 5233.47 36.9733 5235.71 39.48C5237.95 41.9333 5241.05 43.24 5244.99 43.4ZM5349.85 29.88C5349.85 36.8667 5347.61 42.36 5343.13 46.36C5338.65 50.36 5332.65 52.4933 5325.13 52.76V59H5312.81V52.76C5305.29 52.4933 5299.29 50.36 5294.81 46.36C5290.33 42.36 5288.09 36.8667 5288.09 29.88C5288.09 23.1067 5290.3 17.7733 5294.73 13.88C5299.21 9.98667 5305.23 7.90666 5312.81 7.64V2.04H5325.13V7.64C5332.7 7.90666 5338.7 9.98667 5343.13 13.88C5347.61 17.7733 5349.85 23.1067 5349.85 29.88ZM5337.85 29.88C5337.85 25.8267 5336.75 22.6533 5334.57 20.36C5332.38 18.0667 5329.23 16.84 5325.13 16.68V43.4C5329.07 43.24 5332.17 41.9333 5334.41 39.48C5336.7 36.9733 5337.85 33.7733 5337.85 29.88ZM5312.81 43.4V16.68C5308.7 16.84 5305.55 18.0667 5303.37 20.36C5301.23 22.6533 5300.17 25.8267 5300.17 29.88C5300.17 33.7733 5301.29 36.9733 5303.53 39.48C5305.77 41.9333 5308.86 43.24 5312.81 43.4ZM5401.1 2.04V12.28H5370.78V24.68H5398.62V34.52H5370.78V48.52H5401.66V59H5358.38V2.04H5401.1ZM5460.89 2.04L5438.57 24.52L5462.97 59H5447.29L5430.01 33.4L5422.73 40.6V59H5410.41V2.04H5422.73V25.72L5445.13 2.04H5460.89ZM5510.31 2.04V12.68H5493.19V59H5480.63V12.68H5463.51V2.04H5510.31ZM5565.14 2.04V59H5552.66V19.48H5552.42L5530.98 59H5516.9V2.04H5529.38V41.48H5529.62L5551.06 2.04H5565.14ZM5576.11 2.04H5603.07C5608.41 2.04 5612.75 3.24 5616.11 5.64C5619.53 7.98666 5621.23 11.56 5621.23 16.36C5621.23 19.0267 5620.54 21.4 5619.15 23.48C5617.77 25.5067 5615.87 27.0533 5613.47 28.12C5620.41 30.0933 5623.87 34.7333 5623.87 42.04C5623.87 47.4267 5622.06 51.6133 5618.43 54.6C5614.81 57.5333 5610.19 59 5604.59 59H5576.11V2.04ZM5588.27 11.72V25.08H5599.63C5605.93 25.08 5609.07 22.8667 5609.07 18.44C5609.07 15.8267 5608.22 14.0667 5606.51 13.16C5604.81 12.2 5602.51 11.72 5599.63 11.72H5588.27ZM5588.27 33.56V49.08H5600.83C5604.09 49.08 5606.65 48.5467 5608.51 47.48C5610.43 46.4133 5611.39 44.36 5611.39 41.32C5611.39 38.2267 5610.38 36.1733 5608.35 35.16C5606.38 34.0933 5603.66 33.56 5600.19 33.56H5588.27ZM5680.76 2.04V59H5668.28V34.44H5645V59H5632.52V2.04H5645V23.48H5668.28V2.04H5680.76ZM5717.58 0.679997C5725.9 0.679997 5732.62 3.45333 5737.74 9C5742.91 14.4933 5745.5 21.6933 5745.5 30.6C5745.5 39.5067 5742.91 46.7067 5737.74 52.2C5732.62 57.64 5725.87 60.36 5717.5 60.36C5709.07 60.36 5702.27 57.64 5697.1 52.2C5691.92 46.7067 5689.34 39.5067 5689.34 30.6C5689.34 21.5867 5691.9 14.36 5697.02 8.92C5702.19 3.42666 5709.04 0.679997 5717.58 0.679997ZM5717.42 10.92C5712.72 10.92 5708.96 12.68 5706.14 16.2C5703.36 19.72 5701.98 24.44 5701.98 30.36C5701.98 36.4933 5703.36 41.2933 5706.14 44.76C5708.91 48.2267 5712.72 49.9867 5717.58 50.04C5722.32 50.04 5726.06 48.28 5728.78 44.76C5731.5 41.24 5732.86 36.44 5732.86 30.36C5732.86 24.3867 5731.47 19.6667 5728.7 16.2C5725.92 12.68 5722.16 10.92 5717.42 10.92ZM5804.96 37C5804.32 44.1467 5801.82 49.8267 5797.44 54.04C5793.07 58.2533 5787.07 60.36 5779.44 60.36C5771.18 60.36 5764.51 57.64 5759.44 52.2C5754.43 46.7067 5751.92 39.4533 5751.92 30.44C5751.92 21.9067 5754.46 14.8133 5759.52 9.16C5764.64 3.50666 5771.44 0.679997 5779.92 0.679997C5786.7 0.679997 5792.38 2.6 5796.96 6.44C5801.55 10.28 5804.08 15.16 5804.56 21.08H5792.32C5791.68 17.9333 5790.24 15.5067 5788 13.8C5785.82 12.04 5783.04 11.16 5779.68 11.16C5776.22 11.16 5773.28 12.1467 5770.88 14.12C5768.54 16.04 5766.88 18.4133 5765.92 21.24C5764.96 24.0667 5764.48 27.16 5764.48 30.52C5764.48 36.3867 5765.84 41.08 5768.56 44.6C5771.28 48.0667 5774.94 49.8 5779.52 49.8C5787.15 49.8 5791.5 45.5333 5792.56 37H5804.96ZM5854.29 2.04V12.68H5837.17V59H5824.61V12.68H5807.49V2.04H5854.29ZM5906.8 40.68C5906.8 46.76 5904.91 51.3467 5901.12 54.44C5897.39 57.48 5892.32 59 5885.92 59H5860.72V2.04H5873.12V22.52H5886.56C5892.59 22.52 5897.47 24.0667 5901.2 27.16C5904.93 30.2 5906.8 34.7067 5906.8 40.68ZM5894.64 40.52C5894.64 35.08 5891.39 32.36 5884.88 32.36H5873.12V48.76H5884.96C5891.41 48.76 5894.64 46.0133 5894.64 40.52ZM6187.54 2.04L6165.22 24.52L6189.62 59H6173.94L6156.66 33.4L6149.38 40.6V59H6137.06V2.04H6149.38V25.72L6171.77 2.04H6187.54ZM6218.98 0.679997C6227.3 0.679997 6234.02 3.45333 6239.14 9C6244.32 14.4933 6246.9 21.6933 6246.9 30.6C6246.9 39.5067 6244.32 46.7067 6239.14 52.2C6234.02 57.64 6227.28 60.36 6218.9 60.36C6210.48 60.36 6203.68 57.64 6198.5 52.2C6193.33 46.7067 6190.74 39.5067 6190.74 30.6C6190.74 21.5867 6193.3 14.36 6198.42 8.92C6203.6 3.42666 6210.45 0.679997 6218.98 0.679997ZM6218.82 10.92C6214.13 10.92 6210.37 12.68 6207.54 16.2C6204.77 19.72 6203.38 24.44 6203.38 30.36C6203.38 36.4933 6204.77 41.2933 6207.54 44.76C6210.32 48.2267 6214.13 49.9867 6218.98 50.04C6223.73 50.04 6227.46 48.28 6230.18 44.76C6232.9 41.24 6234.26 36.44 6234.26 30.36C6234.26 24.3867 6232.88 19.6667 6230.1 16.2C6227.33 12.68 6223.57 10.92 6218.82 10.92ZM6255.49 59V2.04H6273.33L6286.61 41.16L6299.57 2.04H6317.01V59H6305.25V18.52L6291.25 59H6281.57L6267.41 18.92V59H6255.49ZM6356.39 1.96L6378.07 59H6364.95L6360.47 46.28H6339.27L6334.63 59H6321.83L6343.51 1.96H6356.39ZM6357.43 37.16L6349.91 15.96L6342.31 37.16H6357.43ZM6431.07 2.04V59H6418.59V34.44H6395.31V59H6382.83V2.04H6395.31V23.48H6418.59V2.04H6431.07ZM6497.57 73.64H6485.49V59H6449.33V73.64H6437.25V48.36H6441.57C6444.82 43.9867 6447.14 38.7867 6448.53 32.76C6449.97 26.68 6450.69 19.32 6450.69 10.68V2.04H6491.25V48.36H6497.57V73.64ZM6478.77 48.36V12.2H6463.09V13.16C6463.09 27.4 6460.56 39.1333 6455.49 48.36H6478.77ZM6532.72 1.96L6554.4 59H6541.28L6536.8 46.28H6515.6L6510.96 59H6498.15L6519.84 1.96H6532.72ZM6533.76 37.16L6526.24 15.96L6518.64 37.16H6533.76ZM6830.06 2.04V59H6817.58V19.48H6817.34L6795.9 59H6781.82V2.04H6794.3V41.48H6794.54L6815.98 2.04H6830.06ZM6889.35 2.04V59H6876.87V34.44H6853.59V59H6841.11V2.04H6853.59V23.48H6876.87V2.04H6889.35ZM6948.65 2.04V59H6936.17V19.48H6935.93L6914.49 59H6900.41V2.04H6912.89V41.48H6913.13L6934.57 2.04H6948.65ZM7014.11 73.64H7002.03V59H6959.55V2.04H6972.03V48.36H6995.31V2.04H7007.79V48.36H7014.11V73.64ZM7068.49 2.04V59H7056.01V19.48H7055.77L7034.33 59H7020.25V2.04H7032.73V41.48H7032.97L7054.41 2.04H7068.49ZM7107.87 1.96L7129.55 59H7116.43L7111.95 46.28H7090.75L7086.11 59H7073.31L7094.99 1.96H7107.87ZM7108.91 37.16L7101.39 15.96L7093.79 37.16H7108.91ZM7170.7 2.04V12.68H7153.58V59H7141.02V12.68H7123.9V2.04H7170.7ZM7225.53 2.04V59H7213.05V19.48H7212.81L7191.37 59H7177.29V2.04H7189.77V41.48H7190.01L7211.45 2.04H7225.53ZM7236.5 2.04H7263.46C7268.8 2.04 7273.14 3.24 7276.5 5.64C7279.92 7.98666 7281.62 11.56 7281.62 16.36C7281.62 19.0267 7280.93 21.4 7279.54 23.48C7278.16 25.5067 7276.26 27.0533 7273.86 28.12C7280.8 30.0933 7284.26 34.7333 7284.26 42.04C7284.26 47.4267 7282.45 51.6133 7278.82 54.6C7275.2 57.5333 7270.58 59 7264.98 59H7236.5V2.04ZM7248.66 11.72V25.08H7260.02C7266.32 25.08 7269.46 22.8667 7269.46 18.44C7269.46 15.8267 7268.61 14.0667 7266.9 13.16C7265.2 12.2 7262.9 11.72 7260.02 11.72H7248.66ZM7248.66 33.56V49.08H7261.22C7264.48 49.08 7267.04 48.5467 7268.9 47.48C7270.82 46.4133 7271.78 44.36 7271.78 41.32C7271.78 38.2267 7270.77 36.1733 7268.74 35.16C7266.77 34.0933 7264.05 33.56 7260.58 33.56H7248.66ZM7341.15 2.04V59H7328.67V34.44H7305.39V59H7292.91V2.04H7305.39V23.48H7328.67V2.04H7341.15ZM7377.97 0.679997C7386.29 0.679997 7393.01 3.45333 7398.13 9C7403.3 14.4933 7405.89 21.6933 7405.89 30.6C7405.89 39.5067 7403.3 46.7067 7398.13 52.2C7393.01 57.64 7386.26 60.36 7377.89 60.36C7369.46 60.36 7362.66 57.64 7357.49 52.2C7352.31 46.7067 7349.73 39.5067 7349.73 30.6C7349.73 21.5867 7352.29 14.36 7357.41 8.92C7362.58 3.42666 7369.43 0.679997 7377.97 0.679997ZM7377.81 10.92C7373.11 10.92 7369.35 12.68 7366.53 16.2C7363.75 19.72 7362.37 24.44 7362.37 30.36C7362.37 36.4933 7363.75 41.2933 7366.53 44.76C7369.3 48.2267 7373.11 49.9867 7377.97 50.04C7382.71 50.04 7386.45 48.28 7389.17 44.76C7391.89 41.24 7393.25 36.44 7393.25 30.36C7393.25 24.3867 7391.86 19.6667 7389.09 16.2C7386.31 12.68 7382.55 10.92 7377.81 10.92ZM7465.35 37C7464.71 44.1467 7462.21 49.8267 7457.83 54.04C7453.46 58.2533 7447.46 60.36 7439.83 60.36C7431.57 60.36 7424.9 57.64 7419.83 52.2C7414.82 46.7067 7412.31 39.4533 7412.31 30.44C7412.31 21.9067 7414.85 14.8133 7419.91 9.16C7425.03 3.50666 7431.83 0.679997 7440.31 0.679997C7447.09 0.679997 7452.77 2.6 7457.35 6.44C7461.94 10.28 7464.47 15.16 7464.95 21.08H7452.71C7452.07 17.9333 7450.63 15.5067 7448.39 13.8C7446.21 12.04 7443.43 11.16 7440.07 11.16C7436.61 11.16 7433.67 12.1467 7431.27 14.12C7428.93 16.04 7427.27 18.4133 7426.31 21.24C7425.35 24.0667 7424.87 27.16 7424.87 30.52C7424.87 36.3867 7426.23 41.08 7428.95 44.6C7431.67 48.0667 7435.33 49.8 7439.91 49.8C7447.54 49.8 7451.89 45.5333 7452.95 37H7465.35ZM7514.68 2.04V12.68H7497.56V59H7485V12.68H7467.88V2.04H7514.68ZM7567.19 40.68C7567.19 46.76 7565.3 51.3467 7561.51 54.44C7557.78 57.48 7552.71 59 7546.31 59H7521.11V2.04H7533.51V22.52H7546.95C7552.98 22.52 7557.86 24.0667 7561.59 27.16C7565.32 30.2 7567.19 34.7067 7567.19 40.68ZM7555.03 40.52C7555.03 35.08 7551.78 32.36 7545.27 32.36H7533.51V48.76H7545.35C7551.8 48.76 7555.03 46.0133 7555.03 40.52ZM7823.05 0.679997C7831.37 0.679997 7838.09 3.45333 7843.21 9C7848.38 14.4933 7850.97 21.6933 7850.97 30.6C7850.97 39.5067 7848.38 46.7067 7843.21 52.2C7838.09 57.64 7831.34 60.36 7822.97 60.36C7814.54 60.36 7807.74 57.64 7802.57 52.2C7797.39 46.7067 7794.81 39.5067 7794.81 30.6C7794.81 21.5867 7797.37 14.36 7802.49 8.92C7807.66 3.42666 7814.51 0.679997 7823.05 0.679997ZM7822.89 10.92C7818.19 10.92 7814.43 12.68 7811.61 16.2C7808.83 19.72 7807.45 24.44 7807.45 30.36C7807.45 36.4933 7808.83 41.2933 7811.61 44.76C7814.38 48.2267 7818.19 49.9867 7823.05 50.04C7827.79 50.04 7831.53 48.28 7834.25 44.76C7836.97 41.24 7838.33 36.44 7838.33 30.36C7838.33 24.3867 7836.94 19.6667 7834.17 16.2C7831.39 12.68 7827.63 10.92 7822.89 10.92ZM7900.47 2.04V12.68H7883.35V59H7870.79V12.68H7853.67V2.04H7900.47ZM7906.97 2.04H7933.93C7939.26 2.04 7943.61 3.24 7946.97 5.64C7950.38 7.98666 7952.09 11.56 7952.09 16.36C7952.09 19.0267 7951.4 21.4 7950.01 23.48C7948.62 25.5067 7946.73 27.0533 7944.33 28.12C7951.26 30.0933 7954.73 34.7333 7954.73 42.04C7954.73 47.4267 7952.92 51.6133 7949.29 54.6C7945.66 57.5333 7941.05 59 7935.45 59H7906.97V2.04ZM7919.13 11.72V25.08H7930.49C7936.78 25.08 7939.93 22.8667 7939.93 18.44C7939.93 15.8267 7939.08 14.0667 7937.37 13.16C7935.66 12.2 7933.37 11.72 7930.49 11.72H7919.13ZM7919.13 33.56V49.08H7931.69C7934.94 49.08 7937.5 48.5467 7939.37 47.48C7941.29 46.4133 7942.25 44.36 7942.25 41.32C7942.25 38.2267 7941.24 36.1733 7939.21 35.16C7937.24 34.0933 7934.52 33.56 7931.05 33.56H7919.13ZM8006.1 2.04V12.28H7975.78V24.68H8003.62V34.52H7975.78V48.52H8006.66V59H7963.38V2.04H8006.1ZM8057.57 2.04V12.68H8040.45V59H8027.89V12.68H8010.77V2.04H8057.57ZM8113.63 37C8112.99 44.1467 8110.49 49.8267 8106.11 54.04C8101.74 58.2533 8095.74 60.36 8088.11 60.36C8079.85 60.36 8073.18 57.64 8068.11 52.2C8063.1 46.7067 8060.59 39.4533 8060.59 30.44C8060.59 21.9067 8063.13 14.8133 8068.19 9.16C8073.31 3.50666 8080.11 0.679997 8088.59 0.679997C8095.37 0.679997 8101.05 2.6 8105.63 6.44C8110.22 10.28 8112.75 15.16 8113.23 21.08H8100.99C8100.35 17.9333 8098.91 15.5067 8096.67 13.8C8094.49 12.04 8091.71 11.16 8088.35 11.16C8084.89 11.16 8081.95 12.1467 8079.55 14.12C8077.21 16.04 8075.55 18.4133 8074.59 21.24C8073.63 24.0667 8073.15 27.16 8073.15 30.52C8073.15 36.3867 8074.51 41.08 8077.23 44.6C8079.95 48.0667 8083.61 49.8 8088.19 49.8C8095.82 49.8 8100.17 45.5333 8101.23 37H8113.63ZM8162.97 2.04V12.68H8145.85V59H8133.29V12.68H8116.17V2.04H8162.97ZM8169.47 2.04H8196.43C8201.76 2.04 8206.11 3.24 8209.47 5.64C8212.88 7.98666 8214.59 11.56 8214.59 16.36C8214.59 19.0267 8213.9 21.4 8212.51 23.48C8211.12 25.5067 8209.23 27.0533 8206.83 28.12C8213.76 30.0933 8217.23 34.7333 8217.23 42.04C8217.23 47.4267 8215.42 51.6133 8211.79 54.6C8208.16 57.5333 8203.55 59 8197.95 59H8169.47V2.04ZM8181.63 11.72V25.08H8192.99C8199.28 25.08 8202.43 22.8667 8202.43 18.44C8202.43 15.8267 8201.58 14.0667 8199.87 13.16C8198.16 12.2 8195.87 11.72 8192.99 11.72H8181.63ZM8181.63 33.56V49.08H8194.19C8197.44 49.08 8200 48.5467 8201.87 47.48C8203.79 46.4133 8204.75 44.36 8204.75 41.32C8204.75 38.2267 8203.74 36.1733 8201.71 35.16C8199.74 34.0933 8197.02 33.56 8193.55 33.56H8181.63ZM8268.6 2.04V12.28H8238.28V24.68H8266.12V34.52H8238.28V48.52H8269.16V59H8225.88V2.04H8268.6ZM8325.99 2.04V59H8313.51V34.44H8290.23V59H8277.75V2.04H8290.23V23.48H8313.51V2.04H8325.99ZM8385.29 2.04V59H8372.81V34.44H8349.53V59H8337.05V2.04H8349.53V23.48H8372.81V2.04H8385.29ZM8422.11 0.679997C8430.43 0.679997 8437.15 3.45333 8442.27 9C8447.44 14.4933 8450.03 21.6933 8450.03 30.6C8450.03 39.5067 8447.44 46.7067 8442.27 52.2C8437.15 57.64 8430.4 60.36 8422.03 60.36C8413.6 60.36 8406.8 57.64 8401.63 52.2C8396.45 46.7067 8393.87 39.5067 8393.87 30.6C8393.87 21.5867 8396.43 14.36 8401.55 8.92C8406.72 3.42666 8413.57 0.679997 8422.11 0.679997ZM8421.95 10.92C8417.25 10.92 8413.49 12.68 8410.67 16.2C8407.89 19.72 8406.51 24.44 8406.51 30.36C8406.51 36.4933 8407.89 41.2933 8410.67 44.76C8413.44 48.2267 8417.25 49.9867 8422.11 50.04C8426.85 50.04 8430.59 48.28 8433.31 44.76C8436.03 41.24 8437.39 36.44 8437.39 30.36C8437.39 24.3867 8436 19.6667 8433.23 16.2C8430.45 12.68 8426.69 10.92 8421.95 10.92ZM8509.49 37C8508.85 44.1467 8506.35 49.8267 8501.97 54.04C8497.6 58.2533 8491.6 60.36 8483.97 60.36C8475.71 60.36 8469.04 57.64 8463.97 52.2C8458.96 46.7067 8456.45 39.4533 8456.45 30.44C8456.45 21.9067 8458.99 14.8133 8464.05 9.16C8469.17 3.50666 8475.97 0.679997 8484.45 0.679997C8491.23 0.679997 8496.91 2.6 8501.49 6.44C8506.08 10.28 8508.61 15.16 8509.09 21.08H8496.85C8496.21 17.9333 8494.77 15.5067 8492.53 13.8C8490.35 12.04 8487.57 11.16 8484.21 11.16C8480.75 11.16 8477.81 12.1467 8475.41 14.12C8473.07 16.04 8471.41 18.4133 8470.45 21.24C8469.49 24.0667 8469.01 27.16 8469.01 30.52C8469.01 36.3867 8470.37 41.08 8473.09 44.6C8475.81 48.0667 8479.47 49.8 8484.05 49.8C8491.68 49.8 8496.03 45.5333 8497.09 37H8509.49ZM8558.82 2.04V12.68H8541.7V59H8529.14V12.68H8512.02V2.04H8558.82ZM8611.33 40.68C8611.33 46.76 8609.44 51.3467 8605.65 54.44C8601.92 57.48 8596.85 59 8590.45 59H8565.25V2.04H8577.65V22.52H8591.09C8597.12 22.52 8602 24.0667 8605.73 27.16C8609.46 30.2 8611.33 34.7067 8611.33 40.68ZM8599.17 40.52C8599.17 35.08 8595.92 32.36 8589.41 32.36H8577.65V48.76H8589.49C8595.94 48.76 8599.17 46.0133 8599.17 40.52Z" fill="black"/>
</svg>
